<svg width="620" height="222" viewBox="0 0 620 222" fill="none" xmlns="http://www.w3.org/2000/svg">
<g filter="url(#filter0_d_2013_51)">
<g filter="url(#filter1_i_2013_51)">
<path d="M139.018 103H129.115V89.5938H94.3047V103H84.4023V75.6924C84.4023 71.7061 85.0879 68.0371 86.459 64.6855C87.8301 61.334 89.7344 58.4521 92.1719 56.04C94.6094 53.6279 97.4912 51.749 100.817 50.4033C104.144 49.0576 107.774 48.3848 111.71 48.3848H134.028C134.714 48.3848 135.361 48.5117 135.971 48.7656C136.58 49.0195 137.113 49.375 137.57 49.832C138.027 50.2891 138.383 50.8223 138.637 51.4316C138.891 52.041 139.018 52.6885 139.018 53.374V103ZM94.3047 79.6914H129.115V58.2871H111.71C111.405 58.2871 110.758 58.3379 109.768 58.4395C108.803 58.5156 107.673 58.7314 106.378 59.0869C105.108 59.4424 103.763 59.9883 102.341 60.7246C100.919 61.4609 99.6113 62.4766 98.418 63.7715C97.2246 65.0664 96.2344 66.6914 95.4473 68.6465C94.6855 70.5762 94.3047 72.9248 94.3047 75.6924V79.6914ZM203.04 86.9277C203.04 88.8828 202.786 90.6475 202.278 92.2217C201.796 93.7705 201.148 95.1416 200.336 96.335C199.523 97.5283 198.571 98.5439 197.479 99.3818C196.388 100.22 195.258 100.905 194.09 101.438C192.922 101.972 191.729 102.365 190.51 102.619C189.316 102.873 188.187 103 187.12 103H148.92V93.0977H187.12C189.024 93.0977 190.497 92.5391 191.538 91.4219C192.604 90.3047 193.138 88.8066 193.138 86.9277C193.138 86.0137 192.998 85.1758 192.719 84.4141C192.439 83.6523 192.033 82.9922 191.5 82.4336C190.992 81.875 190.357 81.4434 189.596 81.1387C188.859 80.834 188.034 80.6816 187.12 80.6816H164.345C162.745 80.6816 161.019 80.4023 159.165 79.8438C157.312 79.2598 155.585 78.333 153.985 77.0635C152.411 75.7939 151.091 74.1309 150.024 72.0742C148.983 70.0176 148.463 67.5039 148.463 64.5332C148.463 61.5625 148.983 59.0615 150.024 57.0303C151.091 54.9736 152.411 53.3105 153.985 52.041C155.585 50.7461 157.312 49.8193 159.165 49.2607C161.019 48.6768 162.745 48.3848 164.345 48.3848H198.051V58.2871H164.345C162.466 58.2871 160.993 58.8584 159.927 60.001C158.886 61.1436 158.365 62.6543 158.365 64.5332C158.365 66.4375 158.886 67.9482 159.927 69.0654C160.993 70.1572 162.466 70.7031 164.345 70.7031H187.12H187.196C188.263 70.7285 189.393 70.8809 190.586 71.1602C191.779 71.4141 192.96 71.8203 194.128 72.3789C195.321 72.9375 196.451 73.6484 197.518 74.5117C198.584 75.3496 199.523 76.3652 200.336 77.5586C201.174 78.752 201.834 80.123 202.316 81.6719C202.799 83.2207 203.04 84.9727 203.04 86.9277ZM260.169 103H224.444C223.53 103 222.54 102.898 221.474 102.695C220.433 102.467 219.392 102.124 218.351 101.667C217.335 101.21 216.357 100.626 215.418 99.915C214.479 99.1787 213.641 98.3027 212.904 97.2871C212.193 96.2461 211.622 95.0527 211.19 93.707C210.759 92.3359 210.543 90.7998 210.543 89.0986V62.2861C210.543 61.3721 210.645 60.3945 210.848 59.3535C211.076 58.2871 211.419 57.2461 211.876 56.2305C212.333 55.1895 212.93 54.1992 213.666 53.2598C214.402 52.3203 215.278 51.4951 216.294 50.7842C217.335 50.0479 218.528 49.4639 219.874 49.0322C221.22 48.6006 222.743 48.3848 224.444 48.3848H260.169V58.2871H224.444C223.149 58.2871 222.159 58.6299 221.474 59.3154C220.788 60.001 220.445 61.0166 220.445 62.3623V89.0986C220.445 90.3682 220.788 91.3584 221.474 92.0693C222.185 92.7549 223.175 93.0977 224.444 93.0977H260.169V103ZM279.517 103H269.614V48.3848H279.517V103ZM301.073 103H291.171V48.3848H301.073V103ZM347.043 80.1484H311.318V71.2363H347.043V80.1484ZM410.799 103H400.896V89.5938H366.086V103H356.184V75.6924C356.184 71.7061 356.869 68.0371 358.24 64.6855C359.611 61.334 361.516 58.4521 363.953 56.04C366.391 53.6279 369.272 51.749 372.599 50.4033C375.925 49.0576 379.556 48.3848 383.491 48.3848H405.81C406.495 48.3848 407.143 48.5117 407.752 48.7656C408.361 49.0195 408.895 49.375 409.352 49.832C409.809 50.2891 410.164 50.8223 410.418 51.4316C410.672 52.041 410.799 52.6885 410.799 53.374V103ZM366.086 79.6914H400.896V58.2871H383.491C383.187 58.2871 382.539 58.3379 381.549 58.4395C380.584 58.5156 379.454 58.7314 378.159 59.0869C376.89 59.4424 375.544 59.9883 374.122 60.7246C372.7 61.4609 371.393 62.4766 370.199 63.7715C369.006 65.0664 368.016 66.6914 367.229 68.6465C366.467 70.5762 366.086 72.9248 366.086 75.6924V79.6914ZM476.916 66.7422C476.916 69.002 476.637 71.0205 476.078 72.7979C475.52 74.5752 474.758 76.1494 473.793 77.5205C472.854 78.8662 471.762 80.0215 470.518 80.9863C469.273 81.9512 467.966 82.751 466.595 83.3857C465.249 83.9951 463.878 84.4395 462.481 84.7188C461.11 84.998 459.815 85.1377 458.597 85.1377L479.277 103H463.967L443.324 85.1377H436.202V75.2354H458.597C459.841 75.1338 460.971 74.8799 461.986 74.4736C463.027 74.042 463.916 73.4707 464.652 72.7598C465.414 72.0488 465.998 71.1982 466.404 70.208C466.811 69.1924 467.014 68.0371 467.014 66.7422V60.4961C467.014 59.9375 466.938 59.5186 466.785 59.2393C466.658 58.9346 466.48 58.7188 466.252 58.5918C466.049 58.4395 465.82 58.3506 465.566 58.3252C465.338 58.2998 465.122 58.2871 464.919 58.2871H432.241V103H422.339V53.374C422.339 52.6885 422.466 52.041 422.72 51.4316C422.974 50.8223 423.316 50.2891 423.748 49.832C424.205 49.375 424.738 49.0195 425.348 48.7656C425.957 48.5117 426.617 48.3848 427.328 48.3848H464.919C467.128 48.3848 468.994 48.791 470.518 49.6035C472.041 50.3906 473.272 51.3936 474.212 52.6123C475.177 53.8057 475.862 55.1006 476.269 56.4971C476.7 57.8936 476.916 59.2012 476.916 60.4199V66.7422ZM535.759 58.2871H513.936V103H504.033V58.2871H482.172V48.3848H535.759V58.2871Z" fill="#FFAF54"/>
</g>
<g filter="url(#filter2_i_2013_51)">
<path d="M295.923 131.995C294.349 135.524 292.647 139.003 290.819 142.43C288.991 145.833 287.074 149.057 285.068 152.104C283.088 155.151 281.057 157.97 278.975 160.559C276.893 163.124 274.823 165.346 272.767 167.224C270.735 169.078 268.742 170.538 266.787 171.604C264.857 172.645 263.029 173.166 261.303 173.166C260.592 173.166 259.932 173.039 259.322 172.785C258.713 172.531 258.18 172.188 257.723 171.757C257.266 171.3 256.91 170.766 256.656 170.157C256.402 169.548 256.275 168.888 256.275 168.177V149.705L236.623 171.68C236.115 172.188 235.557 172.569 234.947 172.823C234.363 173.052 233.754 173.166 233.119 173.166C232.434 173.166 231.786 173.039 231.177 172.785C230.593 172.531 230.072 172.188 229.615 171.757C229.158 171.3 228.79 170.766 228.511 170.157C228.257 169.548 228.13 168.888 228.13 168.177V131.995H238.032V155.456L257.761 133.404C258.472 132.693 259.31 132.249 260.274 132.071C261.265 131.868 262.229 131.97 263.169 132.376C264.108 132.757 264.845 133.366 265.378 134.204C265.937 135.016 266.216 135.918 266.216 136.908V160.445C268.349 158.388 270.278 156.218 272.005 153.932C273.731 151.647 275.331 149.299 276.804 146.887C278.302 144.449 279.698 141.986 280.993 139.498C282.313 136.984 283.596 134.483 284.84 131.995H295.923ZM343.645 145.63C343.645 147.001 343.403 148.486 342.921 150.086C342.438 151.66 341.651 153.133 340.56 154.504C339.493 155.849 338.084 156.979 336.332 157.893C334.605 158.807 332.498 159.264 330.01 159.264H312.147V149.857H330.01C331.355 149.857 332.396 149.451 333.133 148.638C333.869 147.801 334.237 146.772 334.237 145.554C334.237 144.259 333.818 143.243 332.98 142.507C332.168 141.77 331.178 141.402 330.01 141.402H312.147C310.802 141.402 309.761 141.821 309.024 142.659C308.288 143.471 307.92 144.487 307.92 145.706V159.531C307.92 160.851 308.326 161.88 309.139 162.616C309.977 163.352 311.005 163.721 312.224 163.721H330.01V173.166H312.147C310.776 173.166 309.291 172.925 307.691 172.442C306.117 171.96 304.645 171.185 303.273 170.119C301.928 169.027 300.798 167.618 299.884 165.891C298.97 164.139 298.513 162.019 298.513 159.531V145.63C298.513 144.259 298.754 142.786 299.236 141.212C299.719 139.612 300.493 138.139 301.56 136.794C302.651 135.423 304.061 134.28 305.787 133.366C307.539 132.452 309.659 131.995 312.147 131.995H330.01C331.381 131.995 332.854 132.236 334.428 132.719C336.027 133.201 337.5 133.988 338.846 135.08C340.217 136.146 341.359 137.555 342.273 139.307C343.188 141.034 343.645 143.141 343.645 145.63ZM395.708 159.264C395.708 160.204 395.594 161.194 395.365 162.235C395.162 163.276 394.832 164.317 394.375 165.358C393.918 166.374 393.321 167.351 392.585 168.291C391.874 169.23 390.998 170.068 389.957 170.805C388.941 171.515 387.761 172.087 386.415 172.518C385.069 172.95 383.546 173.166 381.845 173.166H363.982C363.043 173.166 362.053 173.064 361.012 172.861C359.971 172.633 358.93 172.29 357.889 171.833C356.873 171.376 355.896 170.792 354.956 170.081C354.017 169.345 353.179 168.469 352.442 167.453C351.731 166.412 351.16 165.219 350.729 163.873C350.297 162.502 350.081 160.966 350.081 159.264V114.59H359.983V159.264C359.983 160.483 360.364 161.461 361.126 162.197C361.888 162.908 362.84 163.263 363.982 163.263H381.845C383.089 163.263 384.054 162.895 384.739 162.159C385.45 161.423 385.806 160.458 385.806 159.264V145.858C385.806 144.614 385.438 143.649 384.701 142.964C383.965 142.253 383.013 141.897 381.845 141.897H363.982V131.995H381.845C382.784 131.995 383.774 132.109 384.815 132.338C385.856 132.541 386.885 132.871 387.9 133.328C388.941 133.785 389.932 134.382 390.871 135.118C391.811 135.829 392.636 136.705 393.347 137.746C394.058 138.762 394.629 139.942 395.061 141.288C395.492 142.634 395.708 144.157 395.708 145.858V159.264Z" fill="#EDECEE"/>
</g>
</g>
<defs>
<filter id="filter0_d_2013_51" x="84.4023" y="48.3848" width="465.356" height="142.781" filterUnits="userSpaceOnUse" color-interpolation-filters="sRGB">
<feFlood flood-opacity="0" result="BackgroundImageFix"/>
<feColorMatrix in="SourceAlpha" type="matrix" values="0 0 0 0 0 0 0 0 0 0 0 0 0 0 0 0 0 0 127 0" result="hardAlpha"/>
<feOffset dx="10" dy="14"/>
<feGaussianBlur stdDeviation="2"/>
<feComposite in2="hardAlpha" operator="out"/>
<feColorMatrix type="matrix" values="0 0 0 0 0 0 0 0 0 0 0 0 0 0 0 0 0 0 0.25 0"/>
<feBlend mode="normal" in2="BackgroundImageFix" result="effect1_dropShadow_2013_51"/>
<feBlend mode="normal" in="SourceGraphic" in2="effect1_dropShadow_2013_51" result="shape"/>
</filter>
<filter id="filter1_i_2013_51" x="84.4023" y="48.3848" width="451.356" height="54.6152" filterUnits="userSpaceOnUse" color-interpolation-filters="sRGB">
<feFlood flood-opacity="0" result="BackgroundImageFix"/>
<feBlend mode="normal" in="SourceGraphic" in2="BackgroundImageFix" result="shape"/>
<feColorMatrix in="SourceAlpha" type="matrix" values="0 0 0 0 0 0 0 0 0 0 0 0 0 0 0 0 0 0 127 0" result="hardAlpha"/>
<feOffset dy="4"/>
<feComposite in2="hardAlpha" operator="arithmetic" k2="-1" k3="1"/>
<feColorMatrix type="matrix" values="0 0 0 0 0 0 0 0 0 0 0 0 0 0 0 0 0 0 0.29 0"/>
<feBlend mode="normal" in2="shape" result="effect1_innerShadow_2013_51"/>
</filter>
<filter id="filter2_i_2013_51" x="228.13" y="114.59" width="167.578" height="58.5762" filterUnits="userSpaceOnUse" color-interpolation-filters="sRGB">
<feFlood flood-opacity="0" result="BackgroundImageFix"/>
<feBlend mode="normal" in="SourceGraphic" in2="BackgroundImageFix" result="shape"/>
<feColorMatrix in="SourceAlpha" type="matrix" values="0 0 0 0 0 0 0 0 0 0 0 0 0 0 0 0 0 0 127 0" result="hardAlpha"/>
<feOffset dy="4"/>
<feComposite in2="hardAlpha" operator="arithmetic" k2="-1" k3="1"/>
<feColorMatrix type="matrix" values="0 0 0 0 0 0 0 0 0 0 0 0 0 0 0 0 0 0 0.29 0"/>
<feBlend mode="normal" in2="shape" result="effect1_innerShadow_2013_51"/>
</filter>
</defs>
</svg>
