<svg width="1920" height="1080" viewBox="0 0 1920 1080" fill="none" xmlns="http://www.w3.org/2000/svg">
<g filter="url(#filter0_dd_2041_4)">
<mask id="path-1-outside-1_2041_4" maskUnits="userSpaceOnUse" x="484" y="405" width="951" height="274" fill="black">
<rect fill="white" x="484" y="405" width="951" height="274"/>
<path d="M729.971 673H682.253V566.272H513.966C510.567 566.272 507.41 565.665 504.496 564.451C501.582 563.116 499.032 561.416 496.846 559.352C494.782 557.166 493.143 554.616 491.929 551.702C490.715 548.788 490.107 545.692 490.107 542.414V411.827H537.461V518.555H682.253V411.827H729.971V673ZM1083.67 563.723C1083.67 574.408 1082.27 584.546 1079.48 594.138C1076.81 603.609 1072.98 612.412 1068 620.547C1063.02 628.682 1057.14 635.967 1050.34 642.402C1043.54 648.838 1036.07 654.362 1027.93 658.976C1019.92 663.469 1011.36 666.929 1002.25 669.357C993.147 671.786 983.859 673 974.388 673H888.97C879.378 673 870.028 671.786 860.922 669.357C851.815 666.929 843.195 663.469 835.06 658.976C827.046 654.362 819.639 648.838 812.84 642.402C806.04 635.967 800.152 628.682 795.173 620.547C790.317 612.412 786.492 603.609 783.699 594.138C781.028 584.546 779.692 574.408 779.692 563.723V521.104C779.692 505.077 782.667 490.385 788.617 477.029C794.688 463.673 802.762 452.199 812.84 442.607C822.918 432.893 834.513 425.365 847.626 420.023C860.861 414.559 874.642 411.827 888.97 411.827H974.388C983.859 411.827 993.147 413.041 1002.25 415.47C1011.36 417.898 1019.92 421.419 1027.93 426.033C1036.07 430.526 1043.54 435.99 1050.34 442.425C1057.14 448.86 1063.02 456.145 1068 464.28C1072.98 472.415 1076.81 481.279 1079.48 490.871C1082.27 500.342 1083.67 510.42 1083.67 521.104V563.723ZM1035.95 521.104C1035.95 511.755 1034.25 503.256 1030.85 495.606C1027.45 487.957 1022.9 481.4 1017.19 475.937C1011.6 470.473 1005.11 466.284 997.701 463.37C990.294 460.456 982.523 459.059 974.388 459.181H888.97C881.077 459.059 873.367 460.456 865.839 463.37C858.433 466.162 851.815 470.291 845.987 475.754C840.281 481.097 835.667 487.653 832.146 495.424C828.746 503.074 827.046 511.634 827.046 521.104V563.723C827.046 573.193 828.746 581.753 832.146 589.403C835.545 597.052 840.098 603.609 845.805 609.073C851.512 614.415 858.069 618.543 865.475 621.458C873.003 624.372 880.835 625.768 888.97 625.646H974.388C983.737 625.646 992.176 624.129 999.704 621.093C1007.35 617.936 1013.85 613.626 1019.19 608.162C1024.53 602.698 1028.66 596.202 1031.58 588.674C1034.49 581.025 1035.95 572.708 1035.95 563.723V521.104ZM1015.37 486.5C1017.19 489.171 1018.4 492.085 1019.01 495.242C1019.62 498.278 1019.62 501.313 1019.01 504.349C1018.4 507.263 1017.19 510.055 1015.37 512.727C1013.67 515.276 1011.42 517.462 1008.63 519.283L880.774 604.702C878.71 606.28 876.585 607.373 874.399 607.98C872.214 608.587 869.968 608.891 867.661 608.891C863.775 608.891 860.072 607.98 856.551 606.159C853.03 604.337 850.176 601.727 847.991 598.327C846.169 595.656 844.955 592.803 844.348 589.767C843.741 586.61 843.68 583.575 844.166 580.661C844.773 577.625 845.927 574.833 847.626 572.283C849.326 569.611 851.573 567.365 854.365 565.544L982.584 480.125C985.255 478.304 988.109 477.09 991.144 476.483C994.301 475.876 997.336 475.876 1000.25 476.483C1003.29 477.09 1006.08 478.243 1008.63 479.943C1011.3 481.643 1013.55 483.829 1015.37 486.5ZM1428.98 563.723C1428.98 574.408 1427.59 584.546 1424.79 594.138C1422.12 603.609 1418.3 612.412 1413.32 620.547C1408.34 628.682 1402.45 635.967 1395.65 642.402C1388.85 648.838 1381.39 654.362 1373.25 658.976C1365.24 663.469 1356.68 666.929 1347.57 669.357C1338.46 671.786 1329.18 673 1319.7 673H1234.29C1224.69 673 1215.34 671.786 1206.24 669.357C1197.13 666.929 1188.51 663.469 1180.38 658.976C1172.36 654.362 1164.96 648.838 1158.16 642.402C1151.36 635.967 1145.47 628.682 1140.49 620.547C1135.63 612.412 1131.81 603.609 1129.02 594.138C1126.34 584.546 1125.01 574.408 1125.01 563.723V521.104C1125.01 505.077 1127.98 490.385 1133.93 477.029C1140 463.673 1148.08 452.199 1158.16 442.607C1168.23 432.893 1179.83 425.365 1192.94 420.023C1206.18 414.559 1219.96 411.827 1234.29 411.827H1319.7C1329.18 411.827 1338.46 413.041 1347.57 415.47C1356.68 417.898 1365.24 421.419 1373.25 426.033C1381.39 430.526 1388.85 435.99 1395.65 442.425C1402.45 448.86 1408.34 456.145 1413.32 464.28C1418.3 472.415 1422.12 481.279 1424.79 490.871C1427.59 500.342 1428.98 510.42 1428.98 521.104V563.723ZM1381.26 521.104C1381.26 511.755 1379.56 503.256 1376.16 495.606C1372.76 487.957 1368.21 481.4 1362.5 475.937C1356.92 470.473 1350.42 466.284 1343.02 463.37C1335.61 460.456 1327.84 459.059 1319.7 459.181H1234.29C1226.39 459.059 1218.68 460.456 1211.16 463.37C1203.75 466.162 1197.13 470.291 1191.3 475.754C1185.6 481.097 1180.98 487.653 1177.46 495.424C1174.06 503.074 1172.36 511.634 1172.36 521.104V563.723C1172.36 573.193 1174.06 581.753 1177.46 589.403C1180.86 597.052 1185.41 603.609 1191.12 609.073C1196.83 614.415 1203.38 618.543 1210.79 621.458C1218.32 624.372 1226.15 625.768 1234.29 625.646H1319.7C1329.05 625.646 1337.49 624.129 1345.02 621.093C1352.67 617.936 1359.17 613.626 1364.51 608.162C1369.85 602.698 1373.98 596.202 1376.89 588.674C1379.81 581.025 1381.26 572.708 1381.26 563.723V521.104ZM1360.68 486.5C1362.5 489.171 1363.72 492.085 1364.33 495.242C1364.93 498.278 1364.93 501.313 1364.33 504.349C1363.72 507.263 1362.5 510.055 1360.68 512.727C1358.98 515.276 1356.74 517.462 1353.94 519.283L1226.09 604.702C1224.03 606.28 1221.9 607.373 1219.72 607.98C1217.53 608.587 1215.28 608.891 1212.98 608.891C1209.09 608.891 1205.39 607.98 1201.87 606.159C1198.35 604.337 1195.49 601.727 1193.31 598.327C1191.49 595.656 1190.27 592.803 1189.66 589.767C1189.06 586.61 1189 583.575 1189.48 580.661C1190.09 577.625 1191.24 574.833 1192.94 572.283C1194.64 569.611 1196.89 567.365 1199.68 565.544L1327.9 480.125C1330.57 478.304 1333.42 477.09 1336.46 476.483C1339.62 475.876 1342.65 475.876 1345.57 476.483C1348.6 477.09 1351.4 478.243 1353.94 479.943C1356.62 481.643 1358.86 483.829 1360.68 486.5Z"/>
</mask>
<path d="M729.971 673V679H735.971V673H729.971ZM682.253 673H676.253V679H682.253V673ZM682.253 566.272H688.253V560.272H682.253V566.272ZM504.496 564.451L501.996 569.906L502.091 569.949L502.188 569.99L504.496 564.451ZM496.846 559.352L492.484 563.471L492.602 563.596L492.726 563.714L496.846 559.352ZM490.107 411.827V405.827H484.107V411.827H490.107ZM537.461 411.827H543.461V405.827H537.461V411.827ZM537.461 518.555H531.461V524.555H537.461V518.555ZM682.253 518.555V524.555H688.253V518.555H682.253ZM682.253 411.827V405.827H676.253V411.827H682.253ZM729.971 411.827H735.971V405.827H729.971V411.827ZM729.971 667H682.253V679H729.971V667ZM688.253 673V566.272H676.253V673H688.253ZM682.253 560.272H513.966V572.272H682.253V560.272ZM513.966 560.272C511.297 560.272 508.931 559.799 506.803 558.913L502.188 569.99C505.888 571.531 509.836 572.272 513.966 572.272V560.272ZM506.996 558.997C504.638 557.916 502.644 556.574 500.966 554.989L492.726 563.714C495.419 566.257 498.525 568.315 501.996 569.906L506.996 558.997ZM501.208 555.232C499.667 553.6 498.416 551.672 497.467 549.394L486.39 554.01C487.87 557.56 489.897 560.732 492.484 563.471L501.208 555.232ZM497.467 549.394C496.569 547.24 496.107 544.931 496.107 542.414H484.107C484.107 546.453 484.86 550.336 486.39 554.01L497.467 549.394ZM496.107 542.414V411.827H484.107V542.414H496.107ZM490.107 417.827H537.461V405.827H490.107V417.827ZM531.461 411.827V518.555H543.461V411.827H531.461ZM537.461 524.555H682.253V512.555H537.461V524.555ZM688.253 518.555V411.827H676.253V518.555H688.253ZM682.253 417.827H729.971V405.827H682.253V417.827ZM723.971 411.827V673H735.971V411.827H723.971ZM1079.48 594.138L1073.72 592.461L1073.71 592.485L1073.7 592.509L1079.48 594.138ZM1027.93 658.976L1030.87 664.21L1030.88 664.202L1030.89 664.195L1027.93 658.976ZM835.06 658.976L832.066 664.176L832.112 664.203L832.159 664.228L835.06 658.976ZM812.84 642.402L808.716 646.76L812.84 642.402ZM795.173 620.547L790.022 623.623L790.038 623.651L790.056 623.679L795.173 620.547ZM783.699 594.138L777.919 595.748L777.931 595.792L777.944 595.835L783.699 594.138ZM788.617 477.029L783.155 474.546L783.145 474.567L783.136 474.588L788.617 477.029ZM812.84 442.607L816.976 446.953L816.99 446.94L817.004 446.927L812.84 442.607ZM847.626 420.023L849.89 425.58L849.903 425.574L849.916 425.569L847.626 420.023ZM1002.25 415.47L1003.8 409.672L1003.8 409.672L1002.25 415.47ZM1027.93 426.033L1024.94 431.233L1024.99 431.26L1025.03 431.286L1027.93 426.033ZM1079.48 490.871L1073.7 492.481L1073.71 492.525L1073.72 492.568L1079.48 490.871ZM1017.19 475.937L1012.99 480.226L1013.02 480.248L1013.04 480.27L1017.19 475.937ZM974.388 459.181V465.181H974.433L974.478 465.18L974.388 459.181ZM888.97 459.181L888.877 465.18L888.924 465.181H888.97V459.181ZM865.839 463.37L867.956 468.984L867.981 468.975L868.005 468.965L865.839 463.37ZM845.987 475.754L850.088 480.135L850.091 480.132L845.987 475.754ZM832.146 495.424L826.68 492.948L826.671 492.968L826.663 492.987L832.146 495.424ZM845.805 609.073L841.656 613.407L841.68 613.43L841.705 613.453L845.805 609.073ZM865.475 621.458L863.278 627.041L863.294 627.047L863.309 627.053L865.475 621.458ZM888.97 625.646V619.646H888.925L888.88 619.647L888.97 625.646ZM999.704 621.093L1001.95 626.658L1001.97 626.649L1001.99 626.64L999.704 621.093ZM1019.19 608.162L1023.48 612.357L1019.19 608.162ZM1031.58 588.674L1037.17 590.84L1037.18 590.825L1037.18 590.81L1031.58 588.674ZM1015.37 486.5L1010.41 489.88L1015.37 486.5ZM1019.01 495.242L1013.12 496.375L1013.12 496.397L1013.13 496.419L1019.01 495.242ZM1019.01 504.349L1024.88 505.572L1024.89 505.549L1024.89 505.525L1019.01 504.349ZM1015.37 512.727L1010.41 509.347L1010.39 509.372L1010.37 509.398L1015.37 512.727ZM1008.63 519.283L1005.35 514.258L1005.32 514.276L1005.3 514.294L1008.63 519.283ZM880.774 604.702L877.441 599.713L877.281 599.819L877.129 599.936L880.774 604.702ZM847.991 598.327L853.038 595.083L852.994 595.014L852.948 594.947L847.991 598.327ZM844.348 589.767L838.456 590.9L838.46 590.922L838.465 590.944L844.348 589.767ZM844.166 580.661L838.283 579.484L838.264 579.579L838.248 579.674L844.166 580.661ZM847.626 572.283L852.619 575.611L852.654 575.558L852.688 575.504L847.626 572.283ZM854.365 565.544L857.643 570.57L857.667 570.554L857.692 570.537L854.365 565.544ZM982.584 480.125L985.911 485.119L985.937 485.101L985.964 485.083L982.584 480.125ZM991.144 476.483L990.011 470.591L989.989 470.595L989.967 470.599L991.144 476.483ZM1000.25 476.483L999.027 482.357L999.05 482.362L999.074 482.366L1000.25 476.483ZM1008.63 479.943L1005.3 484.936L1005.35 484.971L1005.41 485.005L1008.63 479.943ZM1077.67 563.723C1077.67 573.879 1076.34 583.45 1073.72 592.461L1085.24 595.815C1088.2 585.642 1089.67 574.936 1089.67 563.723H1077.67ZM1073.7 592.509C1071.18 601.468 1067.57 609.763 1062.88 617.415L1073.12 623.679C1078.39 615.06 1082.44 605.749 1085.25 595.767L1073.7 592.509ZM1062.88 617.415C1058.18 625.108 1052.62 631.979 1046.21 638.045L1054.46 646.76C1061.65 639.955 1067.87 632.256 1073.12 623.679L1062.88 617.415ZM1046.21 638.045C1039.76 644.147 1032.69 649.382 1024.97 653.757L1030.89 664.195C1039.45 659.342 1047.31 653.528 1054.46 646.76L1046.21 638.045ZM1025 653.742C1017.43 657.983 1009.34 661.257 1000.71 663.56L1003.8 675.155C1013.38 672.601 1022.41 668.954 1030.87 664.21L1025 653.742ZM1000.71 663.56C992.108 665.853 983.34 667 974.388 667V679C984.378 679 994.187 677.718 1003.8 675.155L1000.71 663.56ZM974.388 667H888.97V679H974.388V667ZM888.97 667C879.89 667 871.061 665.852 862.468 663.56L859.376 675.155C868.996 677.72 878.865 679 888.97 679V667ZM862.468 663.56C853.827 661.256 845.661 657.977 837.96 653.724L832.159 664.228C840.728 668.96 849.804 672.602 859.376 675.155L862.468 663.56ZM838.053 653.776C830.453 649.401 823.425 644.16 816.964 638.045L808.716 646.76C815.853 653.515 823.638 659.324 832.066 664.176L838.053 653.776ZM816.964 638.045C810.556 631.979 804.999 625.108 800.291 617.415L790.056 623.679C795.304 632.256 801.525 639.955 808.716 646.76L816.964 638.045ZM800.325 617.471C795.737 609.786 792.11 601.449 789.454 592.441L777.944 595.835C780.873 605.769 784.896 615.037 790.022 623.623L800.325 617.471ZM789.479 592.529C786.964 583.497 785.692 573.903 785.692 563.723H773.692C773.692 574.912 775.092 585.595 777.919 595.748L789.479 592.529ZM785.692 563.723V521.104H773.692V563.723H785.692ZM785.692 521.104C785.692 505.837 788.522 491.987 794.098 479.471L783.136 474.588C776.812 488.784 773.692 504.318 773.692 521.104H785.692ZM794.079 479.512C799.849 466.818 807.486 455.986 816.976 446.953L808.703 438.261C798.038 448.412 789.526 460.529 783.155 474.546L794.079 479.512ZM817.004 446.927C826.526 437.749 837.475 430.638 849.89 425.58L845.363 414.466C831.552 420.093 819.309 428.038 808.676 438.287L817.004 446.927ZM849.916 425.569C862.424 420.405 875.427 417.827 888.97 417.827V405.827C873.857 405.827 859.298 408.713 845.337 414.477L849.916 425.569ZM888.97 417.827H974.388V405.827H888.97V417.827ZM974.388 417.827C983.34 417.827 992.108 418.974 1000.71 421.267L1003.8 409.672C994.187 407.109 984.378 405.827 974.388 405.827V417.827ZM1000.71 421.267C1009.32 423.563 1017.39 426.886 1024.94 431.233L1030.93 420.833C1022.45 415.953 1013.4 412.233 1003.8 409.672L1000.71 421.267ZM1025.03 431.286C1032.72 435.531 1039.78 440.693 1046.21 446.783L1054.46 438.067C1047.3 431.286 1039.42 425.52 1030.83 420.781L1025.03 431.286ZM1046.21 446.783C1052.62 452.848 1058.18 459.719 1062.88 467.412L1073.12 461.148C1067.87 452.571 1061.65 444.872 1054.46 438.067L1046.21 446.783ZM1062.88 467.412C1067.56 475.052 1071.17 483.401 1073.7 492.481L1085.26 489.261C1082.44 479.157 1078.4 469.778 1073.12 461.148L1062.88 467.412ZM1073.72 492.568C1076.34 501.444 1077.67 510.947 1077.67 521.104H1089.67C1089.67 509.892 1088.2 499.239 1085.23 489.174L1073.72 492.568ZM1077.67 521.104V563.723H1089.67V521.104H1077.67ZM1041.95 521.104C1041.95 511.014 1040.11 501.671 1036.33 493.17L1025.37 498.043C1028.39 504.84 1029.95 512.496 1029.95 521.104H1041.95ZM1036.33 493.17C1032.63 484.85 1027.64 477.638 1021.34 471.603L1013.04 480.27C1018.15 485.163 1022.26 491.064 1025.37 498.043L1036.33 493.17ZM1021.38 471.648C1015.21 465.612 1008.04 460.988 999.897 457.786L995.504 468.953C1002.18 471.579 1007.99 475.333 1012.99 480.226L1021.38 471.648ZM999.897 457.786C991.747 454.579 983.198 453.049 974.299 453.181L974.478 465.18C981.849 465.07 988.841 466.332 995.504 468.953L999.897 457.786ZM974.388 453.181H888.97V465.181H974.388V453.181ZM889.062 453.181C880.38 453.048 871.904 454.588 863.673 457.774L868.005 468.965C874.83 466.323 881.775 465.071 888.877 465.18L889.062 453.181ZM863.723 457.755C855.572 460.829 848.281 465.38 841.884 471.377L850.091 480.132C855.35 475.201 861.294 471.496 867.956 468.984L863.723 457.755ZM841.887 471.374C835.554 477.303 830.497 484.525 826.68 492.948L837.611 497.901C840.836 490.782 845.007 484.891 850.088 480.135L841.887 471.374ZM826.663 492.987C822.88 501.499 821.046 510.905 821.046 521.104H833.046C833.046 512.363 834.612 504.649 837.628 497.861L826.663 492.987ZM821.046 521.104V563.723H833.046V521.104H821.046ZM821.046 563.723C821.046 573.923 822.88 583.328 826.663 591.84L837.628 586.966C834.612 580.178 833.046 572.464 833.046 563.723H821.046ZM826.663 591.84C830.36 600.159 835.352 607.371 841.656 613.407L849.955 604.739C844.845 599.846 840.73 593.945 837.628 586.966L826.663 591.84ZM841.705 613.453C847.974 619.323 855.18 623.855 863.278 627.041L867.672 615.874C860.957 613.232 855.049 609.508 849.906 604.693L841.705 613.453ZM863.309 627.053C871.562 630.248 880.16 631.779 889.059 631.646L888.88 619.647C881.51 619.757 874.444 618.496 867.641 615.862L863.309 627.053ZM888.97 631.646H974.388V619.646H888.97V631.646ZM974.388 631.646C984.391 631.646 993.607 630.021 1001.95 626.658L997.46 615.529C990.745 618.236 983.084 619.646 974.388 619.646V631.646ZM1001.99 626.64C1010.33 623.198 1017.53 618.449 1023.48 612.357L1014.9 603.967C1010.17 608.803 1004.38 612.674 997.415 615.547L1001.99 626.64ZM1023.48 612.357C1029.42 606.28 1033.98 599.083 1037.17 590.84L1025.98 586.508C1023.34 593.322 1019.64 599.117 1014.9 603.967L1023.48 612.357ZM1037.18 590.81C1040.38 582.415 1041.95 573.366 1041.95 563.723H1029.95C1029.95 572.049 1028.6 579.635 1025.97 586.538L1037.18 590.81ZM1041.95 563.723V521.104H1029.95V563.723H1041.95ZM1010.41 489.88C1011.77 491.878 1012.67 494.028 1013.12 496.375L1024.9 494.109C1024.14 490.143 1022.6 486.464 1020.32 483.12L1010.41 489.88ZM1013.13 496.419C1013.58 498.678 1013.58 500.913 1013.13 503.172L1024.89 505.525C1025.66 501.713 1025.66 497.878 1024.89 494.065L1013.13 496.419ZM1013.14 503.125C1012.7 505.203 1011.83 507.27 1010.41 509.347L1020.32 516.107C1022.55 512.84 1024.1 509.323 1024.88 505.572L1013.14 503.125ZM1010.37 509.398C1009.16 511.215 1007.52 512.841 1005.35 514.258L1011.91 524.309C1015.32 522.083 1018.17 519.338 1020.36 516.055L1010.37 509.398ZM1005.3 514.294L877.441 599.713L884.107 609.691L1011.96 524.272L1005.3 514.294ZM877.129 599.936C875.586 601.116 874.141 601.824 872.794 602.199L876.005 613.761C879.028 612.921 881.834 611.445 884.419 609.468L877.129 599.936ZM872.794 602.199C871.14 602.658 869.434 602.891 867.661 602.891V614.891C870.501 614.891 873.288 614.516 876.005 613.761L872.794 602.199ZM867.661 602.891C864.755 602.891 861.994 602.219 859.307 600.829L853.794 611.488C858.149 613.741 862.796 614.891 867.661 614.891V602.891ZM859.307 600.829C856.738 599.5 854.667 597.617 853.038 595.083L842.944 601.572C845.685 605.837 849.321 609.174 853.794 611.488L859.307 600.829ZM852.948 594.947C851.56 592.911 850.674 590.802 850.232 588.59L838.465 590.944C839.237 594.803 840.779 598.401 843.033 601.707L852.948 594.947ZM850.24 588.634C849.756 586.115 849.726 583.799 850.084 581.647L838.248 579.674C837.635 583.35 837.726 587.106 838.456 590.9L850.24 588.634ZM850.049 581.837C850.505 579.562 851.358 577.502 852.619 575.611L842.634 568.955C840.495 572.163 839.042 575.688 838.283 579.484L850.049 581.837ZM852.688 575.504C853.905 573.593 855.528 571.949 857.643 570.57L851.088 560.518C847.617 562.782 844.748 565.63 842.564 569.061L852.688 575.504ZM857.692 570.537L985.911 485.119L979.257 475.132L851.039 560.551L857.692 570.537ZM985.964 485.083C988 483.694 990.109 482.809 992.321 482.366L989.967 470.599C986.108 471.371 982.51 472.914 979.204 475.168L985.964 485.083ZM992.277 482.375C994.718 481.906 996.95 481.924 999.027 482.357L1001.47 470.609C997.723 469.828 993.884 469.846 990.011 470.591L992.277 482.375ZM999.074 482.366C1001.35 482.821 1003.41 483.675 1005.3 484.936L1011.96 474.951C1008.75 472.812 1005.22 471.359 1001.43 470.599L999.074 482.366ZM1005.41 485.005C1007.38 486.259 1009.04 487.867 1010.41 489.88L1020.32 483.12C1018.05 479.791 1015.22 477.028 1011.85 474.881L1005.41 485.005ZM1424.79 594.138L1419.03 592.461L1419.03 592.485L1419.02 592.509L1424.79 594.138ZM1373.25 658.976L1376.18 664.21L1376.2 664.202L1376.21 664.195L1373.25 658.976ZM1180.38 658.976L1177.38 664.176L1177.43 664.203L1177.48 664.228L1180.38 658.976ZM1158.16 642.402L1154.03 646.76L1158.16 642.402ZM1140.49 620.547L1135.34 623.623L1135.35 623.651L1135.37 623.679L1140.49 620.547ZM1129.02 594.138L1123.24 595.748L1123.25 595.792L1123.26 595.835L1129.02 594.138ZM1133.93 477.029L1128.47 474.546L1128.46 474.567L1128.45 474.588L1133.93 477.029ZM1158.16 442.607L1162.29 446.953L1162.31 446.94L1162.32 446.927L1158.16 442.607ZM1192.94 420.023L1195.21 425.58L1195.22 425.574L1195.23 425.569L1192.94 420.023ZM1347.57 415.47L1349.12 409.672L1349.12 409.672L1347.57 415.47ZM1373.25 426.033L1370.26 431.233L1370.3 431.26L1370.35 431.286L1373.25 426.033ZM1424.79 490.871L1419.01 492.481L1419.03 492.525L1419.04 492.568L1424.79 490.871ZM1362.5 475.937L1358.31 480.226L1358.33 480.248L1358.36 480.27L1362.5 475.937ZM1319.7 459.181V465.181H1319.75L1319.79 465.18L1319.7 459.181ZM1234.29 459.181L1234.19 465.18L1234.24 465.181H1234.29V459.181ZM1211.16 463.37L1213.27 468.984L1213.3 468.975L1213.32 468.965L1211.16 463.37ZM1191.3 475.754L1195.4 480.135L1195.41 480.132L1191.3 475.754ZM1177.46 495.424L1172 492.948L1171.99 492.968L1171.98 492.987L1177.46 495.424ZM1191.12 609.073L1186.97 613.407L1187 613.43L1187.02 613.453L1191.12 609.073ZM1210.79 621.458L1208.59 627.041L1208.61 627.047L1208.63 627.053L1210.79 621.458ZM1234.29 625.646V619.646H1234.24L1234.2 619.647L1234.29 625.646ZM1345.02 621.093L1347.26 626.658L1347.29 626.649L1347.31 626.64L1345.02 621.093ZM1364.51 608.162L1368.8 612.357L1364.51 608.162ZM1376.89 588.674L1382.49 590.84L1382.49 590.825L1382.5 590.81L1376.89 588.674ZM1360.68 486.5L1355.73 489.88L1360.68 486.5ZM1364.33 495.242L1358.43 496.375L1358.44 496.397L1358.44 496.419L1364.33 495.242ZM1364.33 504.349L1370.2 505.572L1370.2 505.549L1370.21 505.525L1364.33 504.349ZM1360.68 512.727L1355.73 509.347L1355.71 509.372L1355.69 509.398L1360.68 512.727ZM1353.94 519.283L1350.67 514.258L1350.64 514.276L1350.61 514.294L1353.94 519.283ZM1226.09 604.702L1222.76 599.713L1222.6 599.819L1222.45 599.936L1226.09 604.702ZM1193.31 598.327L1198.35 595.083L1198.31 595.014L1198.26 594.947L1193.31 598.327ZM1189.66 589.767L1183.77 590.9L1183.78 590.922L1183.78 590.944L1189.66 589.767ZM1189.48 580.661L1183.6 579.484L1183.58 579.579L1183.56 579.674L1189.48 580.661ZM1192.94 572.283L1197.94 575.611L1197.97 575.558L1198 575.504L1192.94 572.283ZM1199.68 565.544L1202.96 570.57L1202.98 570.554L1203.01 570.537L1199.68 565.544ZM1327.9 480.125L1331.23 485.119L1331.25 485.101L1331.28 485.083L1327.9 480.125ZM1336.46 476.483L1335.33 470.591L1335.31 470.595L1335.28 470.599L1336.46 476.483ZM1345.57 476.483L1344.34 482.357L1344.37 482.362L1344.39 482.366L1345.57 476.483ZM1353.94 479.943L1350.62 484.936L1350.67 484.971L1350.72 485.005L1353.94 479.943ZM1422.98 563.723C1422.98 573.879 1421.66 583.45 1419.03 592.461L1430.55 595.815C1433.52 585.642 1434.98 574.936 1434.98 563.723H1422.98ZM1419.02 592.509C1416.49 601.468 1412.88 609.763 1408.2 617.415L1418.44 623.679C1423.71 615.06 1427.75 605.749 1430.57 595.767L1419.02 592.509ZM1408.2 617.415C1403.49 625.108 1397.94 631.979 1391.53 638.045L1399.78 646.76C1406.97 639.955 1413.19 632.256 1418.44 623.679L1408.2 617.415ZM1391.53 638.045C1385.08 644.147 1378 649.382 1370.29 653.757L1376.21 664.195C1384.77 659.342 1392.63 653.528 1399.78 646.76L1391.53 638.045ZM1370.32 653.742C1362.75 657.983 1354.66 661.257 1346.02 663.56L1349.12 675.155C1358.69 672.601 1367.72 668.954 1376.18 664.21L1370.32 653.742ZM1346.02 663.56C1337.42 665.853 1328.66 667 1319.7 667V679C1329.69 679 1339.5 677.718 1349.12 675.155L1346.02 663.56ZM1319.7 667H1234.29V679H1319.7V667ZM1234.29 667C1225.21 667 1216.38 665.852 1207.78 663.56L1204.69 675.155C1214.31 677.72 1224.18 679 1234.29 679V667ZM1207.78 663.56C1199.14 661.256 1190.98 657.977 1183.28 653.724L1177.48 664.228C1186.04 668.96 1195.12 672.602 1204.69 675.155L1207.78 663.56ZM1183.37 653.776C1175.77 649.401 1168.74 644.16 1162.28 638.045L1154.03 646.76C1161.17 653.515 1168.95 659.324 1177.38 664.176L1183.37 653.776ZM1162.28 638.045C1155.87 631.979 1150.32 625.108 1145.61 617.415L1135.37 623.679C1140.62 632.256 1146.84 639.955 1154.03 646.76L1162.28 638.045ZM1145.64 617.471C1141.05 609.786 1137.43 601.449 1134.77 592.441L1123.26 595.835C1126.19 605.769 1130.21 615.037 1135.34 623.623L1145.64 617.471ZM1134.8 592.529C1132.28 583.497 1131.01 573.903 1131.01 563.723H1119.01C1119.01 574.912 1120.41 585.595 1123.24 595.748L1134.8 592.529ZM1131.01 563.723V521.104H1119.01V563.723H1131.01ZM1131.01 521.104C1131.01 505.837 1133.84 491.987 1139.41 479.471L1128.45 474.588C1122.13 488.784 1119.01 504.318 1119.01 521.104H1131.01ZM1139.4 479.512C1145.17 466.818 1152.8 455.986 1162.29 446.953L1154.02 438.261C1143.35 448.412 1134.84 460.529 1128.47 474.546L1139.4 479.512ZM1162.32 446.927C1171.84 437.749 1182.79 430.638 1195.21 425.58L1190.68 414.466C1176.87 420.093 1164.63 428.038 1153.99 438.287L1162.32 446.927ZM1195.23 425.569C1207.74 420.405 1220.74 417.827 1234.29 417.827V405.827C1219.17 405.827 1204.61 408.713 1190.65 414.477L1195.23 425.569ZM1234.29 417.827H1319.7V405.827H1234.29V417.827ZM1319.7 417.827C1328.66 417.827 1337.42 418.974 1346.02 421.267L1349.12 409.672C1339.5 407.109 1329.69 405.827 1319.7 405.827V417.827ZM1346.02 421.267C1354.63 423.563 1362.71 426.886 1370.26 431.233L1376.24 420.833C1367.77 415.953 1358.72 412.233 1349.12 409.672L1346.02 421.267ZM1370.35 431.286C1378.04 435.531 1385.09 440.693 1391.53 446.783L1399.78 438.067C1392.61 431.286 1384.73 425.52 1376.15 420.781L1370.35 431.286ZM1391.53 446.783C1397.94 452.848 1403.49 459.719 1408.2 467.412L1418.44 461.148C1413.19 452.571 1406.97 444.872 1399.78 438.067L1391.53 446.783ZM1408.2 467.412C1412.88 475.052 1416.48 483.401 1419.01 492.481L1430.57 489.261C1427.76 479.157 1423.72 469.778 1418.44 461.148L1408.2 467.412ZM1419.04 492.568C1421.66 501.444 1422.98 510.947 1422.98 521.104H1434.98C1434.98 509.892 1433.52 499.239 1430.55 489.174L1419.04 492.568ZM1422.98 521.104V563.723H1434.98V521.104H1422.98ZM1387.26 521.104C1387.26 511.014 1385.43 501.671 1381.65 493.17L1370.68 498.043C1373.7 504.84 1375.26 512.496 1375.26 521.104H1387.26ZM1381.65 493.17C1377.95 484.85 1372.96 477.638 1366.65 471.603L1358.36 480.27C1363.47 485.163 1367.58 491.064 1370.68 498.043L1381.65 493.17ZM1366.7 471.648C1360.53 465.612 1353.35 460.988 1345.21 457.786L1340.82 468.953C1347.5 471.579 1353.31 475.333 1358.31 480.226L1366.7 471.648ZM1345.21 457.786C1337.06 454.579 1328.51 453.049 1319.62 453.181L1319.79 465.18C1327.17 465.07 1334.16 466.332 1340.82 468.953L1345.21 457.786ZM1319.7 453.181H1234.29V465.181H1319.7V453.181ZM1234.38 453.181C1225.7 453.048 1217.22 454.588 1208.99 457.774L1213.32 468.965C1220.15 466.323 1227.09 465.071 1234.19 465.18L1234.38 453.181ZM1209.04 457.755C1200.89 460.829 1193.6 465.38 1187.2 471.377L1195.41 480.132C1200.67 475.201 1206.61 471.496 1213.27 468.984L1209.04 457.755ZM1187.2 471.374C1180.87 477.303 1175.81 484.525 1172 492.948L1182.93 497.901C1186.15 490.782 1190.32 484.891 1195.4 480.135L1187.2 471.374ZM1171.98 492.987C1168.2 501.499 1166.36 510.905 1166.36 521.104H1178.36C1178.36 512.363 1179.93 504.649 1182.94 497.861L1171.98 492.987ZM1166.36 521.104V563.723H1178.36V521.104H1166.36ZM1166.36 563.723C1166.36 573.923 1168.2 583.328 1171.98 591.84L1182.94 586.966C1179.93 580.178 1178.36 572.464 1178.36 563.723H1166.36ZM1171.98 591.84C1175.68 600.159 1180.67 607.371 1186.97 613.407L1195.27 604.739C1190.16 599.846 1186.05 593.945 1182.94 586.966L1171.98 591.84ZM1187.02 613.453C1193.29 619.323 1200.5 623.855 1208.59 627.041L1212.99 615.874C1206.27 613.232 1200.37 609.508 1195.22 604.693L1187.02 613.453ZM1208.63 627.053C1216.88 630.248 1225.48 631.779 1234.38 631.646L1234.2 619.647C1226.83 619.757 1219.76 618.496 1212.96 615.862L1208.63 627.053ZM1234.29 631.646H1319.7V619.646H1234.29V631.646ZM1319.7 631.646C1329.71 631.646 1338.92 630.021 1347.26 626.658L1342.78 615.529C1336.06 618.236 1328.4 619.646 1319.7 619.646V631.646ZM1347.31 626.64C1355.65 623.198 1362.84 618.449 1368.8 612.357L1360.22 603.967C1355.49 608.803 1349.69 612.674 1342.73 615.547L1347.31 626.64ZM1368.8 612.357C1374.74 606.28 1379.3 599.083 1382.49 590.84L1371.3 586.508C1368.66 593.322 1364.96 599.117 1360.22 603.967L1368.8 612.357ZM1382.5 590.81C1385.7 582.415 1387.26 573.366 1387.26 563.723H1375.26C1375.26 572.049 1373.92 579.635 1371.29 586.538L1382.5 590.81ZM1387.26 563.723V521.104H1375.26V563.723H1387.26ZM1355.73 489.88C1357.09 491.878 1357.98 494.028 1358.43 496.375L1370.22 494.109C1369.46 490.143 1367.92 486.464 1365.64 483.12L1355.73 489.88ZM1358.44 496.419C1358.89 498.678 1358.89 500.913 1358.44 503.172L1370.21 505.525C1370.97 501.713 1370.97 497.878 1370.21 494.065L1358.44 496.419ZM1358.45 503.125C1358.02 505.203 1357.14 507.27 1355.73 509.347L1365.64 516.107C1367.87 512.84 1369.42 509.323 1370.2 505.572L1358.45 503.125ZM1355.69 509.398C1354.48 511.215 1352.84 512.841 1350.67 514.258L1357.22 524.309C1360.64 522.083 1363.49 519.338 1365.68 516.055L1355.69 509.398ZM1350.61 514.294L1222.76 599.713L1229.42 609.691L1357.28 524.272L1350.61 514.294ZM1222.45 599.936C1220.9 601.116 1219.46 601.824 1218.11 602.199L1221.32 613.761C1224.34 612.921 1227.15 611.445 1229.74 609.468L1222.45 599.936ZM1218.11 602.199C1216.46 602.658 1214.75 602.891 1212.98 602.891V614.891C1215.82 614.891 1218.6 614.516 1221.32 613.761L1218.11 602.199ZM1212.98 602.891C1210.07 602.891 1207.31 602.219 1204.62 600.829L1199.11 611.488C1203.47 613.741 1208.11 614.891 1212.98 614.891V602.891ZM1204.62 600.829C1202.05 599.5 1199.98 597.617 1198.35 595.083L1188.26 601.572C1191 605.837 1194.64 609.174 1199.11 611.488L1204.62 600.829ZM1198.26 594.947C1196.88 592.911 1195.99 590.802 1195.55 588.59L1183.78 590.944C1184.55 594.803 1186.1 598.401 1188.35 601.707L1198.26 594.947ZM1195.56 588.634C1195.07 586.115 1195.04 583.799 1195.4 581.647L1183.56 579.674C1182.95 583.35 1183.04 587.106 1183.77 590.9L1195.56 588.634ZM1195.37 581.837C1195.82 579.562 1196.67 577.502 1197.94 575.611L1187.95 568.955C1185.81 572.163 1184.36 575.688 1183.6 579.484L1195.37 581.837ZM1198 575.504C1199.22 573.593 1200.84 571.949 1202.96 570.57L1196.4 560.518C1192.93 562.782 1190.06 565.63 1187.88 569.061L1198 575.504ZM1203.01 570.537L1331.23 485.119L1324.57 475.132L1196.36 560.551L1203.01 570.537ZM1331.28 485.083C1333.32 483.694 1335.43 482.809 1337.64 482.366L1335.28 470.599C1331.42 471.371 1327.83 472.914 1324.52 475.168L1331.28 485.083ZM1337.59 482.375C1340.03 481.906 1342.27 481.924 1344.34 482.357L1346.79 470.609C1343.04 469.828 1339.2 469.846 1335.33 470.591L1337.59 482.375ZM1344.39 482.366C1346.67 482.821 1348.73 483.675 1350.62 484.936L1357.27 474.951C1354.06 472.812 1350.54 471.359 1346.74 470.599L1344.39 482.366ZM1350.72 485.005C1352.69 486.259 1354.35 487.867 1355.73 489.88L1365.64 483.12C1363.37 479.791 1360.54 477.028 1357.17 474.881L1350.72 485.005Z" fill="#61FFCA" mask="url(#path-1-outside-1_2041_4)"/>
</g>
<g filter="url(#filter1_d_2041_4)">
<path d="M550.67 758.849C550.67 759.88 550.487 760.986 550.122 762.168C549.778 763.35 549.198 764.445 548.382 765.455C547.587 766.465 546.545 767.313 545.256 768.001C543.967 768.667 542.388 769 540.519 769H508.711C508.109 769 507.551 768.893 507.035 768.678C506.52 768.463 506.068 768.173 505.682 767.808C505.316 767.421 505.026 766.97 504.812 766.454C504.597 765.938 504.489 765.38 504.489 764.778V727.009C504.489 726.429 504.597 725.881 504.812 725.365C505.026 724.85 505.316 724.398 505.682 724.012C506.068 723.625 506.52 723.324 507.035 723.109C507.551 722.895 508.109 722.787 508.711 722.787H536.748C537.779 722.787 538.886 722.97 540.067 723.335C541.249 723.7 542.345 724.291 543.354 725.107C544.386 725.902 545.234 726.944 545.9 728.233C546.588 729.522 546.932 731.102 546.932 732.971V734.55C546.932 736.032 546.685 737.633 546.19 739.352C545.696 741.049 544.901 742.66 543.806 744.186C544.751 744.766 545.632 745.464 546.448 746.28C547.286 747.097 548.017 748.042 548.64 749.116C549.263 750.19 549.757 751.404 550.122 752.758C550.487 754.111 550.67 755.604 550.67 757.237V758.849ZM542.291 757.237C542.291 756.142 542.119 755.164 541.775 754.305C541.432 753.424 540.948 752.672 540.325 752.049C539.702 751.426 538.95 750.953 538.069 750.631C537.188 750.287 536.2 750.115 535.104 750.115H516.22V741.672H531.334C532.43 741.672 533.418 741.511 534.299 741.188C535.18 740.845 535.932 740.361 536.555 739.738C537.178 739.115 537.65 738.374 537.973 737.515C538.316 736.634 538.488 735.646 538.488 734.55V732.971C538.488 731.768 537.908 731.166 536.748 731.166H512.868V760.621H540.519C540.669 760.621 540.852 760.61 541.066 760.589C541.281 760.567 541.475 760.503 541.646 760.396C541.818 760.288 541.969 760.105 542.098 759.848C542.227 759.59 542.291 759.235 542.291 758.784V757.237ZM603.328 769H594.949V757.656H565.494V769H557.115V745.894C557.115 742.521 557.695 739.416 558.855 736.58C560.016 733.744 561.627 731.306 563.689 729.265C565.752 727.224 568.19 725.634 571.005 724.495C573.819 723.356 576.892 722.787 580.222 722.787H599.106C599.687 722.787 600.234 722.895 600.75 723.109C601.266 723.324 601.717 723.625 602.104 724.012C602.49 724.398 602.791 724.85 603.006 725.365C603.221 725.881 603.328 726.429 603.328 727.009V769ZM565.494 749.277H594.949V731.166H580.222C579.964 731.166 579.416 731.209 578.578 731.295C577.762 731.359 576.806 731.542 575.71 731.843C574.636 732.144 573.497 732.605 572.294 733.229C571.091 733.852 569.984 734.711 568.975 735.807C567.965 736.902 567.127 738.277 566.461 739.932C565.816 741.564 565.494 743.552 565.494 745.894V749.277ZM659.209 749.664C659.209 752.479 658.715 755.067 657.727 757.431C656.76 759.794 655.417 761.835 653.698 763.554C651.979 765.251 649.938 766.583 647.575 767.55C645.212 768.517 642.645 769 639.873 769H617.25C616.648 769 616.09 768.893 615.574 768.678C615.059 768.463 614.607 768.173 614.221 767.808C613.855 767.421 613.565 766.97 613.351 766.454C613.136 765.938 613.028 765.38 613.028 764.778V727.009C613.028 726.429 613.136 725.881 613.351 725.365C613.565 724.85 613.855 724.398 614.221 724.012C614.607 723.625 615.059 723.324 615.574 723.109C616.09 722.895 616.648 722.787 617.25 722.787H639.873C642.645 722.787 645.212 723.271 647.575 724.237C649.938 725.204 651.979 726.547 653.698 728.266C655.417 729.963 656.76 732.004 657.727 734.389C658.715 736.752 659.209 739.33 659.209 742.123V749.664ZM650.83 742.123C650.83 740.49 650.562 738.997 650.024 737.644C649.509 736.29 648.768 735.141 647.801 734.195C646.834 733.229 645.674 732.487 644.32 731.972C642.988 731.435 641.506 731.166 639.873 731.166H621.407V760.621H639.873C641.506 760.621 642.988 760.363 644.32 759.848C645.674 759.311 646.834 758.569 647.801 757.624C648.768 756.657 649.509 755.508 650.024 754.176C650.562 752.822 650.83 751.318 650.83 749.664V742.123ZM735.07 738.32C735.07 740.232 734.834 741.94 734.361 743.444C733.889 744.948 733.244 746.28 732.428 747.44C731.633 748.579 730.709 749.557 729.656 750.373C728.604 751.189 727.497 751.866 726.337 752.403C725.198 752.919 724.038 753.295 722.856 753.531C721.696 753.768 720.601 753.886 719.569 753.886L737.068 769H724.113L706.646 753.886H700.62V745.507H719.569C720.622 745.421 721.578 745.206 722.438 744.862C723.318 744.497 724.07 744.014 724.693 743.412C725.338 742.811 725.832 742.091 726.176 741.253C726.52 740.394 726.691 739.416 726.691 738.32V733.035C726.691 732.562 726.627 732.208 726.498 731.972C726.391 731.714 726.24 731.531 726.047 731.424C725.875 731.295 725.682 731.22 725.467 731.198C725.273 731.177 725.091 731.166 724.919 731.166H697.269V769H688.89V727.009C688.89 726.429 688.997 725.881 689.212 725.365C689.427 724.85 689.717 724.398 690.082 724.012C690.469 723.625 690.92 723.324 691.436 723.109C691.951 722.895 692.51 722.787 693.111 722.787H724.919C726.788 722.787 728.367 723.131 729.656 723.818C730.945 724.484 731.987 725.333 732.782 726.364C733.599 727.374 734.179 728.47 734.522 729.651C734.888 730.833 735.07 731.939 735.07 732.971V738.32ZM781.477 750.115H755.019V741.672H781.477V750.115ZM785.247 769H755.019C753.858 769 752.591 768.796 751.216 768.388C749.841 767.979 748.562 767.313 747.381 766.39C746.221 765.444 745.243 764.23 744.448 762.748C743.675 761.244 743.288 759.407 743.288 757.237V727.009C743.288 726.429 743.396 725.881 743.61 725.365C743.825 724.85 744.115 724.398 744.48 724.012C744.867 723.625 745.318 723.324 745.834 723.109C746.35 722.895 746.908 722.787 747.51 722.787H785.247V731.166H751.667V757.237C751.667 758.333 751.957 759.171 752.537 759.751C753.117 760.331 753.966 760.621 755.083 760.621H785.247V769ZM841.354 750.309C841.354 752.457 841.063 754.487 840.483 756.399C839.925 758.29 839.119 760.009 838.066 761.556C837.035 763.103 835.778 764.456 834.296 765.616C832.835 766.776 831.202 767.689 829.397 768.355L839.194 776.122H827.045L818.988 769.645H810.738C807.967 769.645 805.399 769.172 803.036 768.227C800.673 767.26 798.632 765.917 796.913 764.198C795.194 762.479 793.841 760.438 792.853 758.075C791.886 755.712 791.402 753.123 791.402 750.309V741.479C791.402 738.686 791.886 736.107 792.853 733.744C793.841 731.359 795.194 729.318 796.913 727.621C798.632 725.902 800.673 724.56 803.036 723.593C805.399 722.626 807.967 722.143 810.738 722.143H822.082C824.854 722.143 827.41 722.626 829.752 723.593C832.115 724.56 834.156 725.902 835.875 727.621C837.594 729.318 838.937 731.359 839.903 733.744C840.87 736.107 841.354 738.686 841.354 741.479V750.309ZM832.975 741.479C832.975 739.824 832.706 738.331 832.169 736.999C831.653 735.646 830.912 734.496 829.945 733.551C829 732.584 827.851 731.843 826.497 731.327C825.165 730.79 823.693 730.521 822.082 730.521H810.738C809.105 730.521 807.612 730.79 806.259 731.327C804.927 731.843 803.777 732.584 802.811 733.551C801.844 734.496 801.092 735.646 800.555 736.999C800.039 738.331 799.781 739.824 799.781 741.479V750.309C799.781 751.963 800.039 753.467 800.555 754.82C801.092 756.152 801.844 757.302 802.811 758.269C803.777 759.214 804.927 759.955 806.259 760.492C807.612 761.008 809.105 761.266 810.738 761.266H822.018C823.65 761.266 825.133 761.008 826.465 760.492C827.818 759.955 828.979 759.214 829.945 758.269C830.912 757.302 831.653 756.152 832.169 754.82C832.706 753.467 832.975 751.963 832.975 750.309V741.479ZM894.914 764.778C894.914 765.38 894.807 765.938 894.592 766.454C894.377 766.97 894.076 767.421 893.689 767.808C893.303 768.173 892.852 768.463 892.336 768.678C891.82 768.893 891.272 769 890.692 769H871.808C870.024 769 868.22 768.807 866.394 768.42C864.567 768.033 862.795 767.442 861.076 766.647C859.379 765.831 857.778 764.8 856.274 763.554C854.771 762.308 853.449 760.836 852.311 759.139C851.193 757.42 850.312 755.465 849.668 753.273C849.023 751.061 848.701 748.601 848.701 745.894V722.787H857.08V745.894C857.08 748.257 857.402 750.255 858.047 751.888C858.713 753.521 859.551 754.885 860.561 755.98C861.57 757.076 862.677 757.936 863.88 758.559C865.083 759.182 866.222 759.644 867.296 759.944C868.392 760.245 869.348 760.438 870.164 760.524C871.002 760.589 871.55 760.621 871.808 760.621H886.535V722.787H894.914V764.778ZM942.674 750.115H916.216V741.672H942.674V750.115ZM946.444 769H916.216C915.056 769 913.788 768.796 912.413 768.388C911.038 767.979 909.76 767.313 908.578 766.39C907.418 765.444 906.44 764.23 905.646 762.748C904.872 761.244 904.485 759.407 904.485 757.237V727.009C904.485 726.429 904.593 725.881 904.808 725.365C905.022 724.85 905.312 724.398 905.678 724.012C906.064 723.625 906.516 723.324 907.031 723.109C907.547 722.895 908.105 722.787 908.707 722.787H946.444V731.166H912.864V757.237C912.864 758.333 913.154 759.171 913.734 759.751C914.314 760.331 915.163 760.621 916.28 760.621H946.444V769ZM998.78 755.4C998.78 757.055 998.565 758.548 998.136 759.88C997.728 761.19 997.18 762.351 996.492 763.36C995.805 764.37 994.999 765.229 994.075 765.938C993.151 766.647 992.195 767.228 991.207 767.679C990.219 768.13 989.209 768.463 988.178 768.678C987.168 768.893 986.212 769 985.31 769H952.986V760.621H985.31C986.921 760.621 988.167 760.148 989.048 759.203C989.95 758.258 990.401 756.99 990.401 755.4C990.401 754.627 990.283 753.918 990.047 753.273C989.811 752.629 989.467 752.07 989.016 751.598C988.586 751.125 988.049 750.76 987.404 750.502C986.781 750.244 986.083 750.115 985.31 750.115H966.038C964.685 750.115 963.224 749.879 961.655 749.406C960.087 748.912 958.626 748.128 957.272 747.054C955.94 745.979 954.823 744.572 953.921 742.832C953.04 741.092 952.6 738.965 952.6 736.451C952.6 733.938 953.04 731.821 953.921 730.103C954.823 728.362 955.94 726.955 957.272 725.881C958.626 724.785 960.087 724.001 961.655 723.528C963.224 723.034 964.685 722.787 966.038 722.787H994.559V731.166H966.038C964.448 731.166 963.202 731.649 962.3 732.616C961.419 733.583 960.979 734.861 960.979 736.451C960.979 738.062 961.419 739.341 962.3 740.286C963.202 741.21 964.448 741.672 966.038 741.672H985.31H985.374C986.276 741.693 987.232 741.822 988.242 742.059C989.252 742.273 990.251 742.617 991.239 743.09C992.249 743.562 993.205 744.164 994.107 744.895C995.01 745.604 995.805 746.463 996.492 747.473C997.201 748.482 997.76 749.643 998.168 750.953C998.576 752.264 998.78 753.746 998.78 755.4ZM1046.99 731.166H1028.53V769H1020.15V731.166H1001.65V722.787H1046.99V731.166Z" fill="#A277FF"/>
</g>
<defs>
<filter id="filter0_dd_2041_4" x="459.107" y="380.827" width="1000.87" height="323.173" filterUnits="userSpaceOnUse" color-interpolation-filters="sRGB">
<feFlood flood-opacity="0" result="BackgroundImageFix"/>
<feColorMatrix in="SourceAlpha" type="matrix" values="0 0 0 0 0 0 0 0 0 0 0 0 0 0 0 0 0 0 127 0" result="hardAlpha"/>
<feOffset/>
<feGaussianBlur stdDeviation="12.5"/>
<feComposite in2="hardAlpha" operator="out"/>
<feColorMatrix type="matrix" values="0 0 0 0 0.380392 0 0 0 0 1 0 0 0 0 0.792157 0 0 0 1 0"/>
<feBlend mode="normal" in2="BackgroundImageFix" result="effect1_dropShadow_2041_4"/>
<feColorMatrix in="SourceAlpha" type="matrix" values="0 0 0 0 0 0 0 0 0 0 0 0 0 0 0 0 0 0 127 0" result="hardAlpha"/>
<feOffset dy="4"/>
<feGaussianBlur stdDeviation="2"/>
<feComposite in2="hardAlpha" operator="out"/>
<feColorMatrix type="matrix" values="0 0 0 0 0 0 0 0 0 0 0 0 0 0 0 0 0 0 0.25 0"/>
<feBlend mode="normal" in2="effect1_dropShadow_2041_4" result="effect2_dropShadow_2041_4"/>
<feBlend mode="normal" in="SourceGraphic" in2="effect2_dropShadow_2041_4" result="shape"/>
</filter>
<filter id="filter1_d_2041_4" x="504.489" y="712.143" width="582.502" height="93.9795" filterUnits="userSpaceOnUse" color-interpolation-filters="sRGB">
<feFlood flood-opacity="0" result="BackgroundImageFix"/>
<feColorMatrix in="SourceAlpha" type="matrix" values="0 0 0 0 0 0 0 0 0 0 0 0 0 0 0 0 0 0 127 0" result="hardAlpha"/>
<feOffset dx="20" dy="10"/>
<feGaussianBlur stdDeviation="10"/>
<feComposite in2="hardAlpha" operator="out"/>
<feColorMatrix type="matrix" values="0 0 0 0 0 0 0 0 0 0 0 0 0 0 0 0 0 0 0.55 0"/>
<feBlend mode="normal" in2="BackgroundImageFix" result="effect1_dropShadow_2041_4"/>
<feBlend mode="normal" in="SourceGraphic" in2="effect1_dropShadow_2041_4" result="shape"/>
</filter>
</defs>
</svg>
