<svg width="1920" height="1080" viewBox="0 0 1920 1080" fill="none" xmlns="http://www.w3.org/2000/svg">
<g filter="url(#filter0_dd_2041_4)">
<mask id="path-1-outside-1_2041_4" maskUnits="userSpaceOnUse" x="512" y="405" width="887" height="274" fill="black">
<rect fill="white" x="512" y="405" width="887" height="274"/>
<path d="M758.383 673H710.666V566.272H542.378C538.979 566.272 535.822 565.665 532.908 564.451C529.994 563.116 527.444 561.416 525.258 559.352C523.194 557.166 521.555 554.616 520.341 551.702C519.127 548.788 518.52 545.692 518.52 542.414V411.827H565.873V518.555H710.666V411.827H758.383V673ZM1112.08 563.723C1112.08 574.408 1110.68 584.546 1107.89 594.138C1105.22 603.609 1101.39 612.412 1096.41 620.547C1091.44 628.682 1085.55 635.967 1078.75 642.402C1071.95 648.838 1064.48 654.362 1056.35 658.976C1048.33 663.469 1039.77 666.929 1030.67 669.357C1021.56 671.786 1012.27 673 1002.8 673H917.382C907.79 673 898.44 671.786 889.334 669.357C880.228 666.929 871.607 663.469 863.472 658.976C855.458 654.362 848.051 648.838 841.252 642.402C834.452 635.967 828.564 628.682 823.585 620.547C818.729 612.412 814.904 603.609 812.111 594.138C809.44 584.546 808.104 574.408 808.104 563.723V521.104C808.104 505.077 811.079 490.385 817.029 477.029C823.1 463.673 831.174 452.199 841.252 442.607C851.33 432.893 862.925 425.365 876.039 420.023C889.273 414.559 903.054 411.827 917.382 411.827H1002.8C1012.27 411.827 1021.56 413.041 1030.67 415.47C1039.77 417.898 1048.33 421.419 1056.35 426.033C1064.48 430.526 1071.95 435.99 1078.75 442.425C1085.55 448.86 1091.44 456.145 1096.41 464.28C1101.39 472.415 1105.22 481.279 1107.89 490.871C1110.68 500.342 1112.08 510.42 1112.08 521.104V563.723ZM1064.36 521.104C1064.36 511.755 1062.66 503.256 1059.26 495.606C1055.86 487.957 1051.31 481.4 1045.6 475.937C1040.02 470.473 1033.52 466.284 1026.11 463.37C1018.71 460.456 1010.94 459.059 1002.8 459.181H917.382C909.49 459.059 901.779 460.456 894.251 463.37C886.845 466.162 880.228 470.291 874.399 475.754C868.693 481.097 864.079 487.653 860.558 495.424C857.158 503.074 855.458 511.634 855.458 521.104V563.723C855.458 573.193 857.158 581.753 860.558 589.403C863.957 597.052 868.511 603.609 874.217 609.073C879.924 614.415 886.481 618.543 893.887 621.458C901.415 624.372 909.247 625.768 917.382 625.646H1002.8C1012.15 625.646 1020.59 624.129 1028.12 621.093C1035.77 617.936 1042.26 613.626 1047.6 608.162C1052.95 602.698 1057.07 596.202 1059.99 588.674C1062.9 581.025 1064.36 572.708 1064.36 563.723V521.104ZM1043.78 486.5C1045.6 489.171 1046.81 492.085 1047.42 495.242C1048.03 498.278 1048.03 501.313 1047.42 504.349C1046.81 507.263 1045.6 510.055 1043.78 512.727C1042.08 515.276 1039.83 517.462 1037.04 519.283L909.186 604.702C907.122 606.28 904.997 607.373 902.812 607.98C900.626 608.587 898.38 608.891 896.073 608.891C892.187 608.891 888.484 607.98 884.963 606.159C881.442 604.337 878.588 601.727 876.403 598.327C874.582 595.656 873.367 592.803 872.76 589.767C872.153 586.61 872.092 583.575 872.578 580.661C873.185 577.625 874.339 574.833 876.039 572.283C877.738 569.611 879.985 567.365 882.777 565.544L1011 480.125C1013.67 478.304 1016.52 477.09 1019.56 476.483C1022.71 475.876 1025.75 475.876 1028.66 476.483C1031.7 477.09 1034.49 478.243 1037.04 479.943C1039.71 481.643 1041.96 483.829 1043.78 486.5ZM1392.19 673H1344.47V566.272H1176.19C1172.79 566.272 1169.63 565.665 1166.72 564.451C1163.8 563.116 1161.25 561.416 1159.07 559.352C1157 557.166 1155.36 554.616 1154.15 551.702C1152.94 548.788 1152.33 545.692 1152.33 542.414V411.827H1199.68V518.555H1344.47V411.827H1392.19V673Z"/>
</mask>
<path d="M758.383 673V679H764.383V673H758.383ZM710.666 673H704.666V679H710.666V673ZM710.666 566.272H716.666V560.272H710.666V566.272ZM532.908 564.451L530.408 569.906L530.503 569.949L530.6 569.99L532.908 564.451ZM525.258 559.352L520.896 563.471L521.014 563.596L521.139 563.714L525.258 559.352ZM518.52 411.827V405.827H512.52V411.827H518.52ZM565.873 411.827H571.873V405.827H565.873V411.827ZM565.873 518.555H559.873V524.555H565.873V518.555ZM710.666 518.555V524.555H716.666V518.555H710.666ZM710.666 411.827V405.827H704.666V411.827H710.666ZM758.383 411.827H764.383V405.827H758.383V411.827ZM758.383 667H710.666V679H758.383V667ZM716.666 673V566.272H704.666V673H716.666ZM710.666 560.272H542.378V572.272H710.666V560.272ZM542.378 560.272C539.709 560.272 537.343 559.799 535.215 558.913L530.6 569.99C534.3 571.531 538.248 572.272 542.378 572.272V560.272ZM535.408 558.997C533.05 557.916 531.056 556.574 529.378 554.989L521.139 563.714C523.831 566.257 526.937 568.315 530.408 569.906L535.408 558.997ZM529.62 555.232C528.079 553.6 526.828 551.672 525.879 549.394L514.802 554.01C516.282 557.56 518.309 560.732 520.896 563.471L529.62 555.232ZM525.879 549.394C524.981 547.24 524.52 544.931 524.52 542.414H512.52C512.52 546.453 513.272 550.336 514.802 554.01L525.879 549.394ZM524.52 542.414V411.827H512.52V542.414H524.52ZM518.52 417.827H565.873V405.827H518.52V417.827ZM559.873 411.827V518.555H571.873V411.827H559.873ZM565.873 524.555H710.666V512.555H565.873V524.555ZM716.666 518.555V411.827H704.666V518.555H716.666ZM710.666 417.827H758.383V405.827H710.666V417.827ZM752.383 411.827V673H764.383V411.827H752.383ZM1107.89 594.138L1102.13 592.461L1102.12 592.485L1102.11 592.509L1107.89 594.138ZM1056.35 658.976L1059.28 664.21L1059.29 664.202L1059.31 664.195L1056.35 658.976ZM863.472 658.976L860.478 664.176L860.524 664.203L860.571 664.228L863.472 658.976ZM841.252 642.402L837.128 646.76L841.252 642.402ZM823.585 620.547L818.434 623.623L818.451 623.651L818.468 623.679L823.585 620.547ZM812.111 594.138L806.331 595.748L806.343 595.792L806.356 595.835L812.111 594.138ZM817.029 477.029L811.567 474.546L811.557 474.567L811.548 474.588L817.029 477.029ZM841.252 442.607L845.389 446.953L845.402 446.94L845.416 446.927L841.252 442.607ZM876.039 420.023L878.302 425.58L878.315 425.574L878.328 425.569L876.039 420.023ZM1030.67 415.47L1032.21 409.672L1032.21 409.672L1030.67 415.47ZM1056.35 426.033L1053.35 431.233L1053.4 431.26L1053.45 431.286L1056.35 426.033ZM1107.89 490.871L1102.11 492.481L1102.12 492.525L1102.13 492.568L1107.89 490.871ZM1045.6 475.937L1041.4 480.226L1041.43 480.248L1041.45 480.27L1045.6 475.937ZM1002.8 459.181V465.181H1002.85L1002.89 465.18L1002.8 459.181ZM917.382 459.181L917.29 465.18L917.336 465.181H917.382V459.181ZM894.251 463.37L896.368 468.984L896.393 468.975L896.417 468.965L894.251 463.37ZM874.399 475.754L878.5 480.135L878.503 480.132L874.399 475.754ZM860.558 495.424L855.092 492.948L855.084 492.968L855.075 492.987L860.558 495.424ZM874.217 609.073L870.068 613.407L870.092 613.43L870.117 613.453L874.217 609.073ZM893.887 621.458L891.69 627.041L891.706 627.047L891.721 627.053L893.887 621.458ZM917.382 625.646V619.646H917.337L917.292 619.647L917.382 625.646ZM1028.12 621.093L1030.36 626.658L1030.38 626.649L1030.41 626.64L1028.12 621.093ZM1047.6 608.162L1051.89 612.357L1047.6 608.162ZM1059.99 588.674L1065.58 590.84L1065.59 590.825L1065.6 590.81L1059.99 588.674ZM1043.78 486.5L1038.82 489.88L1043.78 486.5ZM1047.42 495.242L1041.53 496.375L1041.53 496.397L1041.54 496.419L1047.42 495.242ZM1047.42 504.349L1053.3 505.572L1053.3 505.549L1053.31 505.525L1047.42 504.349ZM1043.78 512.727L1038.82 509.347L1038.8 509.372L1038.79 509.398L1043.78 512.727ZM1037.04 519.283L1033.76 514.258L1033.74 514.276L1033.71 514.294L1037.04 519.283ZM909.186 604.702L905.853 599.713L905.694 599.819L905.541 599.936L909.186 604.702ZM876.403 598.327L881.45 595.083L881.406 595.014L881.36 594.947L876.403 598.327ZM872.76 589.767L866.868 590.9L866.872 590.922L866.877 590.944L872.76 589.767ZM872.578 580.661L866.695 579.484L866.676 579.579L866.66 579.674L872.578 580.661ZM876.039 572.283L881.031 575.611L881.066 575.558L881.101 575.504L876.039 572.283ZM882.777 565.544L886.055 570.57L886.08 570.554L886.104 570.537L882.777 565.544ZM1011 480.125L1014.32 485.119L1014.35 485.101L1014.38 485.083L1011 480.125ZM1019.56 476.483L1018.42 470.591L1018.4 470.595L1018.38 470.599L1019.56 476.483ZM1028.66 476.483L1027.44 482.357L1027.46 482.362L1027.49 482.366L1028.66 476.483ZM1037.04 479.943L1033.71 484.936L1033.77 484.971L1033.82 485.005L1037.04 479.943ZM1106.08 563.723C1106.08 573.879 1104.75 583.45 1102.13 592.461L1113.65 595.815C1116.61 585.642 1118.08 574.936 1118.08 563.723H1106.08ZM1102.11 592.509C1099.59 601.468 1095.98 609.763 1091.3 617.415L1101.53 623.679C1106.81 615.06 1110.85 605.749 1113.66 595.767L1102.11 592.509ZM1091.3 617.415C1086.59 625.108 1081.03 631.979 1074.62 638.045L1082.87 646.76C1090.06 639.955 1096.28 632.256 1101.53 623.679L1091.3 617.415ZM1074.62 638.045C1068.18 644.147 1061.1 649.382 1053.39 653.757L1059.31 664.195C1067.86 659.342 1075.72 653.528 1082.87 646.76L1074.62 638.045ZM1053.41 653.742C1045.85 657.983 1037.75 661.257 1029.12 663.56L1032.21 675.155C1041.79 672.601 1050.82 668.954 1059.28 664.21L1053.41 653.742ZM1029.12 663.56C1020.52 665.853 1011.75 667 1002.8 667V679C1012.79 679 1022.6 677.718 1032.21 675.155L1029.12 663.56ZM1002.8 667H917.382V679H1002.8V667ZM917.382 667C908.302 667 899.473 665.852 890.88 663.56L887.788 675.155C897.408 677.72 907.277 679 917.382 679V667ZM890.88 663.56C882.239 661.256 874.074 657.977 866.372 653.724L860.571 664.228C869.14 668.96 878.216 672.602 887.788 675.155L890.88 663.56ZM866.465 653.776C858.865 649.401 851.838 644.16 845.376 638.045L837.128 646.76C844.265 653.515 852.051 659.324 860.478 664.176L866.465 653.776ZM845.376 638.045C838.968 631.979 833.411 625.108 828.703 617.415L818.468 623.679C823.716 632.256 829.937 639.955 837.128 646.76L845.376 638.045ZM828.737 617.471C824.149 609.786 820.523 601.449 817.866 592.441L806.356 595.835C809.285 605.769 813.308 615.037 818.434 623.623L828.737 617.471ZM817.891 592.529C815.376 583.497 814.104 573.903 814.104 563.723H802.104C802.104 574.912 803.504 585.595 806.331 595.748L817.891 592.529ZM814.104 563.723V521.104H802.104V563.723H814.104ZM814.104 521.104C814.104 505.837 816.934 491.987 822.51 479.471L811.548 474.588C805.224 488.784 802.104 504.318 802.104 521.104H814.104ZM822.491 479.512C828.261 466.818 835.898 455.986 845.389 446.953L837.115 438.261C826.45 448.412 817.938 460.529 811.567 474.546L822.491 479.512ZM845.416 446.927C854.938 437.749 865.887 430.638 878.302 425.58L873.775 414.466C859.964 420.093 847.721 428.038 837.088 438.287L845.416 446.927ZM878.328 425.569C890.836 420.405 903.839 417.827 917.382 417.827V405.827C902.269 405.827 887.71 408.713 873.749 414.477L878.328 425.569ZM917.382 417.827H1002.8V405.827H917.382V417.827ZM1002.8 417.827C1011.75 417.827 1020.52 418.974 1029.12 421.267L1032.21 409.672C1022.6 407.109 1012.79 405.827 1002.8 405.827V417.827ZM1029.12 421.267C1037.73 423.563 1045.8 426.886 1053.35 431.233L1059.34 420.833C1050.86 415.953 1041.82 412.233 1032.21 409.672L1029.12 421.267ZM1053.45 431.286C1061.13 435.531 1068.19 440.693 1074.62 446.783L1082.87 438.067C1075.71 431.286 1067.83 425.52 1059.25 420.781L1053.45 431.286ZM1074.62 446.783C1081.03 452.848 1086.59 459.719 1091.3 467.412L1101.53 461.148C1096.28 452.571 1090.06 444.872 1082.87 438.067L1074.62 446.783ZM1091.3 467.412C1095.97 475.052 1099.58 483.401 1102.11 492.481L1113.67 489.261C1110.85 479.157 1106.81 469.778 1101.53 461.148L1091.3 467.412ZM1102.13 492.568C1104.75 501.444 1106.08 510.947 1106.08 521.104H1118.08C1118.08 509.892 1116.61 499.239 1113.64 489.174L1102.13 492.568ZM1106.08 521.104V563.723H1118.08V521.104H1106.08ZM1070.36 521.104C1070.36 511.014 1068.52 501.671 1064.74 493.17L1053.78 498.043C1056.8 504.84 1058.36 512.496 1058.36 521.104H1070.36ZM1064.74 493.17C1061.05 484.85 1056.05 477.638 1049.75 471.603L1041.45 480.27C1046.56 485.163 1050.68 491.064 1053.78 498.043L1064.74 493.17ZM1049.8 471.648C1043.63 465.612 1036.45 460.988 1028.31 457.786L1023.92 468.953C1030.59 471.579 1036.4 475.333 1041.4 480.226L1049.8 471.648ZM1028.31 457.786C1020.16 454.579 1011.61 453.049 1002.71 453.181L1002.89 465.18C1010.26 465.07 1017.25 466.332 1023.92 468.953L1028.31 457.786ZM1002.8 453.181H917.382V465.181H1002.8V453.181ZM917.474 453.181C908.792 453.048 900.317 454.588 892.086 457.774L896.417 468.965C903.242 466.323 910.187 465.071 917.29 465.18L917.474 453.181ZM892.135 457.755C883.984 460.829 876.693 465.38 870.296 471.377L878.503 480.132C883.762 475.201 889.706 471.496 896.368 468.984L892.135 457.755ZM870.299 471.374C863.966 477.303 858.909 484.525 855.092 492.948L866.023 497.901C869.248 490.782 873.419 484.891 878.5 480.135L870.299 471.374ZM855.075 492.987C851.292 501.499 849.458 510.905 849.458 521.104H861.458C861.458 512.363 863.024 504.649 866.04 497.861L855.075 492.987ZM849.458 521.104V563.723H861.458V521.104H849.458ZM849.458 563.723C849.458 573.923 851.292 583.328 855.075 591.84L866.04 586.966C863.024 580.178 861.458 572.464 861.458 563.723H849.458ZM855.075 591.84C858.772 600.159 863.765 607.371 870.068 613.407L878.367 604.739C873.257 599.846 869.142 593.945 866.04 586.966L855.075 591.84ZM870.117 613.453C876.387 619.323 883.592 623.855 891.69 627.041L896.084 615.874C889.369 613.232 883.461 609.508 878.318 604.693L870.117 613.453ZM891.721 627.053C899.974 630.248 908.572 631.779 917.471 631.646L917.292 619.647C909.922 619.757 902.856 618.496 896.053 615.862L891.721 627.053ZM917.382 631.646H1002.8V619.646H917.382V631.646ZM1002.8 631.646C1012.8 631.646 1022.02 630.021 1030.36 626.658L1025.87 615.529C1019.16 618.236 1011.5 619.646 1002.8 619.646V631.646ZM1030.41 626.64C1038.74 623.198 1045.94 618.449 1051.89 612.357L1043.31 603.967C1038.59 608.803 1032.79 612.674 1025.83 615.547L1030.41 626.64ZM1051.89 612.357C1057.84 606.28 1062.39 599.083 1065.58 590.84L1054.39 586.508C1051.76 593.322 1048.06 599.117 1043.31 603.967L1051.89 612.357ZM1065.6 590.81C1068.79 582.415 1070.36 573.366 1070.36 563.723H1058.36C1058.36 572.049 1057.01 579.635 1054.38 586.538L1065.6 590.81ZM1070.36 563.723V521.104H1058.36V563.723H1070.36ZM1038.82 489.88C1040.18 491.878 1041.08 494.028 1041.53 496.375L1053.31 494.109C1052.55 490.143 1051.02 486.464 1048.74 483.12L1038.82 489.88ZM1041.54 496.419C1041.99 498.678 1041.99 500.913 1041.54 503.172L1053.31 505.525C1054.07 501.713 1054.07 497.878 1053.31 494.065L1041.54 496.419ZM1041.55 503.125C1041.12 505.203 1040.24 507.27 1038.82 509.347L1048.74 516.107C1050.96 512.84 1052.51 509.323 1053.3 505.572L1041.55 503.125ZM1038.79 509.398C1037.58 511.215 1035.94 512.841 1033.76 514.258L1040.32 524.309C1043.73 522.083 1046.58 519.338 1048.77 516.055L1038.79 509.398ZM1033.71 514.294L905.853 599.713L912.519 609.691L1040.37 524.272L1033.71 514.294ZM905.541 599.936C903.998 601.116 902.554 601.824 901.206 602.199L904.417 613.761C907.441 612.921 910.246 611.445 912.831 609.468L905.541 599.936ZM901.206 602.199C899.552 602.658 897.846 602.891 896.073 602.891V614.891C898.913 614.891 901.7 614.516 904.417 613.761L901.206 602.199ZM896.073 602.891C893.167 602.891 890.407 602.219 887.719 600.829L882.206 611.488C886.562 613.741 891.208 614.891 896.073 614.891V602.891ZM887.719 600.829C885.15 599.5 883.079 597.617 881.45 595.083L871.356 601.572C874.098 605.837 877.733 609.174 882.206 611.488L887.719 600.829ZM881.36 594.947C879.972 592.911 879.086 590.802 878.644 588.59L866.877 590.944C867.649 594.803 869.191 598.401 871.445 601.707L881.36 594.947ZM878.652 588.634C878.168 586.115 878.138 583.799 878.496 581.647L866.66 579.674C866.047 583.35 866.139 587.106 866.868 590.9L878.652 588.634ZM878.462 581.837C878.917 579.562 879.77 577.502 881.031 575.611L871.046 568.955C868.907 572.163 867.454 575.688 866.695 579.484L878.462 581.837ZM881.101 575.504C882.317 573.593 883.94 571.949 886.055 570.57L879.5 560.518C876.029 562.782 873.16 565.63 870.977 569.061L881.101 575.504ZM886.104 570.537L1014.32 485.119L1007.67 475.132L879.451 560.551L886.104 570.537ZM1014.38 485.083C1016.41 483.694 1018.52 482.809 1020.73 482.366L1018.38 470.599C1014.52 471.371 1010.92 472.914 1007.62 475.168L1014.38 485.083ZM1020.69 482.375C1023.13 481.906 1025.36 481.924 1027.44 482.357L1029.89 470.609C1026.14 469.828 1022.3 469.846 1018.42 470.591L1020.69 482.375ZM1027.49 482.366C1029.76 482.821 1031.82 483.675 1033.71 484.936L1040.37 474.951C1037.16 472.812 1033.64 471.359 1029.84 470.599L1027.49 482.366ZM1033.82 485.005C1035.79 486.259 1037.45 487.867 1038.82 489.88L1048.74 483.12C1046.47 479.791 1043.63 477.028 1040.26 474.881L1033.82 485.005ZM1392.19 673V679H1398.19V673H1392.19ZM1344.47 673H1338.47V679H1344.47V673ZM1344.47 566.272H1350.47V560.272H1344.47V566.272ZM1166.72 564.451L1164.22 569.906L1164.31 569.949L1164.41 569.99L1166.72 564.451ZM1159.07 559.352L1154.7 563.471L1154.82 563.596L1154.95 563.714L1159.07 559.352ZM1152.33 411.827V405.827H1146.33V411.827H1152.33ZM1199.68 411.827H1205.68V405.827H1199.68V411.827ZM1199.68 518.555H1193.68V524.555H1199.68V518.555ZM1344.47 518.555V524.555H1350.47V518.555H1344.47ZM1344.47 411.827V405.827H1338.47V411.827H1344.47ZM1392.19 411.827H1398.19V405.827H1392.19V411.827ZM1392.19 667H1344.47V679H1392.19V667ZM1350.47 673V566.272H1338.47V673H1350.47ZM1344.47 560.272H1176.19V572.272H1344.47V560.272ZM1176.19 560.272C1173.52 560.272 1171.15 559.799 1169.02 558.913L1164.41 569.99C1168.11 571.531 1172.06 572.272 1176.19 572.272V560.272ZM1169.22 558.997C1166.86 557.916 1164.86 556.574 1163.19 554.989L1154.95 563.714C1157.64 566.257 1160.75 568.315 1164.22 569.906L1169.22 558.997ZM1163.43 555.232C1161.89 553.6 1160.64 551.672 1159.69 549.394L1148.61 554.01C1150.09 557.56 1152.12 560.732 1154.7 563.471L1163.43 555.232ZM1159.69 549.394C1158.79 547.24 1158.33 544.931 1158.33 542.414H1146.33C1146.33 546.453 1147.08 550.336 1148.61 554.01L1159.69 549.394ZM1158.33 542.414V411.827H1146.33V542.414H1158.33ZM1152.33 417.827H1199.68V405.827H1152.33V417.827ZM1193.68 411.827V518.555H1205.68V411.827H1193.68ZM1199.68 524.555H1344.47V512.555H1199.68V524.555ZM1350.47 518.555V411.827H1338.47V518.555H1350.47ZM1344.47 417.827H1392.19V405.827H1344.47V417.827ZM1386.19 411.827V673H1398.19V411.827H1386.19Z" fill="#61FFCA" mask="url(#path-1-outside-1_2041_4)"/>
</g>
<g filter="url(#filter1_d_2041_4)">
<path d="M482.253 742.123C482.253 744.035 482.017 745.743 481.544 747.247C481.071 748.751 480.427 750.083 479.61 751.243C478.815 752.382 477.892 753.359 476.839 754.176C475.786 754.992 474.68 755.658 473.52 756.174C472.381 756.689 471.221 757.065 470.039 757.302C468.879 757.538 467.783 757.656 466.752 757.656H447.803V749.277H466.752C467.826 749.191 468.793 748.977 469.652 748.633C470.533 748.268 471.285 747.784 471.908 747.183C472.531 746.581 473.015 745.861 473.358 745.023C473.702 744.164 473.874 743.197 473.874 742.123V738.32C473.767 737.268 473.541 736.301 473.197 735.42C472.854 734.539 472.381 733.787 471.779 733.164C471.199 732.541 470.49 732.058 469.652 731.714C468.814 731.349 467.848 731.166 466.752 731.166H447.867C446.75 731.166 445.901 731.456 445.321 732.036C444.741 732.616 444.451 733.454 444.451 734.55V769H436.072V734.55C436.072 732.401 436.459 730.575 437.232 729.071C438.027 727.567 439.005 726.354 440.165 725.43C441.347 724.506 442.625 723.84 444 723.432C445.375 723.002 446.643 722.787 447.803 722.787H466.752C468.643 722.787 470.34 723.034 471.844 723.528C473.348 724.001 474.669 724.646 475.808 725.462C476.968 726.257 477.945 727.181 478.74 728.233C479.557 729.286 480.223 730.393 480.738 731.553C481.275 732.691 481.662 733.852 481.898 735.033C482.135 736.193 482.253 737.289 482.253 738.32V742.123ZM534.782 769H526.403V757.656H496.948V769H488.569V745.894C488.569 742.521 489.149 739.416 490.31 736.58C491.47 733.744 493.081 731.306 495.144 729.265C497.206 727.224 499.645 725.634 502.459 724.495C505.273 723.356 508.346 722.787 511.676 722.787H530.561C531.141 722.787 531.688 722.895 532.204 723.109C532.72 723.324 533.171 723.625 533.558 724.012C533.944 724.398 534.245 724.85 534.46 725.365C534.675 725.881 534.782 726.429 534.782 727.009V769ZM496.948 749.277H526.403V731.166H511.676C511.418 731.166 510.87 731.209 510.032 731.295C509.216 731.359 508.26 731.542 507.164 731.843C506.09 732.144 504.951 732.605 503.748 733.229C502.545 733.852 501.438 734.711 500.429 735.807C499.419 736.902 498.581 738.277 497.915 739.932C497.271 741.564 496.948 743.552 496.948 745.894V749.277ZM590.147 764.778C590.147 765.38 590.04 765.938 589.825 766.454C589.61 766.97 589.31 767.421 588.923 767.808C588.558 768.173 588.117 768.463 587.602 768.678C587.086 768.893 586.527 769 585.926 769H555.697C554.924 769 554.086 768.914 553.184 768.742C552.303 768.549 551.422 768.259 550.541 767.872C549.682 767.485 548.854 766.991 548.06 766.39C547.265 765.767 546.556 765.025 545.933 764.166C545.331 763.285 544.848 762.275 544.482 761.137C544.117 759.977 543.935 758.677 543.935 757.237V734.55C543.935 733.776 544.021 732.949 544.192 732.068C544.386 731.166 544.676 730.285 545.062 729.426C545.449 728.545 545.954 727.707 546.577 726.912C547.2 726.117 547.941 725.419 548.801 724.817C549.682 724.194 550.691 723.7 551.83 723.335C552.969 722.97 554.258 722.787 555.697 722.787H589.761V731.166H555.697C554.602 731.166 553.764 731.456 553.184 732.036C552.604 732.616 552.313 733.476 552.313 734.614V757.237C552.313 758.312 552.604 759.149 553.184 759.751C553.785 760.331 554.623 760.621 555.697 760.621H581.769V750.115H559.468V741.672H585.926C586.527 741.672 587.086 741.79 587.602 742.026C588.117 742.241 588.558 742.542 588.923 742.929C589.31 743.315 589.61 743.767 589.825 744.282C590.04 744.776 590.147 745.313 590.147 745.894V764.778ZM636.876 750.115H610.418V741.672H636.876V750.115ZM640.646 769H610.418C609.258 769 607.99 768.796 606.615 768.388C605.24 767.979 603.962 767.313 602.78 766.39C601.62 765.444 600.643 764.23 599.848 762.748C599.074 761.244 598.688 759.407 598.688 757.237V727.009C598.688 726.429 598.795 725.881 599.01 725.365C599.225 724.85 599.515 724.398 599.88 724.012C600.267 723.625 600.718 723.324 601.233 723.109C601.749 722.895 602.308 722.787 602.909 722.787H640.646V731.166H607.066V757.237C607.066 758.333 607.356 759.171 607.937 759.751C608.517 760.331 609.365 760.621 610.482 760.621H640.646V769ZM716.411 765.423C716.411 766.024 716.293 766.583 716.057 767.099C715.842 767.614 715.541 768.065 715.154 768.452C714.789 768.817 714.349 769.107 713.833 769.322C713.317 769.537 712.77 769.645 712.189 769.645C711.674 769.645 711.147 769.548 710.61 769.354C710.095 769.161 709.633 768.85 709.225 768.42L678.609 736.451V769H670.23V726.364C670.23 725.505 670.467 724.731 670.939 724.044C671.434 723.335 672.057 722.809 672.809 722.465C673.604 722.143 674.42 722.067 675.258 722.239C676.096 722.39 676.815 722.776 677.417 723.399L708.032 755.336V722.787H716.411V765.423ZM774.677 750.309C774.677 753.123 774.193 755.712 773.227 758.075C772.26 760.438 770.917 762.479 769.198 764.198C767.479 765.917 765.438 767.26 763.075 768.227C760.733 769.172 758.177 769.645 755.405 769.645H744.062C741.29 769.645 738.723 769.172 736.359 768.227C733.996 767.26 731.955 765.917 730.236 764.198C728.518 762.479 727.164 760.438 726.176 758.075C725.209 755.712 724.726 753.123 724.726 750.309V741.479C724.726 738.686 725.209 736.107 726.176 733.744C727.164 731.359 728.518 729.318 730.236 727.621C731.955 725.902 733.996 724.56 736.359 723.593C738.723 722.626 741.29 722.143 744.062 722.143H755.405C758.177 722.143 760.733 722.626 763.075 723.593C765.438 724.56 767.479 725.902 769.198 727.621C770.917 729.318 772.26 731.359 773.227 733.744C774.193 736.107 774.677 738.686 774.677 741.479V750.309ZM766.298 741.479C766.298 739.824 766.029 738.331 765.492 736.999C764.977 735.646 764.235 734.496 763.269 733.551C762.323 732.584 761.174 731.843 759.82 731.327C758.488 730.79 757.017 730.521 755.405 730.521H744.062C742.429 730.521 740.936 730.79 739.582 731.327C738.25 731.843 737.101 732.584 736.134 733.551C735.167 734.496 734.415 735.646 733.878 736.999C733.362 738.331 733.104 739.824 733.104 741.479V750.309C733.104 751.963 733.362 753.467 733.878 754.82C734.415 756.152 735.167 757.302 736.134 758.269C737.101 759.214 738.25 759.955 739.582 760.492C740.936 761.008 742.429 761.266 744.062 761.266H755.341C756.974 761.266 758.456 761.008 759.788 760.492C761.142 759.955 762.302 759.214 763.269 758.269C764.235 757.302 764.977 756.152 765.492 754.82C766.029 753.467 766.298 751.963 766.298 750.309V741.479ZM824.08 731.166H805.614V769H797.235V731.166H778.737V722.787H824.08V731.166ZM889.242 750.115H862.752V741.672H889.242V750.115ZM892.98 731.166H859.4V769H851.021V727.009C851.021 726.429 851.129 725.881 851.344 725.365C851.559 724.85 851.849 724.398 852.214 724.012C852.601 723.625 853.052 723.324 853.567 723.109C854.083 722.895 854.642 722.787 855.243 722.787H892.98V731.166ZM947.927 750.309C947.927 753.123 947.443 755.712 946.477 758.075C945.51 760.438 944.167 762.479 942.448 764.198C940.729 765.917 938.688 767.26 936.325 768.227C933.983 769.172 931.427 769.645 928.655 769.645H917.312C914.54 769.645 911.973 769.172 909.609 768.227C907.246 767.26 905.205 765.917 903.486 764.198C901.768 762.479 900.414 760.438 899.426 758.075C898.459 755.712 897.976 753.123 897.976 750.309V741.479C897.976 738.686 898.459 736.107 899.426 733.744C900.414 731.359 901.768 729.318 903.486 727.621C905.205 725.902 907.246 724.56 909.609 723.593C911.973 722.626 914.54 722.143 917.312 722.143H928.655C931.427 722.143 933.983 722.626 936.325 723.593C938.688 724.56 940.729 725.902 942.448 727.621C944.167 729.318 945.51 731.359 946.477 733.744C947.443 736.107 947.927 738.686 947.927 741.479V750.309ZM939.548 741.479C939.548 739.824 939.279 738.331 938.742 736.999C938.227 735.646 937.485 734.496 936.519 733.551C935.573 732.584 934.424 731.843 933.07 731.327C931.738 730.79 930.267 730.521 928.655 730.521H917.312C915.679 730.521 914.186 730.79 912.832 731.327C911.5 731.843 910.351 732.584 909.384 733.551C908.417 734.496 907.665 735.646 907.128 736.999C906.612 738.331 906.354 739.824 906.354 741.479V750.309C906.354 751.963 906.612 753.467 907.128 754.82C907.665 756.152 908.417 757.302 909.384 758.269C910.351 759.214 911.5 759.955 912.832 760.492C914.186 761.008 915.679 761.266 917.312 761.266H928.591C930.224 761.266 931.706 761.008 933.038 760.492C934.392 759.955 935.552 759.214 936.519 758.269C937.485 757.302 938.227 756.152 938.742 754.82C939.279 753.467 939.548 751.963 939.548 750.309V741.479ZM1001.49 764.778C1001.49 765.38 1001.38 765.938 1001.17 766.454C1000.95 766.97 1000.65 767.421 1000.26 767.808C999.876 768.173 999.425 768.463 998.909 768.678C998.394 768.893 997.846 769 997.266 769H978.381C976.598 769 974.793 768.807 972.967 768.42C971.141 768.033 969.368 767.442 967.649 766.647C965.952 765.831 964.352 764.8 962.848 763.554C961.344 762.308 960.022 760.836 958.884 759.139C957.767 757.42 956.886 755.465 956.241 753.273C955.597 751.061 955.274 748.601 955.274 745.894V722.787H963.653V745.894C963.653 748.257 963.976 750.255 964.62 751.888C965.286 753.521 966.124 754.885 967.134 755.98C968.144 757.076 969.25 757.936 970.453 758.559C971.656 759.182 972.795 759.644 973.869 759.944C974.965 760.245 975.921 760.438 976.737 760.524C977.575 760.589 978.123 760.621 978.381 760.621H993.108V722.787H1001.49V764.778ZM1057.43 765.423C1057.43 766.024 1057.31 766.583 1057.08 767.099C1056.86 767.614 1056.56 768.065 1056.18 768.452C1055.81 768.817 1055.37 769.107 1054.85 769.322C1054.34 769.537 1053.79 769.645 1053.21 769.645C1052.7 769.645 1052.17 769.548 1051.63 769.354C1051.12 769.161 1050.65 768.85 1050.25 768.42L1019.63 736.451V769H1011.25V726.364C1011.25 725.505 1011.49 724.731 1011.96 724.044C1012.46 723.335 1013.08 722.809 1013.83 722.465C1014.62 722.143 1015.44 722.067 1016.28 722.239C1017.12 722.39 1017.84 722.776 1018.44 723.399L1049.05 755.336V722.787H1057.43V765.423ZM1113.31 749.664C1113.31 752.479 1112.82 755.067 1111.83 757.431C1110.86 759.794 1109.52 761.835 1107.8 763.554C1106.08 765.251 1104.04 766.583 1101.68 767.55C1099.32 768.517 1096.75 769 1093.98 769H1071.35C1070.75 769 1070.19 768.893 1069.68 768.678C1069.16 768.463 1068.71 768.173 1068.33 767.808C1067.96 767.421 1067.67 766.97 1067.46 766.454C1067.24 765.938 1067.13 765.38 1067.13 764.778V727.009C1067.13 726.429 1067.24 725.881 1067.46 725.365C1067.67 724.85 1067.96 724.398 1068.33 724.012C1068.71 723.625 1069.16 723.324 1069.68 723.109C1070.19 722.895 1070.75 722.787 1071.35 722.787H1093.98C1096.75 722.787 1099.32 723.271 1101.68 724.237C1104.04 725.204 1106.08 726.547 1107.8 728.266C1109.52 729.963 1110.86 732.004 1111.83 734.389C1112.82 736.752 1113.31 739.33 1113.31 742.123V749.664ZM1104.93 742.123C1104.93 740.49 1104.67 738.997 1104.13 737.644C1103.61 736.29 1102.87 735.141 1101.91 734.195C1100.94 733.229 1099.78 732.487 1098.42 731.972C1097.09 731.435 1095.61 731.166 1093.98 731.166H1075.51V760.621H1093.98C1095.61 760.621 1097.09 760.363 1098.42 759.848C1099.78 759.311 1100.94 758.569 1101.91 757.624C1102.87 756.657 1103.61 755.508 1104.13 754.176C1104.67 752.822 1104.93 751.318 1104.93 749.664V742.123Z" fill="#A277FF"/>
</g>
<defs>
<filter id="filter0_dd_2041_4" x="487.52" y="380.827" width="935.672" height="323.173" filterUnits="userSpaceOnUse" color-interpolation-filters="sRGB">
<feFlood flood-opacity="0" result="BackgroundImageFix"/>
<feColorMatrix in="SourceAlpha" type="matrix" values="0 0 0 0 0 0 0 0 0 0 0 0 0 0 0 0 0 0 127 0" result="hardAlpha"/>
<feOffset/>
<feGaussianBlur stdDeviation="12.5"/>
<feComposite in2="hardAlpha" operator="out"/>
<feColorMatrix type="matrix" values="0 0 0 0 0.380392 0 0 0 0 1 0 0 0 0 0.792157 0 0 0 1 0"/>
<feBlend mode="normal" in2="BackgroundImageFix" result="effect1_dropShadow_2041_4"/>
<feColorMatrix in="SourceAlpha" type="matrix" values="0 0 0 0 0 0 0 0 0 0 0 0 0 0 0 0 0 0 127 0" result="hardAlpha"/>
<feOffset dy="4"/>
<feGaussianBlur stdDeviation="2"/>
<feComposite in2="hardAlpha" operator="out"/>
<feColorMatrix type="matrix" values="0 0 0 0 0 0 0 0 0 0 0 0 0 0 0 0 0 0 0.25 0"/>
<feBlend mode="normal" in2="effect1_dropShadow_2041_4" result="effect2_dropShadow_2041_4"/>
<feBlend mode="normal" in="SourceGraphic" in2="effect2_dropShadow_2041_4" result="shape"/>
</filter>
<filter id="filter1_d_2041_4" x="436.072" y="711.981" width="717.241" height="87.6631" filterUnits="userSpaceOnUse" color-interpolation-filters="sRGB">
<feFlood flood-opacity="0" result="BackgroundImageFix"/>
<feColorMatrix in="SourceAlpha" type="matrix" values="0 0 0 0 0 0 0 0 0 0 0 0 0 0 0 0 0 0 127 0" result="hardAlpha"/>
<feOffset dx="20" dy="10"/>
<feGaussianBlur stdDeviation="10"/>
<feComposite in2="hardAlpha" operator="out"/>
<feColorMatrix type="matrix" values="0 0 0 0 0 0 0 0 0 0 0 0 0 0 0 0 0 0 0.55 0"/>
<feBlend mode="normal" in2="BackgroundImageFix" result="effect1_dropShadow_2041_4"/>
<feBlend mode="normal" in="SourceGraphic" in2="effect1_dropShadow_2041_4" result="shape"/>
</filter>
</defs>
</svg>
