<svg width="1920" height="1080" viewBox="0 0 1920 1080" fill="none" xmlns="http://www.w3.org/2000/svg">
<g filter="url(#filter0_dd_2041_4)">
<mask id="path-1-outside-1_2041_4" maskUnits="userSpaceOnUse" x="516" y="405" width="891" height="274" fill="black">
<rect fill="white" x="516" y="405" width="891" height="274"/>
<path d="M762.572 673H714.854V566.272H546.567C543.168 566.272 540.011 565.665 537.097 564.451C534.183 563.116 531.633 561.416 529.447 559.352C527.383 557.166 525.744 554.616 524.53 551.702C523.316 548.788 522.708 545.692 522.708 542.414V411.827H570.062V518.555H714.854V411.827H762.572V673ZM1116.27 563.723C1116.27 574.408 1114.87 584.546 1112.08 594.138C1109.41 603.609 1105.58 612.412 1100.6 620.547C1095.63 628.682 1089.74 635.967 1082.94 642.402C1076.14 648.838 1068.67 654.362 1060.54 658.976C1052.52 663.469 1043.96 666.929 1034.85 669.357C1025.75 671.786 1016.46 673 1006.99 673H921.571C911.979 673 902.629 671.786 893.523 669.357C884.417 666.929 875.796 663.469 867.661 658.976C859.647 654.362 852.24 648.838 845.441 642.402C838.641 635.967 832.753 628.682 827.774 620.547C822.918 612.412 819.093 603.609 816.3 594.138C813.629 584.546 812.293 574.408 812.293 563.723V521.104C812.293 505.077 815.268 490.385 821.218 477.029C827.289 463.673 835.363 452.199 845.441 442.607C855.519 432.893 867.114 425.365 880.228 420.023C893.462 414.559 907.243 411.827 921.571 411.827H1006.99C1016.46 411.827 1025.75 413.041 1034.85 415.47C1043.96 417.898 1052.52 421.419 1060.54 426.033C1068.67 430.526 1076.14 435.99 1082.94 442.425C1089.74 448.86 1095.63 456.145 1100.6 464.28C1105.58 472.415 1109.41 481.279 1112.08 490.871C1114.87 500.342 1116.27 510.42 1116.27 521.104V563.723ZM1068.55 521.104C1068.55 511.755 1066.85 503.256 1063.45 495.606C1060.05 487.957 1055.5 481.4 1049.79 475.937C1044.2 470.473 1037.71 466.284 1030.3 463.37C1022.9 460.456 1015.12 459.059 1006.99 459.181H921.571C913.679 459.059 905.968 460.456 898.44 463.37C891.034 466.162 884.417 470.291 878.588 475.754C872.882 481.097 868.268 487.653 864.747 495.424C861.347 503.074 859.647 511.634 859.647 521.104V563.723C859.647 573.193 861.347 581.753 864.747 589.403C868.146 597.052 872.7 603.609 878.406 609.073C884.113 614.415 890.67 618.543 898.076 621.458C905.604 624.372 913.436 625.768 921.571 625.646H1006.99C1016.34 625.646 1024.78 624.129 1032.31 621.093C1039.95 617.936 1046.45 613.626 1051.79 608.162C1057.14 602.698 1061.26 596.202 1064.18 588.674C1067.09 581.025 1068.55 572.708 1068.55 563.723V521.104ZM1047.97 486.5C1049.79 489.171 1051 492.085 1051.61 495.242C1052.22 498.278 1052.22 501.313 1051.61 504.349C1051 507.263 1049.79 510.055 1047.97 512.727C1046.27 515.276 1044.02 517.462 1041.23 519.283L913.375 604.702C911.311 606.28 909.186 607.373 907 607.98C904.815 608.587 902.569 608.891 900.262 608.891C896.376 608.891 892.673 607.98 889.152 606.159C885.631 604.337 882.777 601.727 880.592 598.327C878.771 595.656 877.556 592.803 876.949 589.767C876.342 586.61 876.281 583.575 876.767 580.661C877.374 577.625 878.528 574.833 880.228 572.283C881.927 569.611 884.174 567.365 886.966 565.544L1015.19 480.125C1017.86 478.304 1020.71 477.09 1023.75 476.483C1026.9 475.876 1029.94 475.876 1032.85 476.483C1035.89 477.09 1038.68 478.243 1041.23 479.943C1043.9 481.643 1046.15 483.829 1047.97 486.5ZM1400.02 606.523C1400.02 611.015 1399.48 615.751 1398.38 620.729C1397.41 625.707 1395.77 630.685 1393.47 635.664C1391.28 640.52 1388.43 645.195 1384.91 649.688C1381.51 654.18 1377.32 658.187 1372.34 661.708C1367.48 665.108 1361.84 667.84 1355.4 669.904C1348.97 671.968 1341.74 673 1333.73 673H1160.16V625.646H1333.73C1339.68 625.646 1344.23 623.825 1347.39 620.183C1350.67 616.54 1352.31 611.987 1352.31 606.523V585.396C1352.31 579.204 1350.73 574.468 1347.57 571.19C1344.41 567.912 1339.68 566.272 1333.36 566.272H1226.64C1214.37 566.272 1203.99 564.087 1195.49 559.716C1187.11 555.223 1180.32 549.638 1175.09 542.96C1169.87 536.282 1166.05 529.057 1163.62 521.287C1161.31 513.516 1160.16 506.291 1160.16 499.613V411.827H1378.35V459.181H1207.51V499.613C1207.51 505.927 1209.15 510.662 1212.43 513.819C1215.71 516.976 1220.44 518.555 1226.64 518.555H1333.73C1340.29 518.555 1347.45 519.769 1355.22 522.197C1362.99 524.504 1370.15 528.329 1376.71 533.671C1383.39 538.892 1388.91 545.753 1393.28 554.252C1397.78 562.751 1400.02 573.133 1400.02 585.396V606.523Z"/>
</mask>
<path d="M762.572 673V679H768.572V673H762.572ZM714.854 673H708.854V679H714.854V673ZM714.854 566.272H720.854V560.272H714.854V566.272ZM537.097 564.451L534.597 569.906L534.692 569.949L534.789 569.99L537.097 564.451ZM529.447 559.352L525.085 563.471L525.203 563.596L525.328 563.714L529.447 559.352ZM522.708 411.827V405.827H516.708V411.827H522.708ZM570.062 411.827H576.062V405.827H570.062V411.827ZM570.062 518.555H564.062V524.555H570.062V518.555ZM714.854 518.555V524.555H720.854V518.555H714.854ZM714.854 411.827V405.827H708.854V411.827H714.854ZM762.572 411.827H768.572V405.827H762.572V411.827ZM762.572 667H714.854V679H762.572V667ZM720.854 673V566.272H708.854V673H720.854ZM714.854 560.272H546.567V572.272H714.854V560.272ZM546.567 560.272C543.898 560.272 541.532 559.799 539.404 558.913L534.789 569.99C538.489 571.531 542.437 572.272 546.567 572.272V560.272ZM539.597 558.997C537.239 557.916 535.245 556.574 533.567 554.989L525.328 563.714C528.02 566.257 531.126 568.315 534.597 569.906L539.597 558.997ZM533.809 555.232C532.268 553.6 531.017 551.672 530.068 549.394L518.991 554.01C520.471 557.56 522.498 560.732 525.085 563.471L533.809 555.232ZM530.068 549.394C529.17 547.24 528.708 544.931 528.708 542.414H516.708C516.708 546.453 517.461 550.336 518.991 554.01L530.068 549.394ZM528.708 542.414V411.827H516.708V542.414H528.708ZM522.708 417.827H570.062V405.827H522.708V417.827ZM564.062 411.827V518.555H576.062V411.827H564.062ZM570.062 524.555H714.854V512.555H570.062V524.555ZM720.854 518.555V411.827H708.854V518.555H720.854ZM714.854 417.827H762.572V405.827H714.854V417.827ZM756.572 411.827V673H768.572V411.827H756.572ZM1112.08 594.138L1106.32 592.461L1106.31 592.485L1106.3 592.509L1112.08 594.138ZM1060.54 658.976L1063.47 664.21L1063.48 664.202L1063.5 664.195L1060.54 658.976ZM867.661 658.976L864.667 664.176L864.713 664.203L864.76 664.228L867.661 658.976ZM845.441 642.402L841.317 646.76L845.441 642.402ZM827.774 620.547L822.623 623.623L822.639 623.651L822.657 623.679L827.774 620.547ZM816.3 594.138L810.52 595.748L810.532 595.792L810.545 595.835L816.3 594.138ZM821.218 477.029L815.756 474.546L815.746 474.567L815.737 474.588L821.218 477.029ZM845.441 442.607L849.578 446.953L849.591 446.94L849.605 446.927L845.441 442.607ZM880.228 420.023L882.491 425.58L882.504 425.574L882.517 425.569L880.228 420.023ZM1034.85 415.47L1036.4 409.672L1036.4 409.672L1034.85 415.47ZM1060.54 426.033L1057.54 431.233L1057.59 431.26L1057.63 431.286L1060.54 426.033ZM1112.08 490.871L1106.3 492.481L1106.31 492.525L1106.32 492.568L1112.08 490.871ZM1049.79 475.937L1045.59 480.226L1045.62 480.248L1045.64 480.27L1049.79 475.937ZM1006.99 459.181V465.181H1007.03L1007.08 465.18L1006.99 459.181ZM921.571 459.181L921.479 465.18L921.525 465.181H921.571V459.181ZM898.44 463.37L900.557 468.984L900.582 468.975L900.606 468.965L898.44 463.37ZM878.588 475.754L882.689 480.135L882.692 480.132L878.588 475.754ZM864.747 495.424L859.281 492.948L859.273 492.968L859.264 492.987L864.747 495.424ZM878.406 609.073L874.257 613.407L874.281 613.43L874.306 613.453L878.406 609.073ZM898.076 621.458L895.879 627.041L895.895 627.047L895.91 627.053L898.076 621.458ZM921.571 625.646V619.646H921.526L921.481 619.647L921.571 625.646ZM1032.31 621.093L1034.55 626.658L1034.57 626.649L1034.59 626.64L1032.31 621.093ZM1051.79 608.162L1056.08 612.357L1051.79 608.162ZM1064.18 588.674L1069.77 590.84L1069.78 590.825L1069.78 590.81L1064.18 588.674ZM1047.97 486.5L1043.01 489.88L1047.97 486.5ZM1051.61 495.242L1045.72 496.375L1045.72 496.397L1045.73 496.419L1051.61 495.242ZM1051.61 504.349L1057.48 505.572L1057.49 505.549L1057.49 505.525L1051.61 504.349ZM1047.97 512.727L1043.01 509.347L1042.99 509.372L1042.98 509.398L1047.97 512.727ZM1041.23 519.283L1037.95 514.258L1037.92 514.276L1037.9 514.294L1041.23 519.283ZM913.375 604.702L910.042 599.713L909.883 599.819L909.73 599.936L913.375 604.702ZM880.592 598.327L885.639 595.083L885.595 595.014L885.549 594.947L880.592 598.327ZM876.949 589.767L871.057 590.9L871.061 590.922L871.066 590.944L876.949 589.767ZM876.767 580.661L870.884 579.484L870.865 579.579L870.849 579.674L876.767 580.661ZM880.228 572.283L885.22 575.611L885.255 575.558L885.29 575.504L880.228 572.283ZM886.966 565.544L890.244 570.57L890.268 570.554L890.293 570.537L886.966 565.544ZM1015.19 480.125L1018.51 485.119L1018.54 485.101L1018.57 485.083L1015.19 480.125ZM1023.75 476.483L1022.61 470.591L1022.59 470.595L1022.57 470.599L1023.75 476.483ZM1032.85 476.483L1031.63 482.357L1031.65 482.362L1031.67 482.366L1032.85 476.483ZM1041.23 479.943L1037.9 484.936L1037.95 484.971L1038.01 485.005L1041.23 479.943ZM1110.27 563.723C1110.27 573.879 1108.94 583.45 1106.32 592.461L1117.84 595.815C1120.8 585.642 1122.27 574.936 1122.27 563.723H1110.27ZM1106.3 592.509C1103.78 601.468 1100.17 609.763 1095.49 617.415L1105.72 623.679C1111 615.06 1115.04 605.749 1117.85 595.767L1106.3 592.509ZM1095.49 617.415C1090.78 625.108 1085.22 631.979 1078.81 638.045L1087.06 646.76C1094.25 639.955 1100.47 632.256 1105.72 623.679L1095.49 617.415ZM1078.81 638.045C1072.36 644.147 1065.29 649.382 1057.58 653.757L1063.5 664.195C1072.05 659.342 1079.91 653.528 1087.06 646.76L1078.81 638.045ZM1057.6 653.742C1050.04 657.983 1041.94 661.257 1033.31 663.56L1036.4 675.155C1045.98 672.601 1055.01 668.954 1063.47 664.21L1057.6 653.742ZM1033.31 663.56C1024.71 665.853 1015.94 667 1006.99 667V679C1016.98 679 1026.79 677.718 1036.4 675.155L1033.31 663.56ZM1006.99 667H921.571V679H1006.99V667ZM921.571 667C912.491 667 903.662 665.852 895.069 663.56L891.977 675.155C901.597 677.72 911.466 679 921.571 679V667ZM895.069 663.56C886.428 661.256 878.263 657.977 870.561 653.724L864.76 664.228C873.329 668.96 882.405 672.602 891.977 675.155L895.069 663.56ZM870.654 653.776C863.054 649.401 856.027 644.16 849.565 638.045L841.317 646.76C848.454 653.515 856.239 659.324 864.667 664.176L870.654 653.776ZM849.565 638.045C843.157 631.979 837.6 625.108 832.892 617.415L822.657 623.679C827.905 632.256 834.126 639.955 841.317 646.76L849.565 638.045ZM832.926 617.471C828.338 609.786 824.712 601.449 822.055 592.441L810.545 595.835C813.474 605.769 817.497 615.037 822.623 623.623L832.926 617.471ZM822.08 592.529C819.565 583.497 818.293 573.903 818.293 563.723H806.293C806.293 574.912 807.693 585.595 810.52 595.748L822.08 592.529ZM818.293 563.723V521.104H806.293V563.723H818.293ZM818.293 521.104C818.293 505.837 821.123 491.987 826.699 479.471L815.737 474.588C809.413 488.784 806.293 504.318 806.293 521.104H818.293ZM826.68 479.512C832.45 466.818 840.087 455.986 849.578 446.953L841.304 438.261C830.639 448.412 822.127 460.529 815.756 474.546L826.68 479.512ZM849.605 446.927C859.127 437.749 870.076 430.638 882.491 425.58L877.964 414.466C864.153 420.093 851.91 428.038 841.277 438.287L849.605 446.927ZM882.517 425.569C895.025 420.405 908.028 417.827 921.571 417.827V405.827C906.458 405.827 891.899 408.713 877.938 414.477L882.517 425.569ZM921.571 417.827H1006.99V405.827H921.571V417.827ZM1006.99 417.827C1015.94 417.827 1024.71 418.974 1033.31 421.267L1036.4 409.672C1026.79 407.109 1016.98 405.827 1006.99 405.827V417.827ZM1033.31 421.267C1041.92 423.563 1049.99 426.886 1057.54 431.233L1063.53 420.833C1055.05 415.953 1046 412.233 1036.4 409.672L1033.31 421.267ZM1057.63 431.286C1065.32 435.531 1072.38 440.693 1078.81 446.783L1087.06 438.067C1079.9 431.286 1072.02 425.52 1063.44 420.781L1057.63 431.286ZM1078.81 446.783C1085.22 452.848 1090.78 459.719 1095.49 467.412L1105.72 461.148C1100.47 452.571 1094.25 444.872 1087.06 438.067L1078.81 446.783ZM1095.49 467.412C1100.16 475.052 1103.77 483.401 1106.3 492.481L1117.86 489.261C1115.04 479.157 1111 469.778 1105.72 461.148L1095.49 467.412ZM1106.32 492.568C1108.94 501.444 1110.27 510.947 1110.27 521.104H1122.27C1122.27 509.892 1120.8 499.239 1117.83 489.174L1106.32 492.568ZM1110.27 521.104V563.723H1122.27V521.104H1110.27ZM1074.55 521.104C1074.55 511.014 1072.71 501.671 1068.93 493.17L1057.97 498.043C1060.99 504.84 1062.55 512.496 1062.55 521.104H1074.55ZM1068.93 493.17C1065.23 484.85 1060.24 477.638 1053.94 471.603L1045.64 480.27C1050.75 485.163 1054.86 491.064 1057.97 498.043L1068.93 493.17ZM1053.99 471.648C1047.82 465.612 1040.64 460.988 1032.5 457.786L1028.11 468.953C1034.78 471.579 1040.59 475.333 1045.59 480.226L1053.99 471.648ZM1032.5 457.786C1024.35 454.579 1015.8 453.049 1006.9 453.181L1007.08 465.18C1014.45 465.07 1021.44 466.332 1028.11 468.953L1032.5 457.786ZM1006.99 453.181H921.571V465.181H1006.99V453.181ZM921.663 453.181C912.981 453.048 904.506 454.588 896.274 457.774L900.606 468.965C907.431 466.323 914.376 465.071 921.479 465.18L921.663 453.181ZM896.324 457.755C888.173 460.829 880.882 465.38 874.485 471.377L882.692 480.132C887.951 475.201 893.895 471.496 900.557 468.984L896.324 457.755ZM874.488 471.374C868.155 477.303 863.098 484.525 859.281 492.948L870.212 497.901C873.437 490.782 877.608 484.891 882.689 480.135L874.488 471.374ZM859.264 492.987C855.481 501.499 853.647 510.905 853.647 521.104H865.647C865.647 512.363 867.213 504.649 870.229 497.861L859.264 492.987ZM853.647 521.104V563.723H865.647V521.104H853.647ZM853.647 563.723C853.647 573.923 855.481 583.328 859.264 591.84L870.229 586.966C867.213 580.178 865.647 572.464 865.647 563.723H853.647ZM859.264 591.84C862.961 600.159 867.953 607.371 874.257 613.407L882.556 604.739C877.446 599.846 873.331 593.945 870.229 586.966L859.264 591.84ZM874.306 613.453C880.576 619.323 887.781 623.855 895.879 627.041L900.273 615.874C893.558 613.232 887.65 609.508 882.507 604.693L874.306 613.453ZM895.91 627.053C904.163 630.248 912.761 631.779 921.66 631.646L921.481 619.647C914.111 619.757 907.045 618.496 900.242 615.862L895.91 627.053ZM921.571 631.646H1006.99V619.646H921.571V631.646ZM1006.99 631.646C1016.99 631.646 1026.21 630.021 1034.55 626.658L1030.06 615.529C1023.35 618.236 1015.69 619.646 1006.99 619.646V631.646ZM1034.59 626.64C1042.93 623.198 1050.13 618.449 1056.08 612.357L1047.5 603.967C1042.77 608.803 1036.98 612.674 1030.02 615.547L1034.59 626.64ZM1056.08 612.357C1062.03 606.28 1066.58 599.083 1069.77 590.84L1058.58 586.508C1055.94 593.322 1052.25 599.117 1047.5 603.967L1056.08 612.357ZM1069.78 590.81C1072.98 582.415 1074.55 573.366 1074.55 563.723H1062.55C1062.55 572.049 1061.2 579.635 1058.57 586.538L1069.78 590.81ZM1074.55 563.723V521.104H1062.55V563.723H1074.55ZM1043.01 489.88C1044.37 491.878 1045.27 494.028 1045.72 496.375L1057.5 494.109C1056.74 490.143 1055.21 486.464 1052.93 483.12L1043.01 489.88ZM1045.73 496.419C1046.18 498.678 1046.18 500.913 1045.73 503.172L1057.49 505.525C1058.26 501.713 1058.26 497.878 1057.49 494.065L1045.73 496.419ZM1045.74 503.125C1045.3 505.203 1044.43 507.27 1043.01 509.347L1052.93 516.107C1055.15 512.84 1056.7 509.323 1057.48 505.572L1045.74 503.125ZM1042.98 509.398C1041.77 511.215 1040.12 512.841 1037.95 514.258L1044.51 524.309C1047.92 522.083 1050.77 519.338 1052.96 516.055L1042.98 509.398ZM1037.9 514.294L910.042 599.713L916.708 609.691L1044.56 524.272L1037.9 514.294ZM909.73 599.936C908.187 601.116 906.743 601.824 905.395 602.199L908.606 613.761C911.63 612.921 914.435 611.445 917.02 609.468L909.73 599.936ZM905.395 602.199C903.741 602.658 902.035 602.891 900.262 602.891V614.891C903.102 614.891 905.889 614.516 908.606 613.761L905.395 602.199ZM900.262 602.891C897.356 602.891 894.596 602.219 891.908 600.829L886.395 611.488C890.751 613.741 895.397 614.891 900.262 614.891V602.891ZM891.908 600.829C889.339 599.5 887.268 597.617 885.639 595.083L875.545 601.572C878.287 605.837 881.922 609.174 886.395 611.488L891.908 600.829ZM885.549 594.947C884.161 592.911 883.275 590.802 882.833 588.59L871.066 590.944C871.838 594.803 873.38 598.401 875.634 601.707L885.549 594.947ZM882.841 588.634C882.357 586.115 882.327 583.799 882.685 581.647L870.849 579.674C870.236 583.35 870.327 587.106 871.057 590.9L882.841 588.634ZM882.651 581.837C883.106 579.562 883.959 577.502 885.22 575.611L875.235 568.955C873.096 572.163 871.643 575.688 870.884 579.484L882.651 581.837ZM885.29 575.504C886.506 573.593 888.129 571.949 890.244 570.57L883.689 560.518C880.218 562.782 877.349 565.63 875.166 569.061L885.29 575.504ZM890.293 570.537L1018.51 485.119L1011.86 475.132L883.64 560.551L890.293 570.537ZM1018.57 485.083C1020.6 483.694 1022.71 482.809 1024.92 482.366L1022.57 470.599C1018.71 471.371 1015.11 472.914 1011.81 475.168L1018.57 485.083ZM1024.88 482.375C1027.32 481.906 1029.55 481.924 1031.63 482.357L1034.08 470.609C1030.32 469.828 1026.49 469.846 1022.61 470.591L1024.88 482.375ZM1031.67 482.366C1033.95 482.821 1036.01 483.675 1037.9 484.936L1044.56 474.951C1041.35 472.812 1037.82 471.359 1034.03 470.599L1031.67 482.366ZM1038.01 485.005C1039.98 486.259 1041.64 487.867 1043.01 489.88L1052.93 483.12C1050.66 479.791 1047.82 477.028 1044.45 474.881L1038.01 485.005ZM1398.38 620.729L1392.52 619.443L1392.51 619.511L1392.5 619.58L1398.38 620.729ZM1393.47 635.664L1388.02 633.141L1388.01 633.171L1388 633.201L1393.47 635.664ZM1384.91 649.688L1380.18 645.986L1380.15 646.026L1380.12 646.067L1384.91 649.688ZM1372.34 661.708L1375.78 666.623L1375.79 666.615L1375.8 666.607L1372.34 661.708ZM1160.16 673H1154.16V679H1160.16V673ZM1160.16 625.646V619.646H1154.16V625.646H1160.16ZM1347.39 620.183L1342.93 616.169L1342.89 616.211L1342.85 616.253L1347.39 620.183ZM1195.49 559.716L1192.66 565.004L1192.7 565.028L1192.75 565.052L1195.49 559.716ZM1175.09 542.96L1179.82 539.264L1175.09 542.96ZM1163.62 521.287L1157.87 522.994L1157.88 523.035L1157.89 523.076L1163.62 521.287ZM1160.16 411.827V405.827H1154.16V411.827H1160.16ZM1378.35 411.827H1384.35V405.827H1378.35V411.827ZM1378.35 459.181V465.181H1384.35V459.181H1378.35ZM1207.51 459.181V453.181H1201.51V459.181H1207.51ZM1355.22 522.197L1353.43 527.924L1353.47 527.937L1353.51 527.949L1355.22 522.197ZM1376.71 533.671L1372.92 538.323L1372.97 538.361L1373.02 538.398L1376.71 533.671ZM1393.28 554.252L1387.95 556.996L1387.96 557.026L1387.98 557.056L1393.28 554.252ZM1394.02 606.523C1394.02 610.53 1393.54 614.831 1392.52 619.443L1404.24 622.015C1405.42 616.67 1406.02 611.501 1406.02 606.523H1394.02ZM1392.5 619.58C1391.62 624.047 1390.14 628.565 1388.02 633.141L1398.91 638.186C1401.4 632.805 1403.2 627.367 1404.27 621.878L1392.5 619.58ZM1388 633.201C1386.02 637.586 1383.43 641.848 1380.18 645.986L1389.63 653.389C1393.43 648.542 1396.54 643.455 1398.94 638.126L1388 633.201ZM1380.12 646.067C1377.12 650.029 1373.39 653.615 1368.88 656.81L1375.8 666.607C1381.24 662.759 1385.89 658.331 1389.69 653.308L1380.12 646.067ZM1368.9 656.793C1364.6 659.803 1359.51 662.285 1353.57 664.191L1357.23 675.617C1364.16 673.394 1370.37 670.413 1375.78 666.623L1368.9 656.793ZM1353.57 664.191C1347.82 666.033 1341.23 667 1333.73 667V679C1342.25 679 1350.11 677.903 1357.23 675.617L1353.57 664.191ZM1333.73 667H1160.16V679H1333.73V667ZM1166.16 673V625.646H1154.16V673H1166.16ZM1160.16 631.646H1333.73V619.646H1160.16V631.646ZM1333.73 631.646C1340.98 631.646 1347.36 629.371 1351.92 624.112L1342.85 616.253C1341.1 618.279 1338.38 619.646 1333.73 619.646V631.646ZM1351.85 624.196C1356.23 619.323 1358.31 613.286 1358.31 606.523H1346.31C1346.31 610.688 1345.1 613.757 1342.93 616.169L1351.85 624.196ZM1358.31 606.523V585.396H1346.31V606.523H1358.31ZM1358.31 585.396C1358.31 578.222 1356.47 571.777 1351.89 567.028L1343.25 575.352C1344.99 577.159 1346.31 580.185 1346.31 585.396H1358.31ZM1351.89 567.028C1347.22 562.179 1340.66 560.272 1333.36 560.272V572.272C1338.69 572.272 1341.6 573.644 1343.25 575.352L1351.89 567.028ZM1333.36 560.272H1226.64V572.272H1333.36V560.272ZM1226.64 560.272C1215.07 560.272 1205.68 558.209 1198.24 554.38L1192.75 565.052C1202.3 569.965 1213.68 572.272 1226.64 572.272V560.272ZM1198.33 554.428C1190.6 550.281 1184.47 545.211 1179.82 539.264L1170.37 546.655C1176.16 554.065 1183.63 560.165 1192.66 565.004L1198.33 554.428ZM1179.82 539.264C1175.03 533.132 1171.55 526.549 1169.35 519.497L1157.89 523.076C1160.55 531.566 1164.72 539.431 1170.37 546.655L1179.82 539.264ZM1169.37 519.579C1167.2 512.248 1166.16 505.605 1166.16 499.613H1154.16C1154.16 506.977 1155.43 514.783 1157.87 522.994L1169.37 519.579ZM1166.16 499.613V411.827H1154.16V499.613H1166.16ZM1160.16 417.827H1378.35V405.827H1160.16V417.827ZM1372.35 411.827V459.181H1384.35V411.827H1372.35ZM1378.35 453.181H1207.51V465.181H1378.35V453.181ZM1201.51 459.181V499.613H1213.51V459.181H1201.51ZM1201.51 499.613C1201.51 506.911 1203.42 513.472 1208.27 518.141L1216.59 509.497C1214.88 507.853 1213.51 504.943 1213.51 499.613H1201.51ZM1208.27 518.141C1213.02 522.715 1219.46 524.555 1226.64 524.555V512.555C1221.43 512.555 1218.4 511.238 1216.59 509.497L1208.27 518.141ZM1226.64 524.555H1333.73V512.555H1226.64V524.555ZM1333.73 524.555C1339.55 524.555 1346.1 525.635 1353.43 527.924L1357.01 516.47C1348.79 513.903 1341.02 512.555 1333.73 512.555V524.555ZM1353.51 527.949C1360.49 530.021 1366.95 533.459 1372.92 538.323L1380.5 529.02C1373.36 523.199 1365.49 518.988 1356.93 516.445L1353.51 527.949ZM1373.02 538.398C1378.93 543.02 1383.92 549.17 1387.95 556.996L1398.62 551.508C1393.9 542.335 1387.85 534.764 1380.41 528.945L1373.02 538.398ZM1387.98 557.056C1391.91 564.486 1394.02 573.847 1394.02 585.396H1406.02C1406.02 572.418 1403.65 561.017 1398.59 551.448L1387.98 557.056ZM1394.02 585.396V606.523H1406.02V585.396H1394.02Z" fill="#61FFCA" mask="url(#path-1-outside-1_2041_4)"/>
</g>
<g filter="url(#filter1_d_2041_4)">
<path d="M378.032 769H369.589V741.479L354.732 767.614C354.367 768.28 353.852 768.785 353.186 769.129C352.541 769.473 351.843 769.645 351.091 769.645C350.36 769.645 349.673 769.473 349.028 769.129C348.405 768.785 347.911 768.28 347.546 767.614L332.625 741.479V769H324.246V726.364C324.246 725.397 324.525 724.538 325.084 723.786C325.664 723.034 326.416 722.529 327.34 722.271C327.791 722.164 328.242 722.132 328.693 722.175C329.145 722.196 329.574 722.293 329.982 722.465C330.412 722.615 330.799 722.841 331.143 723.142C331.486 723.421 331.776 723.765 332.013 724.173L351.091 757.334L370.169 724.173C370.663 723.356 371.34 722.776 372.199 722.433C373.08 722.089 373.993 722.035 374.938 722.271C375.841 722.529 376.582 723.034 377.162 723.786C377.742 724.538 378.032 725.397 378.032 726.364V769ZM425.792 750.115H399.334V741.672H425.792V750.115ZM429.562 769H399.334C398.174 769 396.906 768.796 395.531 768.388C394.156 767.979 392.878 767.313 391.696 766.39C390.536 765.444 389.559 764.23 388.764 762.748C387.99 761.244 387.604 759.407 387.604 757.237V727.009C387.604 726.429 387.711 725.881 387.926 725.365C388.141 724.85 388.431 724.398 388.796 724.012C389.183 723.625 389.634 723.324 390.149 723.109C390.665 722.895 391.224 722.787 391.825 722.787H429.562V731.166H395.982V757.237C395.982 758.333 396.272 759.171 396.853 759.751C397.433 760.331 398.281 760.621 399.398 760.621H429.562V769ZM479.449 731.166H460.983V769H452.604V731.166H434.106V722.787H479.449V731.166ZM494.08 741.672H523.503V722.787H531.882V769H523.503V750.115H494.08V769H485.701V722.787H494.08V741.672ZM590.212 750.309C590.212 753.123 589.729 755.712 588.762 758.075C587.795 760.438 586.452 762.479 584.733 764.198C583.015 765.917 580.974 767.26 578.61 768.227C576.269 769.172 573.712 769.645 570.94 769.645H559.597C556.825 769.645 554.258 769.172 551.895 768.227C549.531 767.26 547.49 765.917 545.771 764.198C544.053 762.479 542.699 760.438 541.711 758.075C540.744 755.712 540.261 753.123 540.261 750.309V741.479C540.261 738.686 540.744 736.107 541.711 733.744C542.699 731.359 544.053 729.318 545.771 727.621C547.49 725.902 549.531 724.56 551.895 723.593C554.258 722.626 556.825 722.143 559.597 722.143H570.94C573.712 722.143 576.269 722.626 578.61 723.593C580.974 724.56 583.015 725.902 584.733 727.621C586.452 729.318 587.795 731.359 588.762 733.744C589.729 736.107 590.212 738.686 590.212 741.479V750.309ZM581.833 741.479C581.833 739.824 581.564 738.331 581.027 736.999C580.512 735.646 579.771 734.496 578.804 733.551C577.858 732.584 576.709 731.843 575.355 731.327C574.023 730.79 572.552 730.521 570.94 730.521H559.597C557.964 730.521 556.471 730.79 555.117 731.327C553.785 731.843 552.636 732.584 551.669 733.551C550.702 734.496 549.95 735.646 549.413 736.999C548.897 738.331 548.64 739.824 548.64 741.479V750.309C548.64 751.963 548.897 753.467 549.413 754.82C549.95 756.152 550.702 757.302 551.669 758.269C552.636 759.214 553.785 759.955 555.117 760.492C556.471 761.008 557.964 761.266 559.597 761.266H570.876C572.509 761.266 573.991 761.008 575.323 760.492C576.677 759.955 577.837 759.214 578.804 758.269C579.771 757.302 580.512 756.152 581.027 754.82C581.564 753.467 581.833 751.963 581.833 750.309V741.479ZM644.61 749.664C644.61 752.479 644.116 755.067 643.128 757.431C642.161 759.794 640.818 761.835 639.1 763.554C637.381 765.251 635.34 766.583 632.977 767.55C630.613 768.517 628.046 769 625.274 769H602.651C602.05 769 601.491 768.893 600.976 768.678C600.46 768.463 600.009 768.173 599.622 767.808C599.257 767.421 598.967 766.97 598.752 766.454C598.537 765.938 598.43 765.38 598.43 764.778V727.009C598.43 726.429 598.537 725.881 598.752 725.365C598.967 724.85 599.257 724.398 599.622 724.012C600.009 723.625 600.46 723.324 600.976 723.109C601.491 722.895 602.05 722.787 602.651 722.787H625.274C628.046 722.787 630.613 723.271 632.977 724.237C635.34 725.204 637.381 726.547 639.1 728.266C640.818 729.963 642.161 732.004 643.128 734.389C644.116 736.752 644.61 739.33 644.61 742.123V749.664ZM636.231 742.123C636.231 740.49 635.963 738.997 635.426 737.644C634.91 736.29 634.169 735.141 633.202 734.195C632.235 733.229 631.075 732.487 629.722 731.972C628.39 731.435 626.907 731.166 625.274 731.166H606.809V760.621H625.274C626.907 760.621 628.39 760.363 629.722 759.848C631.075 759.311 632.235 758.569 633.202 757.624C634.169 756.657 634.91 755.508 635.426 754.176C635.963 752.822 636.231 751.318 636.231 749.664V742.123ZM720.472 765.423C720.472 766.024 720.354 766.583 720.117 767.099C719.902 767.614 719.602 768.065 719.215 768.452C718.85 768.817 718.409 769.107 717.894 769.322C717.378 769.537 716.83 769.645 716.25 769.645C715.734 769.645 715.208 769.548 714.671 769.354C714.155 769.161 713.693 768.85 713.285 768.42L682.67 736.451V769H674.291V726.364C674.291 725.505 674.527 724.731 675 724.044C675.494 723.335 676.117 722.809 676.869 722.465C677.664 722.143 678.48 722.067 679.318 722.239C680.156 722.39 680.876 722.776 681.478 723.399L712.093 755.336V722.787H720.472V765.423ZM778.737 750.309C778.737 753.123 778.254 755.712 777.287 758.075C776.32 760.438 774.978 762.479 773.259 764.198C771.54 765.917 769.499 767.26 767.136 768.227C764.794 769.172 762.237 769.645 759.466 769.645H748.122C745.351 769.645 742.783 769.172 740.42 768.227C738.057 767.26 736.016 765.917 734.297 764.198C732.578 762.479 731.225 760.438 730.236 758.075C729.27 755.712 728.786 753.123 728.786 750.309V741.479C728.786 738.686 729.27 736.107 730.236 733.744C731.225 731.359 732.578 729.318 734.297 727.621C736.016 725.902 738.057 724.56 740.42 723.593C742.783 722.626 745.351 722.143 748.122 722.143H759.466C762.237 722.143 764.794 722.626 767.136 723.593C769.499 724.56 771.54 725.902 773.259 727.621C774.978 729.318 776.32 731.359 777.287 733.744C778.254 736.107 778.737 738.686 778.737 741.479V750.309ZM770.358 741.479C770.358 739.824 770.09 738.331 769.553 736.999C769.037 735.646 768.296 734.496 767.329 733.551C766.384 732.584 765.234 731.843 763.881 731.327C762.549 730.79 761.077 730.521 759.466 730.521H748.122C746.489 730.521 744.996 730.79 743.643 731.327C742.311 731.843 741.161 732.584 740.194 733.551C739.228 734.496 738.476 735.646 737.938 736.999C737.423 738.331 737.165 739.824 737.165 741.479V750.309C737.165 751.963 737.423 753.467 737.938 754.82C738.476 756.152 739.228 757.302 740.194 758.269C741.161 759.214 742.311 759.955 743.643 760.492C744.996 761.008 746.489 761.266 748.122 761.266H759.401C761.034 761.266 762.517 761.008 763.849 760.492C765.202 759.955 766.362 759.214 767.329 758.269C768.296 757.302 769.037 756.152 769.553 754.82C770.09 753.467 770.358 751.963 770.358 750.309V741.479ZM828.141 731.166H809.675V769H801.296V731.166H782.798V722.787H828.141V731.166ZM900.425 769H892.046V757.656H862.591V769H854.212V745.894C854.212 742.521 854.792 739.416 855.952 736.58C857.112 733.744 858.724 731.306 860.786 729.265C862.849 727.224 865.287 725.634 868.102 724.495C870.916 723.356 873.988 722.787 877.318 722.787H896.203C896.783 722.787 897.331 722.895 897.847 723.109C898.362 723.324 898.813 723.625 899.2 724.012C899.587 724.398 899.888 724.85 900.103 725.365C900.317 725.881 900.425 726.429 900.425 727.009V769ZM862.591 749.277H892.046V731.166H877.318C877.061 731.166 876.513 731.209 875.675 731.295C874.858 731.359 873.902 731.542 872.807 731.843C871.732 732.144 870.594 732.605 869.391 733.229C868.188 733.852 867.081 734.711 866.071 735.807C865.062 736.902 864.224 738.277 863.558 739.932C862.913 741.564 862.591 743.552 862.591 745.894V749.277ZM952.632 769H914.411C913.81 769 913.251 768.893 912.735 768.678C912.22 768.463 911.769 768.173 911.382 767.808C911.017 767.421 910.727 766.97 910.512 766.454C910.297 765.938 910.189 765.38 910.189 764.778V722.787H918.568V760.621H952.632V769ZM1001.23 769H963.009C962.407 769 961.849 768.893 961.333 768.678C960.817 768.463 960.366 768.173 959.979 767.808C959.614 767.421 959.324 766.97 959.109 766.454C958.895 765.938 958.787 765.38 958.787 764.778V722.787H967.166V760.621H1001.23V769ZM1055.18 750.309C1055.18 753.123 1054.69 755.712 1053.73 758.075C1052.76 760.438 1051.42 762.479 1049.7 764.198C1047.98 765.917 1045.94 767.26 1043.58 768.227C1041.23 769.172 1038.68 769.645 1035.91 769.645H1024.56C1021.79 769.645 1019.22 769.172 1016.86 768.227C1014.5 767.26 1012.46 765.917 1010.74 764.198C1009.02 762.479 1007.66 760.438 1006.68 758.075C1005.71 755.712 1005.23 753.123 1005.23 750.309V741.479C1005.23 738.686 1005.71 736.107 1006.68 733.744C1007.66 731.359 1009.02 729.318 1010.74 727.621C1012.46 725.902 1014.5 724.56 1016.86 723.593C1019.22 722.626 1021.79 722.143 1024.56 722.143H1035.91C1038.68 722.143 1041.23 722.626 1043.58 723.593C1045.94 724.56 1047.98 725.902 1049.7 727.621C1051.42 729.318 1052.76 731.359 1053.73 733.744C1054.69 736.107 1055.18 738.686 1055.18 741.479V750.309ZM1046.8 741.479C1046.8 739.824 1046.53 738.331 1045.99 736.999C1045.48 735.646 1044.74 734.496 1043.77 733.551C1042.82 732.584 1041.67 731.843 1040.32 731.327C1038.99 730.79 1037.52 730.521 1035.91 730.521H1024.56C1022.93 730.521 1021.44 730.79 1020.08 731.327C1018.75 731.843 1017.6 732.584 1016.63 733.551C1015.67 734.496 1014.92 735.646 1014.38 736.999C1013.86 738.331 1013.6 739.824 1013.6 741.479V750.309C1013.6 751.963 1013.86 753.467 1014.38 754.82C1014.92 756.152 1015.67 757.302 1016.63 758.269C1017.6 759.214 1018.75 759.955 1020.08 760.492C1021.44 761.008 1022.93 761.266 1024.56 761.266H1035.84C1037.47 761.266 1038.96 761.008 1040.29 760.492C1041.64 759.955 1042.8 759.214 1043.77 758.269C1044.74 757.302 1045.48 756.152 1045.99 754.82C1046.53 753.467 1046.8 751.963 1046.8 750.309V741.479ZM1122.08 722.787L1114.34 766.1C1114.17 766.959 1113.79 767.7 1113.18 768.323C1112.58 768.946 1111.85 769.344 1110.99 769.516C1110.11 769.666 1109.27 769.569 1108.48 769.226C1107.71 768.882 1107.09 768.345 1106.64 767.614L1091.3 742.413L1075.93 767.614C1075.57 768.237 1075.06 768.721 1074.42 769.064C1073.79 769.408 1073.12 769.58 1072.39 769.58C1071.38 769.58 1070.48 769.258 1069.71 768.613C1068.94 767.969 1068.46 767.131 1068.29 766.1L1060.49 722.787H1069L1074.54 753.306L1087.76 732.229C1088.12 731.606 1088.62 731.123 1089.24 730.779C1089.88 730.436 1090.57 730.264 1091.3 730.264C1092.03 730.264 1092.71 730.436 1093.33 730.779C1093.96 731.123 1094.47 731.606 1094.88 732.229L1108.03 753.306L1113.57 722.787H1122.08ZM1167.26 750.115H1140.8V741.672H1167.26V750.115ZM1171.03 769H1140.8C1139.64 769 1138.38 768.796 1137 768.388C1135.62 767.979 1134.35 767.313 1133.17 766.39C1132 765.444 1131.03 764.23 1130.23 762.748C1129.46 761.244 1129.07 759.407 1129.07 757.237V727.009C1129.07 726.429 1129.18 725.881 1129.39 725.365C1129.61 724.85 1129.9 724.398 1130.26 724.012C1130.65 723.625 1131.1 723.324 1131.62 723.109C1132.13 722.895 1132.69 722.787 1133.29 722.787H1171.03V731.166H1137.45V757.237C1137.45 758.333 1137.74 759.171 1138.32 759.751C1138.9 760.331 1139.75 760.621 1140.87 760.621H1171.03V769ZM1225.27 749.664C1225.27 752.479 1224.77 755.067 1223.79 757.431C1222.82 759.794 1221.48 761.835 1219.76 763.554C1218.04 765.251 1216 766.583 1213.63 767.55C1211.27 768.517 1208.7 769 1205.93 769H1183.31C1182.71 769 1182.15 768.893 1181.63 768.678C1181.12 768.463 1180.67 768.173 1180.28 767.808C1179.92 767.421 1179.62 766.97 1179.41 766.454C1179.2 765.938 1179.09 765.38 1179.09 764.778V727.009C1179.09 726.429 1179.2 725.881 1179.41 725.365C1179.62 724.85 1179.92 724.398 1180.28 724.012C1180.67 723.625 1181.12 723.324 1181.63 723.109C1182.15 722.895 1182.71 722.787 1183.31 722.787H1205.93C1208.7 722.787 1211.27 723.271 1213.63 724.237C1216 725.204 1218.04 726.547 1219.76 728.266C1221.48 729.963 1222.82 732.004 1223.79 734.389C1224.77 736.752 1225.27 739.33 1225.27 742.123V749.664ZM1216.89 742.123C1216.89 740.49 1216.62 738.997 1216.08 737.644C1215.57 736.29 1214.83 735.141 1213.86 734.195C1212.89 733.229 1211.73 732.487 1210.38 731.972C1209.05 731.435 1207.57 731.166 1205.93 731.166H1187.47V760.621H1205.93C1207.57 760.621 1209.05 760.363 1210.38 759.848C1211.73 759.311 1212.89 758.569 1213.86 757.624C1214.83 756.657 1215.57 755.508 1216.08 754.176C1216.62 752.822 1216.89 751.318 1216.89 749.664V742.123Z" fill="#A277FF"/>
</g>
<defs>
<filter id="filter0_dd_2041_4" x="491.708" y="380.827" width="939.315" height="323.173" filterUnits="userSpaceOnUse" color-interpolation-filters="sRGB">
<feFlood flood-opacity="0" result="BackgroundImageFix"/>
<feColorMatrix in="SourceAlpha" type="matrix" values="0 0 0 0 0 0 0 0 0 0 0 0 0 0 0 0 0 0 127 0" result="hardAlpha"/>
<feOffset/>
<feGaussianBlur stdDeviation="12.5"/>
<feComposite in2="hardAlpha" operator="out"/>
<feColorMatrix type="matrix" values="0 0 0 0 0.380392 0 0 0 0 1 0 0 0 0 0.792157 0 0 0 1 0"/>
<feBlend mode="normal" in2="BackgroundImageFix" result="effect1_dropShadow_2041_4"/>
<feColorMatrix in="SourceAlpha" type="matrix" values="0 0 0 0 0 0 0 0 0 0 0 0 0 0 0 0 0 0 127 0" result="hardAlpha"/>
<feOffset dy="4"/>
<feGaussianBlur stdDeviation="2"/>
<feComposite in2="hardAlpha" operator="out"/>
<feColorMatrix type="matrix" values="0 0 0 0 0 0 0 0 0 0 0 0 0 0 0 0 0 0 0.25 0"/>
<feBlend mode="normal" in2="effect1_dropShadow_2041_4" result="effect2_dropShadow_2041_4"/>
<feBlend mode="normal" in="SourceGraphic" in2="effect2_dropShadow_2041_4" result="shape"/>
</filter>
<filter id="filter1_d_2041_4" x="324.246" y="711.917" width="941.022" height="87.8242" filterUnits="userSpaceOnUse" color-interpolation-filters="sRGB">
<feFlood flood-opacity="0" result="BackgroundImageFix"/>
<feColorMatrix in="SourceAlpha" type="matrix" values="0 0 0 0 0 0 0 0 0 0 0 0 0 0 0 0 0 0 127 0" result="hardAlpha"/>
<feOffset dx="20" dy="10"/>
<feGaussianBlur stdDeviation="10"/>
<feComposite in2="hardAlpha" operator="out"/>
<feColorMatrix type="matrix" values="0 0 0 0 0 0 0 0 0 0 0 0 0 0 0 0 0 0 0.55 0"/>
<feBlend mode="normal" in2="BackgroundImageFix" result="effect1_dropShadow_2041_4"/>
<feBlend mode="normal" in="SourceGraphic" in2="effect1_dropShadow_2041_4" result="shape"/>
</filter>
</defs>
</svg>
