<svg width="1920" height="1080" viewBox="0 0 1920 1080" fill="none" xmlns="http://www.w3.org/2000/svg">
<g filter="url(#filter0_dd_2041_4)">
<mask id="path-1-outside-1_2041_4" maskUnits="userSpaceOnUse" x="491" y="405" width="940" height="274" fill="black">
<rect fill="white" x="491" y="405" width="940" height="274"/>
<path d="M737.803 606.523C737.803 611.015 737.256 615.751 736.164 620.729C735.192 625.707 733.553 630.685 731.246 635.664C729.061 640.52 726.207 645.195 722.686 649.688C719.286 654.18 715.097 658.187 710.119 661.708C705.262 665.108 699.616 667.84 693.181 669.904C686.746 671.968 679.521 673 671.508 673H497.939V625.646H671.508C677.457 625.646 682.011 623.825 685.167 620.183C688.446 616.54 690.085 611.987 690.085 606.523V585.396C690.085 579.204 688.507 574.468 685.35 571.19C682.193 567.912 677.457 566.272 671.144 566.272H564.416C552.153 566.272 541.771 564.087 533.272 559.716C524.894 555.223 518.095 549.638 512.874 542.96C507.653 536.282 503.828 529.057 501.399 521.287C499.092 513.516 497.939 506.291 497.939 499.613V411.827H716.129V459.181H545.292V499.613C545.292 505.927 546.932 510.662 550.21 513.819C553.488 516.976 558.224 518.555 564.416 518.555H671.508C678.064 518.555 685.228 519.769 692.999 522.197C700.77 524.504 707.934 528.329 714.49 533.671C721.168 538.892 726.693 545.753 731.064 554.252C735.556 562.751 737.803 573.133 737.803 585.396V606.523ZM1079.48 563.723C1079.48 574.408 1078.08 584.546 1075.29 594.138C1072.62 603.609 1068.79 612.412 1063.81 620.547C1058.84 628.682 1052.95 635.967 1046.15 642.402C1039.35 648.838 1031.88 654.362 1023.75 658.976C1015.73 663.469 1007.17 666.929 998.065 669.357C988.958 671.786 979.67 673 970.199 673H884.781C875.189 673 865.839 671.786 856.733 669.357C847.626 666.929 839.006 663.469 830.871 658.976C822.857 654.362 815.45 648.838 808.651 642.402C801.851 635.967 795.963 628.682 790.984 620.547C786.128 612.412 782.303 603.609 779.51 594.138C776.839 584.546 775.503 574.408 775.503 563.723V521.104C775.503 505.077 778.478 490.385 784.428 477.029C790.499 463.673 798.573 452.199 808.651 442.607C818.729 432.893 830.324 425.365 843.438 420.023C856.672 414.559 870.453 411.827 884.781 411.827H970.199C979.67 411.827 988.958 413.041 998.065 415.47C1007.17 417.898 1015.73 421.419 1023.75 426.033C1031.88 430.526 1039.35 435.99 1046.15 442.425C1052.95 448.86 1058.84 456.145 1063.81 464.28C1068.79 472.415 1072.62 481.279 1075.29 490.871C1078.08 500.342 1079.48 510.42 1079.48 521.104V563.723ZM1031.76 521.104C1031.76 511.755 1030.06 503.256 1026.66 495.606C1023.26 487.957 1018.71 481.4 1013 475.937C1007.41 470.473 1000.92 466.284 993.512 463.37C986.105 460.456 978.334 459.059 970.199 459.181H884.781C876.889 459.059 869.178 460.456 861.65 463.37C854.244 466.162 847.626 470.291 841.798 475.754C836.092 481.097 831.478 487.653 827.957 495.424C824.557 503.074 822.857 511.634 822.857 521.104V563.723C822.857 573.193 824.557 581.753 827.957 589.403C831.356 597.052 835.91 603.609 841.616 609.073C847.323 614.415 853.88 618.543 861.286 621.458C868.814 624.372 876.646 625.768 884.781 625.646H970.199C979.549 625.646 987.987 624.129 995.515 621.093C1003.16 617.936 1009.66 613.626 1015 608.162C1020.35 602.698 1024.47 596.202 1027.39 588.674C1030.3 581.025 1031.76 572.708 1031.76 563.723V521.104ZM1011.18 486.5C1013 489.171 1014.21 492.085 1014.82 495.242C1015.43 498.278 1015.43 501.313 1014.82 504.349C1014.21 507.263 1013 510.055 1011.18 512.727C1009.48 515.276 1007.23 517.462 1004.44 519.283L876.585 604.702C874.521 606.28 872.396 607.373 870.21 607.98C868.025 608.587 865.779 608.891 863.472 608.891C859.586 608.891 855.883 607.98 852.362 606.159C848.841 604.337 845.987 601.727 843.802 598.327C841.98 595.656 840.766 592.803 840.159 589.767C839.552 586.61 839.491 583.575 839.977 580.661C840.584 577.625 841.738 574.833 843.438 572.283C845.137 569.611 847.384 567.365 850.176 565.544L978.395 480.125C981.066 478.304 983.92 477.09 986.955 476.483C990.112 475.876 993.147 475.876 996.062 476.483C999.097 477.09 1001.89 478.243 1004.44 479.943C1007.11 481.643 1009.36 483.829 1011.18 486.5ZM1424.79 563.723C1424.79 574.408 1423.4 584.546 1420.6 594.138C1417.93 603.609 1414.11 612.412 1409.13 620.547C1404.15 628.682 1398.26 635.967 1391.46 642.402C1384.66 648.838 1377.2 654.362 1369.06 658.976C1361.05 663.469 1352.49 666.929 1343.38 669.357C1334.27 671.786 1324.99 673 1315.52 673H1230.1C1220.51 673 1211.16 671.786 1202.05 669.357C1192.94 666.929 1184.32 663.469 1176.19 658.976C1168.17 654.362 1160.77 648.838 1153.97 642.402C1147.17 635.967 1141.28 628.682 1136.3 620.547C1131.44 612.412 1127.62 603.609 1124.83 594.138C1122.16 584.546 1120.82 574.408 1120.82 563.723V521.104C1120.82 505.077 1123.79 490.385 1129.74 477.029C1135.82 463.673 1143.89 452.199 1153.97 442.607C1164.05 432.893 1175.64 425.365 1188.75 420.023C1201.99 414.559 1215.77 411.827 1230.1 411.827H1315.52C1324.99 411.827 1334.27 413.041 1343.38 415.47C1352.49 417.898 1361.05 421.419 1369.06 426.033C1377.2 430.526 1384.66 435.99 1391.46 442.425C1398.26 448.86 1404.15 456.145 1409.13 464.28C1414.11 472.415 1417.93 481.279 1420.6 490.871C1423.4 500.342 1424.79 510.42 1424.79 521.104V563.723ZM1377.08 521.104C1377.08 511.755 1375.38 503.256 1371.98 495.606C1368.58 487.957 1364.02 481.4 1358.32 475.937C1352.73 470.473 1346.23 466.284 1338.83 463.37C1331.42 460.456 1323.65 459.059 1315.52 459.181H1230.1C1222.2 459.059 1214.49 460.456 1206.97 463.37C1199.56 466.162 1192.94 470.291 1187.11 475.754C1181.41 481.097 1176.79 487.653 1173.27 495.424C1169.87 503.074 1168.17 511.634 1168.17 521.104V563.723C1168.17 573.193 1169.87 581.753 1173.27 589.403C1176.67 597.052 1181.23 603.609 1186.93 609.073C1192.64 614.415 1199.2 618.543 1206.6 621.458C1214.13 624.372 1221.96 625.768 1230.1 625.646H1315.52C1324.86 625.646 1333.3 624.129 1340.83 621.093C1348.48 617.936 1354.98 613.626 1360.32 608.162C1365.66 602.698 1369.79 596.202 1372.7 588.674C1375.62 581.025 1377.08 572.708 1377.08 563.723V521.104ZM1356.49 486.5C1358.32 489.171 1359.53 492.085 1360.14 495.242C1360.74 498.278 1360.74 501.313 1360.14 504.349C1359.53 507.263 1358.32 510.055 1356.49 512.727C1354.79 515.276 1352.55 517.462 1349.76 519.283L1221.9 604.702C1219.84 606.28 1217.71 607.373 1215.53 607.98C1213.34 608.587 1211.1 608.891 1208.79 608.891C1204.9 608.891 1201.2 607.98 1197.68 606.159C1194.16 604.337 1191.3 601.727 1189.12 598.327C1187.3 595.656 1186.08 592.803 1185.48 589.767C1184.87 586.61 1184.81 583.575 1185.29 580.661C1185.9 577.625 1187.05 574.833 1188.75 572.283C1190.45 569.611 1192.7 567.365 1195.49 565.544L1323.71 480.125C1326.38 478.304 1329.24 477.09 1332.27 476.483C1335.43 475.876 1338.46 475.876 1341.38 476.483C1344.41 477.09 1347.21 478.243 1349.76 479.943C1352.43 481.643 1354.67 483.829 1356.49 486.5Z"/>
</mask>
<path d="M736.164 620.729L730.303 619.443L730.288 619.511L730.275 619.58L736.164 620.729ZM731.246 635.664L725.802 633.141L725.788 633.171L725.775 633.201L731.246 635.664ZM722.686 649.688L717.964 645.986L717.932 646.026L717.902 646.067L722.686 649.688ZM710.119 661.708L713.56 666.623L713.572 666.615L713.584 666.607L710.119 661.708ZM497.939 673H491.939V679H497.939V673ZM497.939 625.646V619.646H491.939V625.646H497.939ZM685.167 620.183L680.708 616.169L680.67 616.211L680.633 616.253L685.167 620.183ZM533.272 559.716L530.437 565.004L530.482 565.028L530.528 565.052L533.272 559.716ZM512.874 542.96L517.6 539.264L512.874 542.96ZM501.399 521.287L495.648 522.994L495.66 523.035L495.673 523.076L501.399 521.287ZM497.939 411.827V405.827H491.939V411.827H497.939ZM716.129 411.827H722.129V405.827H716.129V411.827ZM716.129 459.181V465.181H722.129V459.181H716.129ZM545.292 459.181V453.181H539.292V459.181H545.292ZM692.999 522.197L691.209 527.924L691.25 527.937L691.291 527.949L692.999 522.197ZM714.49 533.671L710.7 538.323L710.747 538.361L710.795 538.398L714.49 533.671ZM731.064 554.252L725.728 556.996L725.744 557.026L725.759 557.056L731.064 554.252ZM731.803 606.523C731.803 610.53 731.315 614.831 730.303 619.443L742.024 622.015C743.197 616.67 743.803 611.501 743.803 606.523H731.803ZM730.275 619.58C729.403 624.047 727.923 628.565 725.802 633.141L736.69 638.186C739.184 632.805 740.981 627.367 742.053 621.878L730.275 619.58ZM725.775 633.201C723.801 637.586 721.207 641.848 717.964 645.986L727.408 653.389C731.207 648.542 734.32 643.455 736.718 638.126L725.775 633.201ZM717.902 646.067C714.903 650.029 711.171 653.615 706.654 656.81L713.584 666.607C719.024 662.759 723.67 658.331 727.47 653.308L717.902 646.067ZM706.678 656.793C702.378 659.803 697.289 662.285 691.349 664.191L695.014 675.617C701.943 673.394 708.147 670.413 713.56 666.623L706.678 656.793ZM691.349 664.191C685.604 666.033 679.012 667 671.508 667V679C680.031 679 687.888 677.903 695.014 675.617L691.349 664.191ZM671.508 667H497.939V679H671.508V667ZM503.939 673V625.646H491.939V673H503.939ZM497.939 631.646H671.508V619.646H497.939V631.646ZM671.508 631.646C678.755 631.646 685.144 629.371 689.702 624.112L680.633 616.253C678.877 618.279 676.16 619.646 671.508 619.646V631.646ZM689.627 624.196C694.013 619.323 696.085 613.286 696.085 606.523H684.085C684.085 610.688 682.878 613.757 680.708 616.169L689.627 624.196ZM696.085 606.523V585.396H684.085V606.523H696.085ZM696.085 585.396C696.085 578.222 694.245 571.777 689.672 567.028L681.028 575.352C682.768 577.159 684.085 580.185 684.085 585.396H696.085ZM689.672 567.028C685.002 562.179 678.441 560.272 671.144 560.272V572.272C676.474 572.272 679.383 573.644 681.028 575.352L689.672 567.028ZM671.144 560.272H564.416V572.272H671.144V560.272ZM564.416 560.272C552.845 560.272 543.461 558.209 536.016 554.38L530.528 565.052C540.082 569.965 551.46 572.272 564.416 572.272V560.272ZM536.107 554.428C528.374 550.281 522.249 545.211 517.6 539.264L508.147 546.655C513.94 554.065 521.414 560.165 530.437 565.004L536.107 554.428ZM517.6 539.264C512.806 533.132 509.33 526.549 507.126 519.497L495.673 523.076C498.325 531.566 502.499 539.431 508.147 546.655L517.6 539.264ZM507.151 519.579C504.975 512.248 503.939 505.605 503.939 499.613H491.939C491.939 506.977 493.21 514.783 495.648 522.994L507.151 519.579ZM503.939 499.613V411.827H491.939V499.613H503.939ZM497.939 417.827H716.129V405.827H497.939V417.827ZM710.129 411.827V459.181H722.129V411.827H710.129ZM716.129 453.181H545.292V465.181H716.129V453.181ZM539.292 459.181V499.613H551.292V459.181H539.292ZM539.292 499.613C539.292 506.911 541.199 513.472 546.048 518.141L554.372 509.497C552.664 507.853 551.292 504.943 551.292 499.613H539.292ZM546.048 518.141C550.797 522.715 557.242 524.555 564.416 524.555V512.555C559.205 512.555 556.179 511.238 554.372 509.497L546.048 518.141ZM564.416 524.555H671.508V512.555H564.416V524.555ZM671.508 524.555C677.332 524.555 683.884 525.635 691.209 527.924L694.789 516.47C686.572 513.903 678.797 512.555 671.508 512.555V524.555ZM691.291 527.949C698.269 530.021 704.731 533.459 710.7 538.323L718.28 529.02C711.136 523.199 703.27 518.988 694.707 516.445L691.291 527.949ZM710.795 538.398C716.707 543.02 721.703 549.17 725.728 556.996L736.4 551.508C731.682 542.335 725.63 534.764 718.186 528.945L710.795 538.398ZM725.759 557.056C729.687 564.486 731.803 573.847 731.803 585.396H743.803C743.803 572.418 741.426 561.017 736.369 551.448L725.759 557.056ZM731.803 585.396V606.523H743.803V585.396H731.803ZM1075.29 594.138L1069.53 592.461L1069.52 592.485L1069.51 592.509L1075.29 594.138ZM1023.75 658.976L1026.68 664.21L1026.69 664.202L1026.71 664.195L1023.75 658.976ZM830.871 658.976L827.877 664.176L827.923 664.203L827.97 664.228L830.871 658.976ZM808.651 642.402L804.527 646.76L808.651 642.402ZM790.984 620.547L785.833 623.623L785.849 623.651L785.867 623.679L790.984 620.547ZM779.51 594.138L773.73 595.748L773.742 595.792L773.755 595.835L779.51 594.138ZM784.428 477.029L778.966 474.546L778.956 474.567L778.947 474.588L784.428 477.029ZM808.651 442.607L812.788 446.953L812.801 446.94L812.815 446.927L808.651 442.607ZM843.438 420.023L845.701 425.58L845.714 425.574L845.727 425.569L843.438 420.023ZM998.065 415.47L999.611 409.672L999.611 409.672L998.065 415.47ZM1023.75 426.033L1020.75 431.233L1020.8 431.26L1020.84 431.286L1023.75 426.033ZM1075.29 490.871L1069.51 492.481L1069.52 492.525L1069.53 492.568L1075.29 490.871ZM1013 475.937L1008.8 480.226L1008.83 480.248L1008.85 480.27L1013 475.937ZM970.199 459.181V465.181H970.244L970.289 465.18L970.199 459.181ZM884.781 459.181L884.688 465.18L884.735 465.181H884.781V459.181ZM861.65 463.37L863.767 468.984L863.792 468.975L863.816 468.965L861.65 463.37ZM841.798 475.754L845.899 480.135L845.902 480.132L841.798 475.754ZM827.957 495.424L822.491 492.948L822.482 492.968L822.474 492.987L827.957 495.424ZM841.616 609.073L837.467 613.407L837.491 613.43L837.516 613.453L841.616 609.073ZM861.286 621.458L859.089 627.041L859.105 627.047L859.12 627.053L861.286 621.458ZM884.781 625.646V619.646H884.736L884.691 619.647L884.781 625.646ZM995.515 621.093L997.759 626.658L997.782 626.649L997.804 626.64L995.515 621.093ZM1015 608.162L1019.29 612.357L1015 608.162ZM1027.39 588.674L1032.98 590.84L1032.99 590.825L1032.99 590.81L1027.39 588.674ZM1011.18 486.5L1006.22 489.88L1011.18 486.5ZM1014.82 495.242L1008.93 496.375L1008.93 496.397L1008.94 496.419L1014.82 495.242ZM1014.82 504.349L1020.69 505.572L1020.7 505.549L1020.7 505.525L1014.82 504.349ZM1011.18 512.727L1006.22 509.347L1006.2 509.372L1006.19 509.398L1011.18 512.727ZM1004.44 519.283L1001.16 514.258L1001.13 514.276L1001.11 514.294L1004.44 519.283ZM876.585 604.702L873.252 599.713L873.092 599.819L872.94 599.936L876.585 604.702ZM843.802 598.327L848.849 595.083L848.805 595.014L848.759 594.947L843.802 598.327ZM840.159 589.767L834.267 590.9L834.271 590.922L834.276 590.944L840.159 589.767ZM839.977 580.661L834.094 579.484L834.075 579.579L834.059 579.674L839.977 580.661ZM843.438 572.283L848.43 575.611L848.465 575.558L848.499 575.504L843.438 572.283ZM850.176 565.544L853.454 570.57L853.478 570.554L853.503 570.537L850.176 565.544ZM978.395 480.125L981.722 485.119L981.748 485.101L981.775 485.083L978.395 480.125ZM986.955 476.483L985.822 470.591L985.8 470.595L985.778 470.599L986.955 476.483ZM996.062 476.483L994.838 482.357L994.861 482.362L994.885 482.366L996.062 476.483ZM1004.44 479.943L1001.11 484.936L1001.16 484.971L1001.22 485.005L1004.44 479.943ZM1073.48 563.723C1073.48 573.879 1072.15 583.45 1069.53 592.461L1081.05 595.815C1084.01 585.642 1085.48 574.936 1085.48 563.723H1073.48ZM1069.51 592.509C1066.99 601.468 1063.38 609.763 1058.7 617.415L1068.93 623.679C1074.21 615.06 1078.25 605.749 1081.06 595.767L1069.51 592.509ZM1058.7 617.415C1053.99 625.108 1048.43 631.979 1042.02 638.045L1050.27 646.76C1057.46 639.955 1063.68 632.256 1068.93 623.679L1058.7 617.415ZM1042.02 638.045C1035.57 644.147 1028.5 649.382 1020.79 653.757L1026.71 664.195C1035.26 659.342 1043.12 653.528 1050.27 646.76L1042.02 638.045ZM1020.81 653.742C1013.25 657.983 1005.15 661.257 996.519 663.56L999.611 675.155C1009.19 672.601 1018.22 668.954 1026.68 664.21L1020.81 653.742ZM996.519 663.56C987.919 665.853 979.151 667 970.199 667V679C980.189 679 989.998 677.718 999.611 675.155L996.519 663.56ZM970.199 667H884.781V679H970.199V667ZM884.781 667C875.701 667 866.872 665.852 858.279 663.56L855.187 675.155C864.807 677.72 874.676 679 884.781 679V667ZM858.279 663.56C849.638 661.256 841.473 657.977 833.771 653.724L827.97 664.228C836.539 668.96 845.615 672.602 855.187 675.155L858.279 663.56ZM833.864 653.776C826.264 649.401 819.237 644.16 812.775 638.045L804.527 646.76C811.664 653.515 819.449 659.324 827.877 664.176L833.864 653.776ZM812.775 638.045C806.367 631.979 800.81 625.108 796.102 617.415L785.867 623.679C791.115 632.256 797.336 639.955 804.527 646.76L812.775 638.045ZM796.136 617.471C791.548 609.786 787.921 601.449 785.265 592.441L773.755 595.835C776.684 605.769 780.707 615.037 785.833 623.623L796.136 617.471ZM785.29 592.529C782.775 583.497 781.503 573.903 781.503 563.723H769.503C769.503 574.912 770.903 585.595 773.73 595.748L785.29 592.529ZM781.503 563.723V521.104H769.503V563.723H781.503ZM781.503 521.104C781.503 505.837 784.333 491.987 789.909 479.471L778.947 474.588C772.623 488.784 769.503 504.318 769.503 521.104H781.503ZM789.89 479.512C795.66 466.818 803.297 455.986 812.788 446.953L804.514 438.261C793.849 448.412 785.337 460.529 778.966 474.546L789.89 479.512ZM812.815 446.927C822.337 437.749 833.286 430.638 845.701 425.58L841.174 414.466C827.363 420.093 815.12 428.038 804.487 438.287L812.815 446.927ZM845.727 425.569C858.235 420.405 871.238 417.827 884.781 417.827V405.827C869.668 405.827 855.109 408.713 841.148 414.477L845.727 425.569ZM884.781 417.827H970.199V405.827H884.781V417.827ZM970.199 417.827C979.151 417.827 987.919 418.974 996.519 421.267L999.611 409.672C989.998 407.109 980.189 405.827 970.199 405.827V417.827ZM996.519 421.267C1005.13 423.563 1013.2 426.886 1020.75 431.233L1026.74 420.833C1018.26 415.953 1009.21 412.233 999.611 409.672L996.519 421.267ZM1020.84 431.286C1028.53 435.531 1035.59 440.693 1042.02 446.783L1050.27 438.067C1043.11 431.286 1035.23 425.52 1026.65 420.781L1020.84 431.286ZM1042.02 446.783C1048.43 452.848 1053.99 459.719 1058.7 467.412L1068.93 461.148C1063.68 452.571 1057.46 444.872 1050.27 438.067L1042.02 446.783ZM1058.7 467.412C1063.37 475.052 1066.98 483.401 1069.51 492.481L1081.07 489.261C1078.25 479.157 1074.21 469.778 1068.93 461.148L1058.7 467.412ZM1069.53 492.568C1072.15 501.444 1073.48 510.947 1073.48 521.104H1085.48C1085.48 509.892 1084.01 499.239 1081.04 489.174L1069.53 492.568ZM1073.48 521.104V563.723H1085.48V521.104H1073.48ZM1037.76 521.104C1037.76 511.014 1035.92 501.671 1032.14 493.17L1021.18 498.043C1024.2 504.84 1025.76 512.496 1025.76 521.104H1037.76ZM1032.14 493.17C1028.44 484.85 1023.45 477.638 1017.15 471.603L1008.85 480.27C1013.96 485.163 1018.07 491.064 1021.18 498.043L1032.14 493.17ZM1017.2 471.648C1011.03 465.612 1003.85 460.988 995.708 457.786L991.315 468.953C997.99 471.579 1003.8 475.333 1008.8 480.226L1017.2 471.648ZM995.708 457.786C987.558 454.579 979.009 453.049 970.11 453.181L970.289 465.18C977.66 465.07 984.652 466.332 991.315 468.953L995.708 457.786ZM970.199 453.181H884.781V465.181H970.199V453.181ZM884.873 453.181C876.191 453.048 867.715 454.588 859.484 457.774L863.816 468.965C870.641 466.323 877.586 465.071 884.688 465.18L884.873 453.181ZM859.534 457.755C851.383 460.829 844.092 465.38 837.695 471.377L845.902 480.132C851.161 475.201 857.105 471.496 863.767 468.984L859.534 457.755ZM837.698 471.374C831.365 477.303 826.308 484.525 822.491 492.948L833.422 497.901C836.647 490.782 840.818 484.891 845.899 480.135L837.698 471.374ZM822.474 492.987C818.691 501.499 816.857 510.905 816.857 521.104H828.857C828.857 512.363 830.423 504.649 833.439 497.861L822.474 492.987ZM816.857 521.104V563.723H828.857V521.104H816.857ZM816.857 563.723C816.857 573.923 818.691 583.328 822.474 591.84L833.439 586.966C830.423 580.178 828.857 572.464 828.857 563.723H816.857ZM822.474 591.84C826.171 600.159 831.163 607.371 837.467 613.407L845.766 604.739C840.656 599.846 836.541 593.945 833.439 586.966L822.474 591.84ZM837.516 613.453C843.786 619.323 850.991 623.855 859.089 627.041L863.483 615.874C856.768 613.232 850.86 609.508 845.717 604.693L837.516 613.453ZM859.12 627.053C867.373 630.248 875.971 631.779 884.87 631.646L884.691 619.647C877.321 619.757 870.255 618.496 863.452 615.862L859.12 627.053ZM884.781 631.646H970.199V619.646H884.781V631.646ZM970.199 631.646C980.202 631.646 989.418 630.021 997.759 626.658L993.271 615.529C986.556 618.236 978.895 619.646 970.199 619.646V631.646ZM997.804 626.64C1006.14 623.198 1013.34 618.449 1019.29 612.357L1010.71 603.967C1005.98 608.803 1000.19 612.674 993.226 615.547L997.804 626.64ZM1019.29 612.357C1025.24 606.28 1029.79 599.083 1032.98 590.84L1021.79 586.508C1019.15 593.322 1015.46 599.117 1010.71 603.967L1019.29 612.357ZM1032.99 590.81C1036.19 582.415 1037.76 573.366 1037.76 563.723H1025.76C1025.76 572.049 1024.41 579.635 1021.78 586.538L1032.99 590.81ZM1037.76 563.723V521.104H1025.76V563.723H1037.76ZM1006.22 489.88C1007.58 491.878 1008.48 494.028 1008.93 496.375L1020.71 494.109C1019.95 490.143 1018.42 486.464 1016.14 483.12L1006.22 489.88ZM1008.94 496.419C1009.39 498.678 1009.39 500.913 1008.94 503.172L1020.7 505.525C1021.47 501.713 1021.47 497.878 1020.7 494.065L1008.94 496.419ZM1008.95 503.125C1008.51 505.203 1007.64 507.27 1006.22 509.347L1016.14 516.107C1018.36 512.84 1019.91 509.323 1020.69 505.572L1008.95 503.125ZM1006.19 509.398C1004.98 511.215 1003.33 512.841 1001.16 514.258L1007.72 524.309C1011.13 522.083 1013.98 519.338 1016.17 516.055L1006.19 509.398ZM1001.11 514.294L873.252 599.713L879.918 609.691L1007.77 524.272L1001.11 514.294ZM872.94 599.936C871.397 601.116 869.952 601.824 868.605 602.199L871.816 613.761C874.839 612.921 877.645 611.445 880.23 609.468L872.94 599.936ZM868.605 602.199C866.951 602.658 865.245 602.891 863.472 602.891V614.891C866.312 614.891 869.099 614.516 871.816 613.761L868.605 602.199ZM863.472 602.891C860.566 602.891 857.805 602.219 855.118 600.829L849.605 611.488C853.96 613.741 858.607 614.891 863.472 614.891V602.891ZM855.118 600.829C852.549 599.5 850.478 597.617 848.849 595.083L838.755 601.572C841.497 605.837 845.132 609.174 849.605 611.488L855.118 600.829ZM848.759 594.947C847.371 592.911 846.485 590.802 846.043 588.59L834.276 590.944C835.048 594.803 836.59 598.401 838.844 601.707L848.759 594.947ZM846.051 588.634C845.567 586.115 845.537 583.799 845.895 581.647L834.059 579.674C833.446 583.35 833.537 587.106 834.267 590.9L846.051 588.634ZM845.861 581.837C846.316 579.562 847.169 577.502 848.43 575.611L838.445 568.955C836.306 572.163 834.853 575.688 834.094 579.484L845.861 581.837ZM848.499 575.504C849.716 573.593 851.339 571.949 853.454 570.57L846.899 560.518C843.428 562.782 840.559 565.63 838.376 569.061L848.499 575.504ZM853.503 570.537L981.722 485.119L975.068 475.132L846.85 560.551L853.503 570.537ZM981.775 485.083C983.811 483.694 985.92 482.809 988.132 482.366L985.778 470.599C981.919 471.371 978.321 472.914 975.015 475.168L981.775 485.083ZM988.088 482.375C990.529 481.906 992.761 481.924 994.838 482.357L997.285 470.609C993.534 469.828 989.695 469.846 985.822 470.591L988.088 482.375ZM994.885 482.366C997.16 482.821 999.22 483.675 1001.11 484.936L1007.77 474.951C1004.56 472.812 1001.03 471.359 997.238 470.599L994.885 482.366ZM1001.22 485.005C1003.19 486.259 1004.85 487.867 1006.22 489.88L1016.14 483.12C1013.87 479.791 1011.03 477.028 1007.66 474.881L1001.22 485.005ZM1420.6 594.138L1414.84 592.461L1414.84 592.485L1414.83 592.509L1420.6 594.138ZM1369.06 658.976L1372 664.21L1372.01 664.202L1372.02 664.195L1369.06 658.976ZM1176.19 658.976L1173.19 664.176L1173.24 664.203L1173.29 664.228L1176.19 658.976ZM1153.97 642.402L1149.84 646.76L1153.97 642.402ZM1136.3 620.547L1131.15 623.623L1131.17 623.651L1131.18 623.679L1136.3 620.547ZM1124.83 594.138L1119.05 595.748L1119.06 595.792L1119.07 595.835L1124.83 594.138ZM1129.74 477.029L1124.28 474.546L1124.27 474.567L1124.26 474.588L1129.74 477.029ZM1153.97 442.607L1158.1 446.953L1158.12 446.94L1158.13 446.927L1153.97 442.607ZM1188.75 420.023L1191.02 425.58L1191.03 425.574L1191.04 425.569L1188.75 420.023ZM1343.38 415.47L1344.93 409.672L1344.93 409.672L1343.38 415.47ZM1369.06 426.033L1366.07 431.233L1366.11 431.26L1366.16 431.286L1369.06 426.033ZM1420.6 490.871L1414.82 492.481L1414.84 492.525L1414.85 492.568L1420.6 490.871ZM1358.32 475.937L1354.12 480.226L1354.14 480.248L1354.17 480.27L1358.32 475.937ZM1315.52 459.181V465.181H1315.56L1315.61 465.18L1315.52 459.181ZM1230.1 459.181L1230 465.18L1230.05 465.181H1230.1V459.181ZM1206.97 463.37L1209.08 468.984L1209.11 468.975L1209.13 468.965L1206.97 463.37ZM1187.11 475.754L1191.22 480.135L1191.22 480.132L1187.11 475.754ZM1173.27 495.424L1167.81 492.948L1167.8 492.968L1167.79 492.987L1173.27 495.424ZM1186.93 609.073L1182.78 613.407L1182.81 613.43L1182.83 613.453L1186.93 609.073ZM1206.6 621.458L1204.41 627.041L1204.42 627.047L1204.44 627.053L1206.6 621.458ZM1230.1 625.646V619.646H1230.05L1230.01 619.647L1230.1 625.646ZM1340.83 621.093L1343.08 626.658L1343.1 626.649L1343.12 626.64L1340.83 621.093ZM1360.32 608.162L1364.61 612.357L1360.32 608.162ZM1372.7 588.674L1378.3 590.84L1378.31 590.825L1378.31 590.81L1372.7 588.674ZM1356.49 486.5L1351.54 489.88L1356.49 486.5ZM1360.14 495.242L1354.25 496.375L1354.25 496.397L1354.25 496.419L1360.14 495.242ZM1360.14 504.349L1366.01 505.572L1366.02 505.549L1366.02 505.525L1360.14 504.349ZM1356.49 512.727L1351.54 509.347L1351.52 509.372L1351.5 509.398L1356.49 512.727ZM1349.76 519.283L1346.48 514.258L1346.45 514.276L1346.42 514.294L1349.76 519.283ZM1221.9 604.702L1218.57 599.713L1218.41 599.819L1218.26 599.936L1221.9 604.702ZM1189.12 598.327L1194.17 595.083L1194.12 595.014L1194.08 594.947L1189.12 598.327ZM1185.48 589.767L1179.58 590.9L1179.59 590.922L1179.59 590.944L1185.48 589.767ZM1185.29 580.661L1179.41 579.484L1179.39 579.579L1179.38 579.674L1185.29 580.661ZM1188.75 572.283L1193.75 575.611L1193.78 575.558L1193.82 575.504L1188.75 572.283ZM1195.49 565.544L1198.77 570.57L1198.79 570.554L1198.82 570.537L1195.49 565.544ZM1323.71 480.125L1327.04 485.119L1327.06 485.101L1327.09 485.083L1323.71 480.125ZM1332.27 476.483L1331.14 470.591L1331.12 470.595L1331.09 470.599L1332.27 476.483ZM1341.38 476.483L1340.15 482.357L1340.18 482.362L1340.2 482.366L1341.38 476.483ZM1349.76 479.943L1346.43 484.936L1346.48 484.971L1346.53 485.005L1349.76 479.943ZM1418.79 563.723C1418.79 573.879 1417.47 583.45 1414.84 592.461L1426.36 595.815C1429.33 585.642 1430.79 574.936 1430.79 563.723H1418.79ZM1414.83 592.509C1412.3 601.468 1408.69 609.763 1404.01 617.415L1414.25 623.679C1419.52 615.06 1423.56 605.749 1426.38 595.767L1414.83 592.509ZM1404.01 617.415C1399.3 625.108 1393.75 631.979 1387.34 638.045L1395.59 646.76C1402.78 639.955 1409 632.256 1414.25 623.679L1404.01 617.415ZM1387.34 638.045C1380.89 644.147 1373.81 649.382 1366.1 653.757L1372.02 664.195C1380.58 659.342 1388.44 653.528 1395.59 646.76L1387.34 638.045ZM1366.13 653.742C1358.56 657.983 1350.47 661.257 1341.84 663.56L1344.93 675.155C1354.51 672.601 1363.53 668.954 1372 664.21L1366.13 653.742ZM1341.84 663.56C1333.24 665.853 1324.47 667 1315.52 667V679C1325.51 679 1335.31 677.718 1344.93 675.155L1341.84 663.56ZM1315.52 667H1230.1V679H1315.52V667ZM1230.1 667C1221.02 667 1212.19 665.852 1203.6 663.56L1200.5 675.155C1210.12 677.72 1219.99 679 1230.1 679V667ZM1203.6 663.56C1194.95 661.256 1186.79 657.977 1179.09 653.724L1173.29 664.228C1181.86 668.96 1190.93 672.602 1200.5 675.155L1203.6 663.56ZM1179.18 653.776C1171.58 649.401 1164.55 644.16 1158.09 638.045L1149.84 646.76C1156.98 653.515 1164.77 659.324 1173.19 664.176L1179.18 653.776ZM1158.09 638.045C1151.68 631.979 1146.13 625.108 1141.42 617.415L1131.18 623.679C1136.43 632.256 1142.65 639.955 1149.84 646.76L1158.09 638.045ZM1141.45 617.471C1136.86 609.786 1133.24 601.449 1130.58 592.441L1119.07 595.835C1122 605.769 1126.02 615.037 1131.15 623.623L1141.45 617.471ZM1130.61 592.529C1128.09 583.497 1126.82 573.903 1126.82 563.723H1114.82C1114.82 574.912 1116.22 585.595 1119.05 595.748L1130.61 592.529ZM1126.82 563.723V521.104H1114.82V563.723H1126.82ZM1126.82 521.104C1126.82 505.837 1129.65 491.987 1135.22 479.471L1124.26 474.588C1117.94 488.784 1114.82 504.318 1114.82 521.104H1126.82ZM1135.21 479.512C1140.98 466.818 1148.61 455.986 1158.1 446.953L1149.83 438.261C1139.17 448.412 1130.65 460.529 1124.28 474.546L1135.21 479.512ZM1158.13 446.927C1167.65 437.749 1178.6 430.638 1191.02 425.58L1186.49 414.466C1172.68 420.093 1160.44 428.038 1149.8 438.287L1158.13 446.927ZM1191.04 425.569C1203.55 420.405 1216.55 417.827 1230.1 417.827V405.827C1214.98 405.827 1200.43 408.713 1186.46 414.477L1191.04 425.569ZM1230.1 417.827H1315.52V405.827H1230.1V417.827ZM1315.52 417.827C1324.47 417.827 1333.24 418.974 1341.84 421.267L1344.93 409.672C1335.31 407.109 1325.51 405.827 1315.52 405.827V417.827ZM1341.84 421.267C1350.44 423.563 1358.52 426.886 1366.07 431.233L1372.06 420.833C1363.58 415.953 1354.53 412.233 1344.93 409.672L1341.84 421.267ZM1366.16 431.286C1373.85 435.531 1380.91 440.693 1387.34 446.783L1395.59 438.067C1388.42 431.286 1380.54 425.52 1371.96 420.781L1366.16 431.286ZM1387.34 446.783C1393.75 452.848 1399.3 459.719 1404.01 467.412L1414.25 461.148C1409 452.571 1402.78 444.872 1395.59 438.067L1387.34 446.783ZM1404.01 467.412C1408.69 475.052 1412.3 483.401 1414.82 492.481L1426.38 489.261C1423.57 479.157 1419.53 469.778 1414.25 461.148L1404.01 467.412ZM1414.85 492.568C1417.47 501.444 1418.79 510.947 1418.79 521.104H1430.79C1430.79 509.892 1429.33 499.239 1426.36 489.174L1414.85 492.568ZM1418.79 521.104V563.723H1430.79V521.104H1418.79ZM1383.08 521.104C1383.08 511.014 1381.24 501.671 1377.46 493.17L1366.49 498.043C1369.51 504.84 1371.08 512.496 1371.08 521.104H1383.08ZM1377.46 493.17C1373.76 484.85 1368.77 477.638 1362.47 471.603L1354.17 480.27C1359.28 485.163 1363.39 491.064 1366.49 498.043L1377.46 493.17ZM1362.51 471.648C1356.34 465.612 1349.16 460.988 1341.02 457.786L1336.63 468.953C1343.31 471.579 1349.12 475.333 1354.12 480.226L1362.51 471.648ZM1341.02 457.786C1332.87 454.579 1324.33 453.049 1315.43 453.181L1315.61 465.18C1322.98 465.07 1329.97 466.332 1336.63 468.953L1341.02 457.786ZM1315.52 453.181H1230.1V465.181H1315.52V453.181ZM1230.19 453.181C1221.51 453.048 1213.03 454.588 1204.8 457.774L1209.13 468.965C1215.96 466.323 1222.9 465.071 1230 465.18L1230.19 453.181ZM1204.85 457.755C1196.7 460.829 1189.41 465.38 1183.01 471.377L1191.22 480.132C1196.48 475.201 1202.42 471.496 1209.08 468.984L1204.85 457.755ZM1183.01 471.374C1176.68 477.303 1171.62 484.525 1167.81 492.948L1178.74 497.901C1181.96 490.782 1186.13 484.891 1191.22 480.135L1183.01 471.374ZM1167.79 492.987C1164.01 501.499 1162.17 510.905 1162.17 521.104H1174.17C1174.17 512.363 1175.74 504.649 1178.76 497.861L1167.79 492.987ZM1162.17 521.104V563.723H1174.17V521.104H1162.17ZM1162.17 563.723C1162.17 573.923 1164.01 583.328 1167.79 591.84L1178.76 586.966C1175.74 580.178 1174.17 572.464 1174.17 563.723H1162.17ZM1167.79 591.84C1171.49 600.159 1176.48 607.371 1182.78 613.407L1191.08 604.739C1185.97 599.846 1181.86 593.945 1178.76 586.966L1167.79 591.84ZM1182.83 613.453C1189.1 619.323 1196.31 623.855 1204.41 627.041L1208.8 615.874C1202.08 613.232 1196.18 609.508 1191.03 604.693L1182.83 613.453ZM1204.44 627.053C1212.69 630.248 1221.29 631.779 1230.19 631.646L1230.01 619.647C1222.64 619.757 1215.57 618.496 1208.77 615.862L1204.44 627.053ZM1230.1 631.646H1315.52V619.646H1230.1V631.646ZM1315.52 631.646C1325.52 631.646 1334.73 630.021 1343.08 626.658L1338.59 615.529C1331.87 618.236 1324.21 619.646 1315.52 619.646V631.646ZM1343.12 626.64C1351.46 623.198 1358.65 618.449 1364.61 612.357L1356.03 603.967C1351.3 608.803 1345.5 612.674 1338.54 615.547L1343.12 626.64ZM1364.61 612.357C1370.55 606.28 1375.11 599.083 1378.3 590.84L1367.11 586.508C1364.47 593.322 1360.77 599.117 1356.03 603.967L1364.61 612.357ZM1378.31 590.81C1381.51 582.415 1383.08 573.366 1383.08 563.723H1371.08C1371.08 572.049 1369.73 579.635 1367.1 586.538L1378.31 590.81ZM1383.08 563.723V521.104H1371.08V563.723H1383.08ZM1351.54 489.88C1352.9 491.878 1353.79 494.028 1354.25 496.375L1366.03 494.109C1365.27 490.143 1363.73 486.464 1361.45 483.12L1351.54 489.88ZM1354.25 496.419C1354.71 498.678 1354.71 500.913 1354.25 503.172L1366.02 505.525C1366.78 501.713 1366.78 497.878 1366.02 494.065L1354.25 496.419ZM1354.26 503.125C1353.83 505.203 1352.95 507.27 1351.54 509.347L1361.45 516.107C1363.68 512.84 1365.23 509.323 1366.01 505.572L1354.26 503.125ZM1351.5 509.398C1350.29 511.215 1348.65 512.841 1346.48 514.258L1353.03 524.309C1356.45 522.083 1359.3 519.338 1361.49 516.055L1351.5 509.398ZM1346.42 514.294L1218.57 599.713L1225.23 609.691L1353.09 524.272L1346.42 514.294ZM1218.26 599.936C1216.71 601.116 1215.27 601.824 1213.92 602.199L1217.13 613.761C1220.16 612.921 1222.96 611.445 1225.55 609.468L1218.26 599.936ZM1213.92 602.199C1212.27 602.658 1210.56 602.891 1208.79 602.891V614.891C1211.63 614.891 1214.42 614.516 1217.13 613.761L1213.92 602.199ZM1208.79 602.891C1205.88 602.891 1203.12 602.219 1200.43 600.829L1194.92 611.488C1199.28 613.741 1203.92 614.891 1208.79 614.891V602.891ZM1200.43 600.829C1197.87 599.5 1195.79 597.617 1194.17 595.083L1184.07 601.572C1186.81 605.837 1190.45 609.174 1194.92 611.488L1200.43 600.829ZM1194.08 594.947C1192.69 592.911 1191.8 590.802 1191.36 588.59L1179.59 590.944C1180.36 594.803 1181.91 598.401 1184.16 601.707L1194.08 594.947ZM1191.37 588.634C1190.88 586.115 1190.85 583.799 1191.21 581.647L1179.38 579.674C1178.76 583.35 1178.85 587.106 1179.58 590.9L1191.37 588.634ZM1191.18 581.837C1191.63 579.562 1192.49 577.502 1193.75 575.611L1183.76 568.955C1181.62 572.163 1180.17 575.688 1179.41 579.484L1191.18 581.837ZM1193.82 575.504C1195.03 573.593 1196.66 571.949 1198.77 570.57L1192.22 560.518C1188.74 562.782 1185.88 565.63 1183.69 569.061L1193.82 575.504ZM1198.82 570.537L1327.04 485.119L1320.38 475.132L1192.17 560.551L1198.82 570.537ZM1327.09 485.083C1329.13 483.694 1331.24 482.809 1333.45 482.366L1331.09 470.599C1327.24 471.371 1323.64 472.914 1320.33 475.168L1327.09 485.083ZM1333.4 482.375C1335.85 481.906 1338.08 481.924 1340.15 482.357L1342.6 470.609C1338.85 469.828 1335.01 469.846 1331.14 470.591L1333.4 482.375ZM1340.2 482.366C1342.48 482.821 1344.54 483.675 1346.43 484.936L1353.08 474.951C1349.88 472.812 1346.35 471.359 1342.55 470.599L1340.2 482.366ZM1346.53 485.005C1348.5 486.259 1350.16 487.867 1351.54 489.88L1361.45 483.12C1359.18 479.791 1356.35 477.028 1352.98 474.881L1346.53 485.005Z" fill="#61FFCA" mask="url(#path-1-outside-1_2041_4)"/>
</g>
<g filter="url(#filter1_d_2041_4)">
<path d="M282.513 769H274.134V722.787H282.513V769ZM338.49 765.423C338.49 766.024 338.372 766.583 338.136 767.099C337.921 767.614 337.62 768.065 337.233 768.452C336.868 768.817 336.428 769.107 335.912 769.322C335.396 769.537 334.849 769.645 334.269 769.645C333.753 769.645 333.227 769.548 332.689 769.354C332.174 769.161 331.712 768.85 331.304 768.42L300.688 736.451V769H292.31V726.364C292.31 725.505 292.546 724.731 293.019 724.044C293.513 723.335 294.136 722.809 294.888 722.465C295.683 722.143 296.499 722.067 297.337 722.239C298.175 722.39 298.895 722.776 299.496 723.399L330.111 755.336V722.787H338.49V765.423ZM390.021 731.166H371.555V769H363.176V731.166H344.678V722.787H390.021V731.166ZM434.203 750.115H407.745V741.672H434.203V750.115ZM437.974 769H407.745C406.585 769 405.317 768.796 403.942 768.388C402.567 767.979 401.289 767.313 400.107 766.39C398.947 765.444 397.97 764.23 397.175 762.748C396.401 761.244 396.015 759.407 396.015 757.237V727.009C396.015 726.429 396.122 725.881 396.337 725.365C396.552 724.85 396.842 724.398 397.207 724.012C397.594 723.625 398.045 723.324 398.561 723.109C399.076 722.895 399.635 722.787 400.236 722.787H437.974V731.166H404.394V757.237C404.394 758.333 404.684 759.171 405.264 759.751C405.844 760.331 406.692 760.621 407.81 760.621H437.974V769ZM492.275 738.32C492.275 740.232 492.039 741.94 491.566 743.444C491.094 744.948 490.449 746.28 489.633 747.44C488.838 748.579 487.914 749.557 486.861 750.373C485.809 751.189 484.702 751.866 483.542 752.403C482.403 752.919 481.243 753.295 480.062 753.531C478.901 753.768 477.806 753.886 476.774 753.886L494.273 769H481.318L463.852 753.886H457.825V745.507H476.774C477.827 745.421 478.783 745.206 479.643 744.862C480.523 744.497 481.275 744.014 481.898 743.412C482.543 742.811 483.037 742.091 483.381 741.253C483.725 740.394 483.896 739.416 483.896 738.32V733.035C483.896 732.562 483.832 732.208 483.703 731.972C483.596 731.714 483.445 731.531 483.252 731.424C483.08 731.295 482.887 731.22 482.672 731.198C482.479 731.177 482.296 731.166 482.124 731.166H454.474V769H446.095V727.009C446.095 726.429 446.202 725.881 446.417 725.365C446.632 724.85 446.922 724.398 447.287 724.012C447.674 723.625 448.125 723.324 448.641 723.109C449.156 722.895 449.715 722.787 450.316 722.787H482.124C483.993 722.787 485.572 723.131 486.861 723.818C488.15 724.484 489.192 725.333 489.987 726.364C490.804 727.374 491.384 728.47 491.728 729.651C492.093 730.833 492.275 731.939 492.275 732.971V738.32ZM546.867 765.423C546.867 766.024 546.749 766.583 546.513 767.099C546.298 767.614 545.997 768.065 545.61 768.452C545.245 768.817 544.805 769.107 544.289 769.322C543.773 769.537 543.226 769.645 542.646 769.645C542.13 769.645 541.604 769.548 541.066 769.354C540.551 769.161 540.089 768.85 539.681 768.42L509.065 736.451V769H500.687V726.364C500.687 725.505 500.923 724.731 501.396 724.044C501.89 723.335 502.513 722.809 503.265 722.465C504.06 722.143 504.876 722.067 505.714 722.239C506.552 722.39 507.271 722.776 507.873 723.399L538.488 755.336V722.787H546.867V765.423ZM601.975 769H593.596V757.656H564.141V769H555.762V745.894C555.762 742.521 556.342 739.416 557.502 736.58C558.662 733.744 560.273 731.306 562.336 729.265C564.398 727.224 566.837 725.634 569.651 724.495C572.466 723.356 575.538 722.787 578.868 722.787H597.753C598.333 722.787 598.881 722.895 599.396 723.109C599.912 723.324 600.363 723.625 600.75 724.012C601.137 724.398 601.438 724.85 601.652 725.365C601.867 725.881 601.975 726.429 601.975 727.009V769ZM564.141 749.277H593.596V731.166H578.868C578.61 731.166 578.062 731.209 577.225 731.295C576.408 731.359 575.452 731.542 574.356 731.843C573.282 732.144 572.144 732.605 570.94 733.229C569.737 733.852 568.631 734.711 567.621 735.807C566.611 736.902 565.773 738.277 565.107 739.932C564.463 741.564 564.141 743.552 564.141 745.894V749.277ZM654.182 769H615.961C615.359 769 614.801 768.893 614.285 768.678C613.77 768.463 613.318 768.173 612.932 767.808C612.566 767.421 612.276 766.97 612.062 766.454C611.847 765.938 611.739 765.38 611.739 764.778V722.787H620.118V760.621H654.182V769ZM725.499 755.4C725.499 757.055 725.284 758.548 724.854 759.88C724.446 761.19 723.898 762.351 723.211 763.36C722.523 764.37 721.718 765.229 720.794 765.938C719.87 766.647 718.914 767.228 717.926 767.679C716.938 768.13 715.928 768.463 714.896 768.678C713.887 768.893 712.931 769 712.028 769H679.705V760.621H712.028C713.64 760.621 714.886 760.148 715.767 759.203C716.669 758.258 717.12 756.99 717.12 755.4C717.12 754.627 717.002 753.918 716.766 753.273C716.529 752.629 716.186 752.07 715.734 751.598C715.305 751.125 714.768 750.76 714.123 750.502C713.5 750.244 712.802 750.115 712.028 750.115H692.757C691.403 750.115 689.942 749.879 688.374 749.406C686.806 748.912 685.345 748.128 683.991 747.054C682.659 745.979 681.542 744.572 680.64 742.832C679.759 741.092 679.318 738.965 679.318 736.451C679.318 733.938 679.759 731.821 680.64 730.103C681.542 728.362 682.659 726.955 683.991 725.881C685.345 724.785 686.806 724.001 688.374 723.528C689.942 723.034 691.403 722.787 692.757 722.787H721.277V731.166H692.757C691.167 731.166 689.921 731.649 689.019 732.616C688.138 733.583 687.697 734.861 687.697 736.451C687.697 738.062 688.138 739.341 689.019 740.286C689.921 741.21 691.167 741.672 692.757 741.672H712.028H712.093C712.995 741.693 713.951 741.822 714.961 742.059C715.971 742.273 716.97 742.617 717.958 743.09C718.968 743.562 719.924 744.164 720.826 744.895C721.729 745.604 722.523 746.463 723.211 747.473C723.92 748.482 724.479 749.643 724.887 750.953C725.295 752.264 725.499 753.746 725.499 755.4ZM770.455 750.115H743.997V741.672H770.455V750.115ZM774.226 769H743.997C742.837 769 741.569 768.796 740.194 768.388C738.819 767.979 737.541 767.313 736.359 766.39C735.199 765.444 734.222 764.23 733.427 762.748C732.653 761.244 732.267 759.407 732.267 757.237V727.009C732.267 726.429 732.374 725.881 732.589 725.365C732.804 724.85 733.094 724.398 733.459 724.012C733.846 723.625 734.297 723.324 734.812 723.109C735.328 722.895 735.887 722.787 736.488 722.787H774.226V731.166H740.646V757.237C740.646 758.333 740.936 759.171 741.516 759.751C742.096 760.331 742.944 760.621 744.062 760.621H774.226V769ZM828.527 738.32C828.527 740.232 828.291 741.94 827.818 743.444C827.346 744.948 826.701 746.28 825.885 747.44C825.09 748.579 824.166 749.557 823.113 750.373C822.061 751.189 820.954 751.866 819.794 752.403C818.655 752.919 817.495 753.295 816.313 753.531C815.153 753.768 814.058 753.886 813.026 753.886L830.525 769H817.57L800.104 753.886H794.077V745.507H813.026C814.079 745.421 815.035 745.206 815.895 744.862C816.775 744.497 817.527 744.014 818.15 743.412C818.795 742.811 819.289 742.091 819.633 741.253C819.977 740.394 820.148 739.416 820.148 738.32V733.035C820.148 732.562 820.084 732.208 819.955 731.972C819.848 731.714 819.697 731.531 819.504 731.424C819.332 731.295 819.139 731.22 818.924 731.198C818.73 731.177 818.548 731.166 818.376 731.166H790.726V769H782.347V727.009C782.347 726.429 782.454 725.881 782.669 725.365C782.884 724.85 783.174 724.398 783.539 724.012C783.926 723.625 784.377 723.324 784.893 723.109C785.408 722.895 785.967 722.787 786.568 722.787H818.376C820.245 722.787 821.824 723.131 823.113 723.818C824.402 724.484 825.444 725.333 826.239 726.364C827.056 727.374 827.636 728.47 827.979 729.651C828.345 730.833 828.527 731.939 828.527 732.971V738.32ZM882.926 722.787L861.044 767.356C860.7 768.044 860.185 768.592 859.497 769C858.831 769.43 858.09 769.645 857.273 769.645C856.479 769.645 855.737 769.43 855.05 769C854.384 768.592 853.868 768.044 853.503 767.356L831.653 722.787H841.031L857.273 756.077L873.58 722.787H882.926ZM925.658 750.115H899.2V741.672H925.658V750.115ZM929.429 769H899.2C898.04 769 896.772 768.796 895.397 768.388C894.022 767.979 892.744 767.313 891.562 766.39C890.402 765.444 889.425 764.23 888.63 762.748C887.856 761.244 887.47 759.407 887.47 757.237V727.009C887.47 726.429 887.577 725.881 887.792 725.365C888.007 724.85 888.297 724.398 888.662 724.012C889.049 723.625 889.5 723.324 890.016 723.109C890.531 722.895 891.09 722.787 891.691 722.787H929.429V731.166H895.849V757.237C895.849 758.333 896.139 759.171 896.719 759.751C897.299 760.331 898.147 760.621 899.265 760.621H929.429V769ZM983.73 738.32C983.73 740.232 983.494 741.94 983.021 743.444C982.549 744.948 981.904 746.28 981.088 747.44C980.293 748.579 979.369 749.557 978.316 750.373C977.264 751.189 976.157 751.866 974.997 752.403C973.858 752.919 972.698 753.295 971.517 753.531C970.356 753.768 969.261 753.886 968.229 753.886L985.729 769H972.773L955.307 753.886H949.28V745.507H968.229C969.282 745.421 970.238 745.206 971.098 744.862C971.979 744.497 972.73 744.014 973.354 743.412C973.998 742.811 974.492 742.091 974.836 741.253C975.18 740.394 975.352 739.416 975.352 738.32V733.035C975.352 732.562 975.287 732.208 975.158 731.972C975.051 731.714 974.9 731.531 974.707 731.424C974.535 731.295 974.342 731.22 974.127 731.198C973.934 731.177 973.751 731.166 973.579 731.166H945.929V769H937.55V727.009C937.55 726.429 937.657 725.881 937.872 725.365C938.087 724.85 938.377 724.398 938.742 724.012C939.129 723.625 939.58 723.324 940.096 723.109C940.611 722.895 941.17 722.787 941.771 722.787H973.579C975.448 722.787 977.027 723.131 978.316 723.818C979.605 724.484 980.647 725.333 981.442 726.364C982.259 727.374 982.839 728.47 983.183 729.651C983.548 730.833 983.73 731.939 983.73 732.971V738.32ZM1051.21 750.115H1024.75V741.672H1051.21V750.115ZM1054.98 769H1024.75C1023.59 769 1022.33 768.796 1020.95 768.388C1019.58 767.979 1018.3 767.313 1017.12 766.39C1015.96 765.444 1014.98 764.23 1014.18 762.748C1013.41 761.244 1013.02 759.407 1013.02 757.237V727.009C1013.02 726.429 1013.13 725.881 1013.35 725.365C1013.56 724.85 1013.85 724.398 1014.22 724.012C1014.6 723.625 1015.05 723.324 1015.57 723.109C1016.09 722.895 1016.64 722.787 1017.25 722.787H1054.98V731.166H1021.4V757.237C1021.4 758.333 1021.69 759.171 1022.27 759.751C1022.85 760.331 1023.7 760.621 1024.82 760.621H1054.98V769ZM1109.29 738.32C1109.29 740.232 1109.05 741.94 1108.58 743.444C1108.1 744.948 1107.46 746.28 1106.64 747.44C1105.85 748.579 1104.92 749.557 1103.87 750.373C1102.82 751.189 1101.71 751.866 1100.55 752.403C1099.41 752.919 1098.25 753.295 1097.07 753.531C1095.91 753.768 1094.82 753.886 1093.78 753.886L1111.28 769H1098.33L1080.86 753.886H1074.83V745.507H1093.78C1094.84 745.421 1095.79 745.206 1096.65 744.862C1097.53 744.497 1098.29 744.014 1098.91 743.412C1099.55 742.811 1100.05 742.091 1100.39 741.253C1100.73 740.394 1100.91 739.416 1100.91 738.32V733.035C1100.91 732.562 1100.84 732.208 1100.71 731.972C1100.61 731.714 1100.46 731.531 1100.26 731.424C1100.09 731.295 1099.9 731.22 1099.68 731.198C1099.49 731.177 1099.31 731.166 1099.13 731.166H1071.48V769H1063.1V727.009C1063.1 726.429 1063.21 725.881 1063.43 725.365C1063.64 724.85 1063.93 724.398 1064.3 724.012C1064.68 723.625 1065.13 723.324 1065.65 723.109C1066.17 722.895 1066.72 722.787 1067.33 722.787H1099.13C1101 722.787 1102.58 723.131 1103.87 723.818C1105.16 724.484 1106.2 725.333 1107 726.364C1107.81 727.374 1108.39 728.47 1108.74 729.651C1109.1 730.833 1109.29 731.939 1109.29 732.971V738.32ZM1163.88 738.32C1163.88 740.232 1163.64 741.94 1163.17 743.444C1162.7 744.948 1162.05 746.28 1161.23 747.44C1160.44 748.579 1159.52 749.557 1158.46 750.373C1157.41 751.189 1156.3 751.866 1155.14 752.403C1154 752.919 1152.84 753.295 1151.66 753.531C1150.5 753.768 1149.41 753.886 1148.38 753.886L1165.88 769H1152.92L1135.45 753.886H1129.43V745.507H1148.38C1149.43 745.421 1150.38 745.206 1151.24 744.862C1152.12 744.497 1152.88 744.014 1153.5 743.412C1154.14 742.811 1154.64 742.091 1154.98 741.253C1155.33 740.394 1155.5 739.416 1155.5 738.32V733.035C1155.5 732.562 1155.43 732.208 1155.3 731.972C1155.2 731.714 1155.05 731.531 1154.85 731.424C1154.68 731.295 1154.49 731.22 1154.27 731.198C1154.08 731.177 1153.9 731.166 1153.73 731.166H1126.08V769H1117.7V727.009C1117.7 726.429 1117.8 725.881 1118.02 725.365C1118.23 724.85 1118.52 724.398 1118.89 724.012C1119.28 723.625 1119.73 723.324 1120.24 723.109C1120.76 722.895 1121.32 722.787 1121.92 722.787H1153.73C1155.59 722.787 1157.17 723.131 1158.46 723.818C1159.75 724.484 1160.79 725.333 1161.59 726.364C1162.41 727.374 1162.99 728.47 1163.33 729.651C1163.69 730.833 1163.88 731.939 1163.88 732.971V738.32ZM1220.79 750.309C1220.79 753.123 1220.31 755.712 1219.34 758.075C1218.37 760.438 1217.03 762.479 1215.31 764.198C1213.59 765.917 1211.55 767.26 1209.19 768.227C1206.85 769.172 1204.29 769.645 1201.52 769.645H1190.17C1187.4 769.645 1184.83 769.172 1182.47 768.227C1180.11 767.26 1178.07 765.917 1176.35 764.198C1174.63 762.479 1173.28 760.438 1172.29 758.075C1171.32 755.712 1170.84 753.123 1170.84 750.309V741.479C1170.84 738.686 1171.32 736.107 1172.29 733.744C1173.28 731.359 1174.63 729.318 1176.35 727.621C1178.07 725.902 1180.11 724.56 1182.47 723.593C1184.83 722.626 1187.4 722.143 1190.17 722.143H1201.52C1204.29 722.143 1206.85 722.626 1209.19 723.593C1211.55 724.56 1213.59 725.902 1215.31 727.621C1217.03 729.318 1218.37 731.359 1219.34 733.744C1220.31 736.107 1220.79 738.686 1220.79 741.479V750.309ZM1212.41 741.479C1212.41 739.824 1212.14 738.331 1211.6 736.999C1211.09 735.646 1210.35 734.496 1209.38 733.551C1208.44 732.584 1207.29 731.843 1205.93 731.327C1204.6 730.79 1203.13 730.521 1201.52 730.521H1190.17C1188.54 730.521 1187.05 730.79 1185.69 731.327C1184.36 731.843 1183.21 732.584 1182.25 733.551C1181.28 734.496 1180.53 735.646 1179.99 736.999C1179.47 738.331 1179.22 739.824 1179.22 741.479V750.309C1179.22 751.963 1179.47 753.467 1179.99 754.82C1180.53 756.152 1181.28 757.302 1182.25 758.269C1183.21 759.214 1184.36 759.955 1185.69 760.492C1187.05 761.008 1188.54 761.266 1190.17 761.266H1201.45C1203.09 761.266 1204.57 761.008 1205.9 760.492C1207.25 759.955 1208.41 759.214 1209.38 758.269C1210.35 757.302 1211.09 756.152 1211.6 754.82C1212.14 753.467 1212.41 751.963 1212.41 750.309V741.479ZM1275.25 738.32C1275.25 740.232 1275.02 741.94 1274.54 743.444C1274.07 744.948 1273.43 746.28 1272.61 747.44C1271.81 748.579 1270.89 749.557 1269.84 750.373C1268.79 751.189 1267.68 751.866 1266.52 752.403C1265.38 752.919 1264.22 753.295 1263.04 753.531C1261.88 753.768 1260.78 753.886 1259.75 753.886L1277.25 769H1264.29L1246.83 753.886H1240.8V745.507H1259.75C1260.8 745.421 1261.76 745.206 1262.62 744.862C1263.5 744.497 1264.25 744.014 1264.88 743.412C1265.52 742.811 1266.01 742.091 1266.36 741.253C1266.7 740.394 1266.87 739.416 1266.87 738.32V733.035C1266.87 732.562 1266.81 732.208 1266.68 731.972C1266.57 731.714 1266.42 731.531 1266.23 731.424C1266.06 731.295 1265.86 731.22 1265.65 731.198C1265.46 731.177 1265.27 731.166 1265.1 731.166H1237.45V769H1229.07V727.009C1229.07 726.429 1229.18 725.881 1229.39 725.365C1229.61 724.85 1229.9 724.398 1230.26 724.012C1230.65 723.625 1231.1 723.324 1231.62 723.109C1232.13 722.895 1232.69 722.787 1233.29 722.787H1265.1C1266.97 722.787 1268.55 723.131 1269.84 723.818C1271.13 724.484 1272.17 725.333 1272.96 726.364C1273.78 727.374 1274.36 728.47 1274.7 729.651C1275.07 730.833 1275.25 731.939 1275.25 732.971V738.32Z" fill="#A277FF"/>
</g>
<defs>
<filter id="filter0_dd_2041_4" x="466.939" y="380.827" width="988.854" height="323.173" filterUnits="userSpaceOnUse" color-interpolation-filters="sRGB">
<feFlood flood-opacity="0" result="BackgroundImageFix"/>
<feColorMatrix in="SourceAlpha" type="matrix" values="0 0 0 0 0 0 0 0 0 0 0 0 0 0 0 0 0 0 127 0" result="hardAlpha"/>
<feOffset/>
<feGaussianBlur stdDeviation="12.5"/>
<feComposite in2="hardAlpha" operator="out"/>
<feColorMatrix type="matrix" values="0 0 0 0 0.380392 0 0 0 0 1 0 0 0 0 0.792157 0 0 0 1 0"/>
<feBlend mode="normal" in2="BackgroundImageFix" result="effect1_dropShadow_2041_4"/>
<feColorMatrix in="SourceAlpha" type="matrix" values="0 0 0 0 0 0 0 0 0 0 0 0 0 0 0 0 0 0 127 0" result="hardAlpha"/>
<feOffset dy="4"/>
<feGaussianBlur stdDeviation="2"/>
<feComposite in2="hardAlpha" operator="out"/>
<feColorMatrix type="matrix" values="0 0 0 0 0 0 0 0 0 0 0 0 0 0 0 0 0 0 0.25 0"/>
<feBlend mode="normal" in2="effect1_dropShadow_2041_4" result="effect2_dropShadow_2041_4"/>
<feBlend mode="normal" in="SourceGraphic" in2="effect2_dropShadow_2041_4" result="shape"/>
</filter>
<filter id="filter1_d_2041_4" x="274.134" y="711.981" width="1043.12" height="87.6631" filterUnits="userSpaceOnUse" color-interpolation-filters="sRGB">
<feFlood flood-opacity="0" result="BackgroundImageFix"/>
<feColorMatrix in="SourceAlpha" type="matrix" values="0 0 0 0 0 0 0 0 0 0 0 0 0 0 0 0 0 0 127 0" result="hardAlpha"/>
<feOffset dx="20" dy="10"/>
<feGaussianBlur stdDeviation="10"/>
<feComposite in2="hardAlpha" operator="out"/>
<feColorMatrix type="matrix" values="0 0 0 0 0 0 0 0 0 0 0 0 0 0 0 0 0 0 0.55 0"/>
<feBlend mode="normal" in2="BackgroundImageFix" result="effect1_dropShadow_2041_4"/>
<feBlend mode="normal" in="SourceGraphic" in2="effect1_dropShadow_2041_4" result="shape"/>
</filter>
</defs>
</svg>
