<svg width="295" height="113" viewBox="0 0 295 113" fill="none" xmlns="http://www.w3.org/2000/svg">
<g filter="url(#filter0_d_2027_4)">
<path d="M18 57C18 37.67 33.67 22 53 22H249C268.33 22 284 37.67 284 57C284 76.33 268.33 92 249 92H53C33.67 92 18 76.33 18 57Z" fill="url(#paint0_linear_2027_4)"/>
</g>
<g filter="url(#filter1_d_2027_4)">
<path d="M96.1549 72C96.1549 67.072 96.1549 62.0853 96.1549 57.04C96.1549 51.9947 96.1549 47.008 96.1549 42.08C97.9736 42.08 99.7923 42.08 101.611 42.08C103.459 42.08 105.278 42.08 107.067 42.08C109.091 42.08 110.866 42.4467 112.391 43.18C113.916 43.884 115.104 44.8813 115.955 46.172C116.806 47.4333 117.231 48.9293 117.231 50.66C117.231 51.892 116.996 53.0067 116.527 54.004C116.058 55.0013 115.354 55.8373 114.415 56.512C115.647 57.2453 116.586 58.1987 117.231 59.372C117.876 60.516 118.199 61.792 118.199 63.2C118.199 64.96 117.744 66.5 116.835 67.82C115.955 69.14 114.708 70.1667 113.095 70.9C111.511 71.6333 109.648 72 107.507 72C105.63 72 103.738 72 101.831 72C99.9243 72 98.0323 72 96.1549 72ZM109.531 51.408C109.531 50.6453 109.296 50.0293 108.827 49.56C108.358 49.0613 107.742 48.812 106.979 48.812C106.451 48.812 105.908 48.812 105.351 48.812C104.823 48.812 104.295 48.812 103.767 48.812C103.767 49.6333 103.767 50.484 103.767 51.364C103.767 52.2147 103.767 53.0653 103.767 53.916C104.295 53.916 104.823 53.916 105.351 53.916C105.908 53.916 106.451 53.916 106.979 53.916C107.742 53.916 108.358 53.696 108.827 53.256C109.296 52.7867 109.531 52.1707 109.531 51.408ZM110.499 62.496C110.499 61.6747 110.22 61.0293 109.663 60.56C109.135 60.0613 108.402 59.812 107.463 59.812C106.847 59.812 106.231 59.812 105.615 59.812C104.999 59.812 104.383 59.812 103.767 59.812C103.767 60.7213 103.767 61.6307 103.767 62.54C103.767 63.4493 103.767 64.3587 103.767 65.268C104.383 65.268 104.999 65.268 105.615 65.268C106.231 65.268 106.847 65.268 107.463 65.268C108.402 65.268 109.135 65.0187 109.663 64.52C110.22 64.0213 110.499 63.3467 110.499 62.496ZM119.506 72C121.031 67.072 122.557 62.0853 124.082 57.04C125.637 51.9947 127.177 47.008 128.702 42.08C130.433 42.08 132.178 42.08 133.938 42.08C135.727 42.08 137.487 42.08 139.218 42.08C140.743 47.008 142.269 51.9947 143.794 57.04C145.349 62.0853 146.889 67.072 148.414 72C147.153 72 145.862 72 144.542 72C143.251 72 141.961 72 140.67 72C140.377 71.0613 140.098 70.1227 139.834 69.184C139.57 68.216 139.291 67.2627 138.998 66.324C137.326 66.324 135.639 66.324 133.938 66.324C132.266 66.324 130.594 66.324 128.922 66.324C128.629 67.2627 128.35 68.216 128.086 69.184C127.822 70.1227 127.543 71.0613 127.25 72C125.989 72 124.698 72 123.378 72C122.087 72 120.797 72 119.506 72ZM130.858 59.768C131.885 59.768 132.911 59.768 133.938 59.768C134.994 59.768 136.035 59.768 137.062 59.768C136.563 58.0373 136.05 56.292 135.522 54.532C134.994 52.772 134.481 51.0267 133.982 49.296C133.483 51.0267 132.955 52.772 132.398 54.532C131.87 56.292 131.357 58.0373 130.858 59.768ZM148.928 57.04C148.928 54.7813 149.28 52.728 149.984 50.88C150.718 49.0027 151.744 47.3747 153.064 45.996C154.384 44.6173 155.968 43.5467 157.816 42.784C159.664 42.0213 161.703 41.6107 163.932 41.552C166.191 41.4933 168.596 41.8453 171.148 42.608C171.148 43.84 171.148 45.0867 171.148 46.348C171.148 47.58 171.148 48.812 171.148 50.044C169.418 49.2227 167.702 48.7533 166 48.636C164.299 48.5187 162.759 48.7533 161.38 49.34C160.002 49.9267 158.902 50.8653 158.08 52.156C157.259 53.4173 156.848 55.0453 156.848 57.04C156.848 59.0347 157.259 60.6773 158.08 61.968C158.902 63.2293 160.002 64.1533 161.38 64.74C162.759 65.3267 164.299 65.5613 166 65.444C167.702 65.3267 169.418 64.8573 171.148 64.036C171.148 65.268 171.148 66.5147 171.148 67.776C171.148 69.008 171.148 70.24 171.148 71.472C168.596 72.2347 166.191 72.5867 163.932 72.528C161.703 72.4693 159.664 72.0587 157.816 71.296C155.968 70.5333 154.384 69.4627 153.064 68.084C151.744 66.7053 150.718 65.092 149.984 63.244C149.28 61.3667 148.928 59.2987 148.928 57.04ZM176.206 72C176.206 67.072 176.206 62.0853 176.206 57.04C176.206 51.9947 176.206 47.008 176.206 42.08C177.496 42.08 178.787 42.08 180.078 42.08C181.368 42.08 182.644 42.08 183.906 42.08C183.906 43.9867 183.906 45.9227 183.906 47.888C183.906 49.824 183.906 51.7453 183.906 53.652C185.402 51.7453 186.898 49.824 188.394 47.888C189.919 45.9227 191.43 43.9867 192.926 42.08C194.363 42.08 195.815 42.08 197.282 42.08C198.748 42.08 200.2 42.08 201.638 42.08C199.79 44.4267 197.912 46.8027 196.006 49.208C194.128 51.584 192.266 53.9453 190.418 56.292C192.354 58.8733 194.304 61.484 196.27 64.124C198.264 66.764 200.23 69.3893 202.166 72C200.64 72 199.1 72 197.546 72C196.02 72 194.495 72 192.97 72C191.474 69.9173 189.963 67.8347 188.438 65.752C186.912 63.64 185.402 61.5573 183.906 59.504C183.906 61.5573 183.906 63.64 183.906 65.752C183.906 67.8347 183.906 69.9173 183.906 72C182.644 72 181.368 72 180.078 72C178.787 72 177.496 72 176.206 72Z" fill="#EDECEE"/>
</g>
<defs>
<filter id="filter0_d_2027_4" x="14" y="22" width="274" height="83" filterUnits="userSpaceOnUse" color-interpolation-filters="sRGB">
<feFlood flood-opacity="0" result="BackgroundImageFix"/>
<feColorMatrix in="SourceAlpha" type="matrix" values="0 0 0 0 0 0 0 0 0 0 0 0 0 0 0 0 0 0 127 0" result="hardAlpha"/>
<feOffset dy="9"/>
<feGaussianBlur stdDeviation="2"/>
<feComposite in2="hardAlpha" operator="out"/>
<feColorMatrix type="matrix" values="0 0 0 0 0 0 0 0 0 0 0 0 0 0 0 0 0 0 0.25 0"/>
<feBlend mode="normal" in2="BackgroundImageFix" result="effect1_dropShadow_2027_4"/>
<feBlend mode="normal" in="SourceGraphic" in2="effect1_dropShadow_2027_4" result="shape"/>
</filter>
<filter id="filter1_d_2027_4" x="96.1549" y="41.464" width="110.111" height="37.252" filterUnits="userSpaceOnUse" color-interpolation-filters="sRGB">
<feFlood flood-opacity="0" result="BackgroundImageFix"/>
<feColorMatrix in="SourceAlpha" type="matrix" values="0 0 0 0 0 0 0 0 0 0 0 0 0 0 0 0 0 0 127 0" result="hardAlpha"/>
<feOffset dx="4" dy="6"/>
<feGaussianBlur stdDeviation="0.05"/>
<feComposite in2="hardAlpha" operator="out"/>
<feColorMatrix type="matrix" values="0 0 0 0 0 0 0 0 0 0 0 0 0 0 0 0 0 0 0.25 0"/>
<feBlend mode="normal" in2="BackgroundImageFix" result="effect1_dropShadow_2027_4"/>
<feBlend mode="normal" in="SourceGraphic" in2="effect1_dropShadow_2027_4" result="shape"/>
</filter>
<linearGradient id="paint0_linear_2027_4" x1="-65" y1="22" x2="274" y2="92" gradientUnits="userSpaceOnUse">
<stop stop-color="#61FFCA"/>
<stop offset="1" stop-color="#A277FF"/>
</linearGradient>
</defs>
</svg>
