<svg width="620" height="222" viewBox="0 0 620 222" fill="none" xmlns="http://www.w3.org/2000/svg">
<g filter="url(#filter0_d_2013_51)">
<g filter="url(#filter1_i_2013_51)">
<path d="M191.157 66.7422C191.157 69.002 190.878 71.0205 190.319 72.7979C189.761 74.5752 188.999 76.1494 188.034 77.5205C187.095 78.8662 186.003 80.0215 184.759 80.9863C183.515 81.9512 182.207 82.751 180.836 83.3857C179.49 83.9951 178.119 84.4395 176.723 84.7188C175.352 84.998 174.057 85.1377 172.838 85.1377L193.519 103H178.208L157.565 85.1377H150.443V75.2354H172.838C174.082 75.1338 175.212 74.8799 176.228 74.4736C177.269 74.042 178.157 73.4707 178.894 72.7598C179.655 72.0488 180.239 71.1982 180.646 70.208C181.052 69.1924 181.255 68.0371 181.255 66.7422V60.4961C181.255 59.9375 181.179 59.5186 181.026 59.2393C180.899 58.9346 180.722 58.7188 180.493 58.5918C180.29 58.4395 180.062 58.3506 179.808 58.3252C179.579 58.2998 179.363 58.2871 179.16 58.2871H146.482V103H136.58V53.374C136.58 52.6885 136.707 52.041 136.961 51.4316C137.215 50.8223 137.558 50.2891 137.989 49.832C138.446 49.375 138.979 49.0195 139.589 48.7656C140.198 48.5117 140.858 48.3848 141.569 48.3848H179.16C181.369 48.3848 183.235 48.791 184.759 49.6035C186.282 50.3906 187.514 51.3936 188.453 52.6123C189.418 53.8057 190.104 55.1006 190.51 56.4971C190.941 57.8936 191.157 59.2012 191.157 60.4199V66.7422ZM246.001 80.6816H214.732V70.7031H246.001V80.6816ZM250.457 103H214.732C213.361 103 211.863 102.759 210.238 102.276C208.613 101.794 207.103 101.007 205.706 99.915C204.335 98.7979 203.18 97.3633 202.24 95.6113C201.326 93.834 200.869 91.6631 200.869 89.0986V53.374C200.869 52.6885 200.996 52.041 201.25 51.4316C201.504 50.8223 201.847 50.2891 202.278 49.832C202.735 49.375 203.269 49.0195 203.878 48.7656C204.487 48.5117 205.147 48.3848 205.858 48.3848H250.457V58.2871H210.771V89.0986C210.771 90.3936 211.114 91.3838 211.8 92.0693C212.485 92.7549 213.488 93.0977 214.809 93.0977H250.457V103ZM312.309 86.9277C312.309 88.8828 312.055 90.6475 311.547 92.2217C311.064 93.7705 310.417 95.1416 309.604 96.335C308.792 97.5283 307.84 98.5439 306.748 99.3818C305.656 100.22 304.526 100.905 303.358 101.438C302.19 101.972 300.997 102.365 299.778 102.619C298.585 102.873 297.455 103 296.389 103H258.188V93.0977H296.389C298.293 93.0977 299.766 92.5391 300.807 91.4219C301.873 90.3047 302.406 88.8066 302.406 86.9277C302.406 86.0137 302.267 85.1758 301.987 84.4141C301.708 83.6523 301.302 82.9922 300.769 82.4336C300.261 81.875 299.626 81.4434 298.864 81.1387C298.128 80.834 297.303 80.6816 296.389 80.6816H273.613C272.014 80.6816 270.287 80.4023 268.434 79.8438C266.58 79.2598 264.854 78.333 263.254 77.0635C261.68 75.7939 260.359 74.1309 259.293 72.0742C258.252 70.0176 257.731 67.5039 257.731 64.5332C257.731 61.5625 258.252 59.0615 259.293 57.0303C260.359 54.9736 261.68 53.3105 263.254 52.041C264.854 50.7461 266.58 49.8193 268.434 49.2607C270.287 48.6768 272.014 48.3848 273.613 48.3848H307.319V58.2871H273.613C271.734 58.2871 270.262 58.8584 269.195 60.001C268.154 61.1436 267.634 62.6543 267.634 64.5332C267.634 66.4375 268.154 67.9482 269.195 69.0654C270.262 70.1572 271.734 70.7031 273.613 70.7031H296.389H296.465C297.531 70.7285 298.661 70.8809 299.854 71.1602C301.048 71.4141 302.229 71.8203 303.396 72.3789C304.59 72.9375 305.72 73.6484 306.786 74.5117C307.853 75.3496 308.792 76.3652 309.604 77.5586C310.442 78.752 311.103 80.123 311.585 81.6719C312.067 83.2207 312.309 84.9727 312.309 86.9277ZM374.046 98.0107C374.046 98.7217 373.919 99.3818 373.665 99.9912C373.411 100.601 373.056 101.134 372.599 101.591C372.142 102.022 371.608 102.365 370.999 102.619C370.39 102.873 369.742 103 369.057 103H346.738C344.631 103 342.498 102.771 340.34 102.314C338.182 101.857 336.087 101.159 334.056 100.22C332.05 99.2549 330.158 98.0361 328.381 96.5635C326.604 95.0908 325.042 93.3516 323.696 91.3457C322.376 89.3145 321.335 87.0039 320.573 84.4141C319.812 81.7988 319.431 78.8916 319.431 75.6924V48.3848H329.333V75.6924C329.333 78.4854 329.714 80.8467 330.476 82.7764C331.263 84.7061 332.253 86.3184 333.446 87.6133C334.64 88.9082 335.947 89.9238 337.369 90.6602C338.791 91.3965 340.137 91.9424 341.406 92.2979C342.701 92.6533 343.831 92.8818 344.796 92.9834C345.786 93.0596 346.434 93.0977 346.738 93.0977H364.144V48.3848H374.046V98.0107ZM435.745 103H390.575C389.864 103 389.204 102.873 388.595 102.619C387.985 102.365 387.452 102.022 386.995 101.591C386.563 101.134 386.221 100.601 385.967 99.9912C385.713 99.3818 385.586 98.7217 385.586 98.0107V48.3848H395.488V93.0977H435.745V103ZM484.609 58.2871H462.786V103H452.884V58.2871H431.022V48.3848H484.609V58.2871Z" fill="#FFAF54"/>
</g>
<g filter="url(#filter2_i_2013_51)">
<path d="M83.8613 144.54H77.4326V156.166H73.7085V144.54H68.9224V140.859H73.7085V135.86H77.4326V140.859H83.8613V144.54ZM103.303 156.166H99.6216V146.013C99.6216 145.532 99.4989 145.168 99.2534 144.923C99.008 144.668 98.6398 144.54 98.1489 144.54H91.5078V140.859H98.1489C98.4982 140.859 98.8664 140.901 99.2534 140.986C99.6405 141.062 100.023 141.184 100.4 141.354C100.787 141.524 101.156 141.746 101.505 142.02C101.854 142.284 102.161 142.61 102.425 142.997C102.69 143.374 102.902 143.813 103.062 144.314C103.223 144.814 103.303 145.381 103.303 146.013V156.166ZM90.021 156.166H86.3394V134.388H90.021V156.166ZM122.476 151.096C122.476 151.606 122.386 152.159 122.207 152.753C122.028 153.339 121.735 153.886 121.329 154.396C120.933 154.896 120.409 155.316 119.757 155.656C119.115 155.996 118.332 156.166 117.407 156.166H110.766C110.256 156.166 109.704 156.076 109.109 155.897C108.524 155.717 107.976 155.43 107.466 155.033C106.966 154.627 106.546 154.103 106.206 153.461C105.866 152.81 105.696 152.022 105.696 151.096C105.696 150.587 105.786 150.034 105.965 149.44C106.145 148.845 106.433 148.298 106.829 147.797C107.235 147.287 107.759 146.863 108.401 146.523C109.052 146.183 109.84 146.013 110.766 146.013H117.407V149.525H110.766C110.265 149.525 109.878 149.68 109.604 149.992C109.331 150.294 109.194 150.672 109.194 151.125C109.194 151.606 109.35 151.984 109.661 152.258C109.982 152.522 110.36 152.654 110.794 152.654H117.407C117.907 152.654 118.294 152.503 118.568 152.201C118.842 151.899 118.979 151.521 118.979 151.068V145.928C118.979 145.447 118.827 145.064 118.525 144.781C118.233 144.498 117.86 144.356 117.407 144.356H109.321V140.859H117.407C117.917 140.859 118.464 140.948 119.049 141.128C119.644 141.307 120.192 141.6 120.692 142.006C121.202 142.402 121.626 142.926 121.966 143.577C122.306 144.219 122.476 145.003 122.476 145.928V151.096ZM142.583 156.166H138.902V147.67C138.902 147.188 138.817 146.759 138.647 146.381C138.486 145.994 138.265 145.664 137.981 145.39C137.698 145.116 137.363 144.909 136.976 144.767C136.598 144.616 136.188 144.54 135.744 144.54H129.301V156.166H125.62V142.685C125.62 142.43 125.667 142.194 125.761 141.977C125.856 141.751 125.988 141.557 126.158 141.397C126.328 141.227 126.526 141.095 126.752 141C126.979 140.906 127.22 140.859 127.475 140.859H135.772C136.235 140.859 136.721 140.911 137.231 141.014C137.75 141.118 138.26 141.288 138.76 141.524C139.27 141.751 139.751 142.043 140.205 142.402C140.667 142.751 141.073 143.181 141.422 143.691C141.781 144.191 142.064 144.772 142.272 145.432C142.48 146.093 142.583 146.839 142.583 147.67V156.166ZM163.795 156.166H158.485L151.065 149.001C150.65 148.623 150.457 148.151 150.485 147.585C150.504 147.32 150.57 147.075 150.683 146.848C150.806 146.612 150.971 146.414 151.179 146.254L157.905 140.83H163.795L155.129 147.811L163.795 156.166ZM149.55 156.166H145.869V134.388H149.55V156.166ZM180.66 150.997C180.66 151.63 180.58 152.201 180.419 152.711C180.259 153.211 180.047 153.655 179.782 154.042C179.518 154.419 179.211 154.745 178.862 155.019C178.513 155.283 178.144 155.5 177.757 155.67C177.38 155.84 176.993 155.968 176.596 156.053C176.209 156.128 175.841 156.166 175.492 156.166H165.523V152.484H175.463C175.964 152.484 176.341 152.357 176.596 152.102C176.851 151.847 176.979 151.479 176.979 150.997C176.931 150.016 176.436 149.525 175.492 149.525H169.785C168.973 149.525 168.284 149.383 167.718 149.1C167.151 148.817 166.689 148.463 166.33 148.038C165.981 147.613 165.726 147.155 165.565 146.664C165.414 146.173 165.339 145.716 165.339 145.291C165.339 144.47 165.485 143.78 165.778 143.223C166.07 142.657 166.439 142.199 166.882 141.85C167.326 141.501 167.807 141.25 168.327 141.099C168.846 140.939 169.332 140.859 169.785 140.859H178.833V144.54H169.813C169.625 144.54 169.474 144.564 169.36 144.611C169.257 144.649 169.176 144.706 169.12 144.781C169.072 144.847 169.044 144.923 169.035 145.008C169.025 145.083 169.021 145.159 169.021 145.234C169.03 145.385 169.058 145.503 169.105 145.588C169.153 145.673 169.209 145.735 169.275 145.772C169.351 145.81 169.431 145.834 169.516 145.843C169.611 145.843 169.7 145.843 169.785 145.843H175.492C176.436 145.843 177.238 146.013 177.899 146.353C178.56 146.693 179.093 147.122 179.499 147.641C179.905 148.151 180.198 148.708 180.377 149.312C180.566 149.916 180.66 150.478 180.66 150.997ZM206.233 144.54H197.907V140.859H206.233V144.54ZM206.233 137.899H197.936C197.435 137.899 197.058 138.027 196.803 138.282C196.548 138.527 196.42 138.89 196.42 139.372V156.166H192.739V139.372C192.739 138.739 192.819 138.173 192.979 137.673C193.14 137.172 193.352 136.733 193.617 136.356C193.89 135.969 194.202 135.643 194.551 135.379C194.901 135.105 195.264 134.883 195.642 134.713C196.029 134.543 196.416 134.421 196.803 134.345C197.19 134.26 197.558 134.218 197.907 134.218H206.233V137.899ZM225.25 150.997C225.25 151.63 225.17 152.201 225.01 152.711C224.849 153.211 224.637 153.655 224.373 154.042C224.108 154.419 223.801 154.745 223.452 155.019C223.103 155.283 222.735 155.5 222.348 155.67C221.97 155.84 221.583 155.968 221.187 156.053C220.799 156.128 220.431 156.166 220.082 156.166H213.441C212.931 156.166 212.374 156.076 211.77 155.897C211.166 155.717 210.604 155.425 210.085 155.019C209.575 154.603 209.146 154.07 208.796 153.419C208.457 152.758 208.287 151.951 208.287 150.997V146.013C208.287 145.069 208.457 144.271 208.796 143.62C209.146 142.959 209.575 142.426 210.085 142.02C210.604 141.604 211.166 141.307 211.77 141.128C212.374 140.948 212.931 140.859 213.441 140.859H220.082C221.026 140.859 221.828 141.029 222.489 141.368C223.15 141.708 223.683 142.138 224.089 142.657C224.495 143.167 224.788 143.724 224.967 144.328C225.156 144.932 225.25 145.494 225.25 146.013V150.997ZM221.569 146.041C221.569 145.532 221.441 145.154 221.187 144.909C220.932 144.663 220.563 144.54 220.082 144.54H213.469C212.978 144.54 212.605 144.668 212.351 144.923C212.096 145.168 211.968 145.532 211.968 146.013V150.997C211.968 151.479 212.096 151.847 212.351 152.102C212.605 152.357 212.978 152.484 213.469 152.484H220.082C220.582 152.484 220.955 152.357 221.201 152.102C221.446 151.847 221.569 151.479 221.569 150.997V146.041ZM241.79 144.54H233.506C233.006 144.54 232.628 144.668 232.373 144.923C232.118 145.168 231.991 145.532 231.991 146.013V156.166H228.309V146.013C228.309 145.381 228.389 144.814 228.55 144.314C228.71 143.813 228.923 143.374 229.187 142.997C229.461 142.61 229.772 142.284 230.122 142.02C230.471 141.746 230.834 141.524 231.212 141.354C231.599 141.184 231.986 141.062 232.373 140.986C232.77 140.901 233.138 140.859 233.478 140.859H241.79V144.54ZM270.167 154.311C270.167 154.575 270.119 154.821 270.025 155.047C269.931 155.274 269.798 155.472 269.628 155.642C269.468 155.802 269.274 155.93 269.048 156.024C268.831 156.119 268.595 156.166 268.34 156.166H260.014C259.561 156.166 259.074 156.114 258.555 156.01C258.045 155.906 257.54 155.741 257.04 155.514C256.54 155.278 256.054 154.986 255.582 154.637C255.119 154.278 254.713 153.848 254.364 153.348C254.014 152.838 253.731 152.253 253.514 151.592C253.306 150.931 253.203 150.186 253.203 149.355V140.859H256.884V149.355C256.884 149.836 256.965 150.27 257.125 150.658C257.295 151.035 257.521 151.361 257.805 151.635C258.088 151.908 258.418 152.121 258.796 152.272C259.183 152.413 259.598 152.484 260.042 152.484H266.485V140.859H270.167V154.311ZM288.419 150.997C288.419 151.63 288.339 152.201 288.178 152.711C288.018 153.211 287.805 153.655 287.541 154.042C287.277 154.419 286.97 154.745 286.621 155.019C286.271 155.283 285.903 155.5 285.516 155.67C285.139 155.84 284.751 155.968 284.355 156.053C283.968 156.128 283.6 156.166 283.25 156.166H273.282V152.484H283.222C283.722 152.484 284.1 152.357 284.355 152.102C284.61 151.847 284.737 151.479 284.737 150.997C284.69 150.016 284.194 149.525 283.25 149.525H277.544C276.732 149.525 276.043 149.383 275.477 149.1C274.91 148.817 274.448 148.463 274.089 148.038C273.74 147.613 273.485 147.155 273.324 146.664C273.173 146.173 273.098 145.716 273.098 145.291C273.098 144.47 273.244 143.78 273.537 143.223C273.829 142.657 274.197 142.199 274.641 141.85C275.085 141.501 275.566 141.25 276.085 141.099C276.605 140.939 277.091 140.859 277.544 140.859H286.592V144.54H277.572C277.383 144.54 277.232 144.564 277.119 144.611C277.015 144.649 276.935 144.706 276.878 144.781C276.831 144.847 276.803 144.923 276.793 145.008C276.784 145.083 276.779 145.159 276.779 145.234C276.789 145.385 276.817 145.503 276.864 145.588C276.911 145.673 276.968 145.735 277.034 145.772C277.11 145.81 277.19 145.834 277.275 145.843C277.369 145.843 277.459 145.843 277.544 145.843H283.25C284.194 145.843 284.997 146.013 285.658 146.353C286.319 146.693 286.852 147.122 287.258 147.641C287.664 148.151 287.956 148.708 288.136 149.312C288.325 149.916 288.419 150.478 288.419 150.997ZM294.749 137.715H291.067V134.388H294.749V137.715ZM294.749 156.166H291.067V140.859H294.749V156.166ZM315.252 156.166H311.571V147.67C311.571 147.188 311.486 146.759 311.316 146.381C311.155 145.994 310.934 145.664 310.65 145.39C310.367 145.116 310.032 144.909 309.645 144.767C309.267 144.616 308.857 144.54 308.413 144.54H301.97V156.166H298.289V142.685C298.289 142.43 298.336 142.194 298.43 141.977C298.525 141.751 298.657 141.557 298.827 141.397C298.997 141.227 299.195 141.095 299.421 141C299.648 140.906 299.889 140.859 300.144 140.859H308.441C308.904 140.859 309.39 140.911 309.9 141.014C310.419 141.118 310.929 141.288 311.429 141.524C311.939 141.751 312.42 142.043 312.874 142.402C313.336 142.751 313.742 143.181 314.091 143.691C314.45 144.191 314.733 144.772 314.941 145.432C315.149 146.093 315.252 146.839 315.252 147.67V156.166ZM335.133 157.638C335.133 158.271 335.053 158.837 334.893 159.338C334.732 159.847 334.52 160.291 334.255 160.669C333.991 161.056 333.684 161.381 333.335 161.646C332.986 161.92 332.618 162.141 332.23 162.311C331.853 162.481 331.466 162.604 331.069 162.68C330.682 162.764 330.314 162.807 329.965 162.807H323.324V159.125H329.965C330.465 159.125 330.838 158.998 331.083 158.743C331.329 158.488 331.452 158.12 331.452 157.638V146.013C331.452 145.532 331.329 145.168 331.083 144.923C330.838 144.668 330.465 144.54 329.965 144.54H323.324C322.871 144.54 322.512 144.682 322.248 144.965C321.983 145.239 321.851 145.588 321.851 146.013V150.997C321.851 151.479 321.979 151.847 322.233 152.102C322.488 152.357 322.861 152.484 323.352 152.484H329.965V156.166H323.324C322.974 156.166 322.606 156.128 322.219 156.053C321.832 155.968 321.445 155.84 321.058 155.67C320.681 155.5 320.317 155.283 319.968 155.019C319.618 154.745 319.312 154.419 319.047 154.042C318.783 153.655 318.571 153.211 318.41 152.711C318.25 152.201 318.169 151.63 318.169 150.997V146.013C318.169 145.664 318.207 145.296 318.283 144.909C318.368 144.521 318.495 144.139 318.665 143.762C318.835 143.374 319.052 143.006 319.316 142.657C319.59 142.308 319.916 142.001 320.293 141.737C320.681 141.472 321.124 141.26 321.625 141.099C322.125 140.939 322.691 140.859 323.324 140.859H329.965C330.314 140.859 330.682 140.901 331.069 140.986C331.466 141.062 331.853 141.184 332.23 141.354C332.618 141.524 332.986 141.746 333.335 142.02C333.684 142.284 333.991 142.61 334.255 142.997C334.52 143.374 334.732 143.813 334.893 144.314C335.053 144.814 335.133 145.381 335.133 146.013V157.638ZM364.586 150.997C364.586 151.63 364.506 152.201 364.346 152.711C364.185 153.211 363.973 153.655 363.708 154.042C363.444 154.419 363.137 154.745 362.788 155.019C362.439 155.283 362.071 155.5 361.684 155.67C361.306 155.84 360.919 155.968 360.522 156.053C360.135 156.128 359.767 156.166 359.418 156.166H352.777C352.267 156.166 351.71 156.076 351.106 155.897C350.502 155.717 349.94 155.425 349.421 155.019C348.911 154.603 348.482 154.07 348.132 153.419C347.792 152.758 347.623 151.951 347.623 150.997V146.013C347.623 145.069 347.792 144.271 348.132 143.62C348.482 142.959 348.911 142.426 349.421 142.02C349.94 141.604 350.502 141.307 351.106 141.128C351.71 140.948 352.267 140.859 352.777 140.859H359.418C360.362 140.859 361.164 141.029 361.825 141.368C362.486 141.708 363.019 142.138 363.425 142.657C363.831 143.167 364.124 143.724 364.303 144.328C364.492 144.932 364.586 145.494 364.586 146.013V150.997ZM360.905 146.041C360.905 145.532 360.777 145.154 360.522 144.909C360.268 144.663 359.899 144.54 359.418 144.54H352.805C352.314 144.54 351.941 144.668 351.687 144.923C351.432 145.168 351.304 145.532 351.304 146.013V150.997C351.304 151.479 351.432 151.847 351.687 152.102C351.941 152.357 352.314 152.484 352.805 152.484H359.418C359.918 152.484 360.291 152.357 360.537 152.102C360.782 151.847 360.905 151.479 360.905 150.997V146.041ZM384.467 154.311C384.467 154.575 384.42 154.821 384.326 155.047C384.231 155.274 384.099 155.472 383.929 155.642C383.769 155.802 383.575 155.93 383.349 156.024C383.132 156.119 382.896 156.166 382.641 156.166H374.314C373.861 156.166 373.375 156.114 372.856 156.01C372.346 155.906 371.841 155.741 371.341 155.514C370.84 155.278 370.354 154.986 369.882 154.637C369.42 154.278 369.014 153.848 368.665 153.348C368.315 152.838 368.032 152.253 367.815 151.592C367.607 150.931 367.503 150.186 367.503 149.355V140.859H371.185V149.355C371.185 149.836 371.265 150.27 371.426 150.658C371.596 151.035 371.822 151.361 372.105 151.635C372.389 151.908 372.719 152.121 373.097 152.272C373.484 152.413 373.899 152.484 374.343 152.484H380.786V140.859H384.467V154.311ZM401.318 144.54H393.034C392.534 144.54 392.156 144.668 391.901 144.923C391.646 145.168 391.519 145.532 391.519 146.013V156.166H387.837V146.013C387.837 145.381 387.918 144.814 388.078 144.314C388.239 143.813 388.451 143.374 388.715 142.997C388.989 142.61 389.301 142.284 389.65 142.02C389.999 141.746 390.363 141.524 390.74 141.354C391.127 141.184 391.514 141.062 391.901 140.986C392.298 140.901 392.666 140.859 393.006 140.859H401.318V144.54ZM427.755 150.997C427.755 151.63 427.675 152.201 427.514 152.711C427.354 153.211 427.141 153.655 426.877 154.042C426.613 154.419 426.306 154.745 425.957 155.019C425.607 155.283 425.239 155.5 424.852 155.67C424.474 155.84 424.087 155.968 423.691 156.053C423.304 156.128 422.936 156.166 422.586 156.166H412.618V152.484H422.558C423.058 152.484 423.436 152.357 423.691 152.102C423.946 151.847 424.073 151.479 424.073 150.997C424.026 150.016 423.53 149.525 422.586 149.525H416.88C416.068 149.525 415.379 149.383 414.812 149.1C414.246 148.817 413.784 148.463 413.425 148.038C413.076 147.613 412.821 147.155 412.66 146.664C412.509 146.173 412.434 145.716 412.434 145.291C412.434 144.47 412.58 143.78 412.873 143.223C413.165 142.657 413.533 142.199 413.977 141.85C414.421 141.501 414.902 141.25 415.421 141.099C415.941 140.939 416.427 140.859 416.88 140.859H425.928V144.54H416.908C416.719 144.54 416.568 144.564 416.455 144.611C416.351 144.649 416.271 144.706 416.214 144.781C416.167 144.847 416.139 144.923 416.129 145.008C416.12 145.083 416.115 145.159 416.115 145.234C416.125 145.385 416.153 145.503 416.2 145.588C416.247 145.673 416.304 145.735 416.37 145.772C416.446 145.81 416.526 145.834 416.611 145.843C416.705 145.843 416.795 145.843 416.88 145.843H422.586C423.53 145.843 424.333 146.013 424.994 146.353C425.654 146.693 426.188 147.122 426.594 147.641C427 148.151 427.292 148.708 427.472 149.312C427.66 149.916 427.755 150.478 427.755 150.997ZM446.814 145.928C446.814 146.438 446.725 146.99 446.545 147.585C446.366 148.17 446.073 148.718 445.667 149.227C445.271 149.728 444.747 150.148 444.096 150.488C443.454 150.827 442.67 150.997 441.745 150.997H435.104V147.5H441.745C442.245 147.5 442.632 147.349 442.906 147.047C443.18 146.735 443.317 146.353 443.317 145.9C443.317 145.418 443.161 145.041 442.85 144.767C442.548 144.493 442.179 144.356 441.745 144.356H435.104C434.604 144.356 434.217 144.512 433.943 144.824C433.669 145.126 433.532 145.503 433.532 145.956V151.096C433.532 151.587 433.683 151.97 433.985 152.243C434.297 152.517 434.679 152.654 435.132 152.654H441.745V156.166H435.104C434.594 156.166 434.042 156.076 433.447 155.897C432.862 155.717 432.314 155.43 431.805 155.033C431.304 154.627 430.884 154.103 430.544 153.461C430.205 152.81 430.035 152.022 430.035 151.096V145.928C430.035 145.418 430.124 144.871 430.304 144.285C430.483 143.691 430.771 143.143 431.167 142.643C431.573 142.133 432.097 141.708 432.739 141.368C433.391 141.029 434.179 140.859 435.104 140.859H441.745C442.255 140.859 442.802 140.948 443.388 141.128C443.982 141.307 444.53 141.6 445.03 142.006C445.54 142.402 445.965 142.926 446.305 143.577C446.645 144.219 446.814 145.003 446.814 145.928ZM462.688 144.54H454.404C453.904 144.54 453.526 144.668 453.271 144.923C453.017 145.168 452.889 145.532 452.889 146.013V156.166H449.208V146.013C449.208 145.381 449.288 144.814 449.448 144.314C449.609 143.813 449.821 143.374 450.085 142.997C450.359 142.61 450.671 142.284 451.02 142.02C451.369 141.746 451.733 141.524 452.11 141.354C452.497 141.184 452.884 141.062 453.271 140.986C453.668 140.901 454.036 140.859 454.376 140.859H462.688V144.54ZM483.39 140.859C482.975 142.152 482.489 143.426 481.932 144.682C481.375 145.937 480.733 147.136 480.006 148.279C479.288 149.411 478.481 150.464 477.584 151.436C476.697 152.399 475.711 153.235 474.625 153.943C473.549 154.641 472.374 155.194 471.099 155.599C469.834 155.996 468.461 156.194 466.979 156.194C466.724 156.194 466.483 156.147 466.256 156.053C466.03 155.958 465.832 155.831 465.662 155.67C465.492 155.5 465.36 155.307 465.265 155.09C465.171 154.863 465.124 154.622 465.124 154.367V140.859H468.805V152.371C469.702 152.371 470.561 152.177 471.382 151.79C472.213 151.403 472.997 150.894 473.733 150.261C474.469 149.619 475.149 148.892 475.772 148.08C476.404 147.269 476.966 146.438 477.457 145.588C477.948 144.729 478.363 143.889 478.703 143.068C479.052 142.246 479.312 141.51 479.482 140.859H483.39ZM488.459 137.715H484.778V134.388H488.459V137.715ZM488.459 156.166H484.778V140.859H488.459V156.166ZM506.825 156.166H496.842C496.333 156.166 495.776 156.076 495.171 155.897C494.567 155.717 494.006 155.425 493.486 155.019C492.977 154.603 492.547 154.07 492.198 153.419C491.858 152.758 491.688 151.951 491.688 150.997V146.013C491.688 145.664 491.726 145.296 491.801 144.909C491.886 144.521 492.014 144.139 492.184 143.762C492.354 143.374 492.571 143.006 492.835 142.657C493.109 142.308 493.434 142.001 493.812 141.737C494.199 141.472 494.643 141.26 495.143 141.099C495.643 140.939 496.21 140.859 496.842 140.859H506.825V144.54H496.842C496.361 144.54 495.993 144.663 495.738 144.909C495.492 145.154 495.37 145.532 495.37 146.041V150.997C495.37 151.479 495.497 151.847 495.752 152.102C496.007 152.357 496.38 152.484 496.871 152.484H506.825V156.166ZM526.225 145.928C526.225 146.438 526.135 146.99 525.956 147.585C525.776 148.17 525.484 148.718 525.078 149.227C524.681 149.728 524.157 150.148 523.506 150.488C522.864 150.827 522.08 150.997 521.155 150.997H514.514V147.5H521.155C521.656 147.5 522.043 147.349 522.316 147.047C522.59 146.735 522.727 146.353 522.727 145.9C522.727 145.418 522.571 145.041 522.26 144.767C521.958 144.493 521.59 144.356 521.155 144.356H514.514C514.014 144.356 513.627 144.512 513.353 144.824C513.079 145.126 512.942 145.503 512.942 145.956V151.096C512.942 151.587 513.093 151.97 513.396 152.243C513.707 152.517 514.089 152.654 514.542 152.654H521.155V156.166H514.514C514.004 156.166 513.452 156.076 512.857 155.897C512.272 155.717 511.725 155.43 511.215 155.033C510.715 154.627 510.294 154.103 509.955 153.461C509.615 152.81 509.445 152.022 509.445 151.096V145.928C509.445 145.418 509.535 144.871 509.714 144.285C509.893 143.691 510.181 143.143 510.578 142.643C510.984 142.133 511.507 141.708 512.149 141.368C512.801 141.029 513.589 140.859 514.514 140.859H521.155C521.665 140.859 522.213 140.948 522.798 141.128C523.393 141.307 523.94 141.6 524.44 142.006C524.95 142.402 525.375 142.926 525.715 143.577C526.055 144.219 526.225 145.003 526.225 145.928ZM553.242 147.585C553.044 147.783 552.808 147.967 552.534 148.137C552.26 148.307 551.958 148.458 551.628 148.59C551.298 148.713 550.948 148.812 550.58 148.888C550.221 148.963 549.853 149.001 549.476 149.001C548.89 149.001 548.263 148.921 547.592 148.76C546.931 148.6 546.257 148.425 545.567 148.236C544.878 148.047 544.194 147.873 543.514 147.712C542.834 147.552 542.193 147.471 541.588 147.471C541.258 147.471 540.918 147.519 540.569 147.613C540.22 147.707 539.88 147.83 539.549 147.981C539.228 148.132 538.926 148.302 538.643 148.491C538.369 148.68 538.143 148.869 537.963 149.057V145.347C538.162 145.149 538.407 144.96 538.7 144.781C538.992 144.602 539.309 144.451 539.648 144.328C539.988 144.196 540.333 144.092 540.682 144.016C541.041 143.941 541.381 143.903 541.702 143.903C542.278 143.903 542.901 143.983 543.571 144.144C544.25 144.304 544.935 144.484 545.624 144.682C546.323 144.88 547.012 145.06 547.691 145.22C548.371 145.381 549.013 145.461 549.617 145.461C549.938 145.461 550.273 145.414 550.623 145.319C550.972 145.225 551.307 145.102 551.628 144.951C551.958 144.791 552.26 144.616 552.534 144.427C552.817 144.238 553.053 144.045 553.242 143.846V147.585Z" fill="#EDECEE"/>
</g>
</g>
<defs>
<filter id="filter0_d_2013_51" x="68.9224" y="48.3848" width="498.32" height="132.422" filterUnits="userSpaceOnUse" color-interpolation-filters="sRGB">
<feFlood flood-opacity="0" result="BackgroundImageFix"/>
<feColorMatrix in="SourceAlpha" type="matrix" values="0 0 0 0 0 0 0 0 0 0 0 0 0 0 0 0 0 0 127 0" result="hardAlpha"/>
<feOffset dx="10" dy="14"/>
<feGaussianBlur stdDeviation="2"/>
<feComposite in2="hardAlpha" operator="out"/>
<feColorMatrix type="matrix" values="0 0 0 0 0 0 0 0 0 0 0 0 0 0 0 0 0 0 0.25 0"/>
<feBlend mode="normal" in2="BackgroundImageFix" result="effect1_dropShadow_2013_51"/>
<feBlend mode="normal" in="SourceGraphic" in2="effect1_dropShadow_2013_51" result="shape"/>
</filter>
<filter id="filter1_i_2013_51" x="136.58" y="48.3848" width="348.029" height="54.6152" filterUnits="userSpaceOnUse" color-interpolation-filters="sRGB">
<feFlood flood-opacity="0" result="BackgroundImageFix"/>
<feBlend mode="normal" in="SourceGraphic" in2="BackgroundImageFix" result="shape"/>
<feColorMatrix in="SourceAlpha" type="matrix" values="0 0 0 0 0 0 0 0 0 0 0 0 0 0 0 0 0 0 127 0" result="hardAlpha"/>
<feOffset dy="4"/>
<feComposite in2="hardAlpha" operator="arithmetic" k2="-1" k3="1"/>
<feColorMatrix type="matrix" values="0 0 0 0 0 0 0 0 0 0 0 0 0 0 0 0 0 0 0.29 0"/>
<feBlend mode="normal" in2="shape" result="effect1_innerShadow_2013_51"/>
</filter>
<filter id="filter2_i_2013_51" x="68.9224" y="134.218" width="484.32" height="28.5894" filterUnits="userSpaceOnUse" color-interpolation-filters="sRGB">
<feFlood flood-opacity="0" result="BackgroundImageFix"/>
<feBlend mode="normal" in="SourceGraphic" in2="BackgroundImageFix" result="shape"/>
<feColorMatrix in="SourceAlpha" type="matrix" values="0 0 0 0 0 0 0 0 0 0 0 0 0 0 0 0 0 0 127 0" result="hardAlpha"/>
<feOffset dy="4"/>
<feComposite in2="hardAlpha" operator="arithmetic" k2="-1" k3="1"/>
<feColorMatrix type="matrix" values="0 0 0 0 0 0 0 0 0 0 0 0 0 0 0 0 0 0 0.29 0"/>
<feBlend mode="normal" in2="shape" result="effect1_innerShadow_2013_51"/>
</filter>
</defs>
</svg>
