<svg width="295" height="113" viewBox="0 0 295 113" fill="none" xmlns="http://www.w3.org/2000/svg">
<g filter="url(#filter0_d_2027_4)">
<path d="M18 57C18 37.67 33.67 22 53 22H249C268.33 22 284 37.67 284 57C284 76.33 268.33 92 249 92H53C33.67 92 18 76.33 18 57Z" fill="url(#paint0_linear_2027_4)"/>
</g>
<g filter="url(#filter1_d_2027_4)">
<path d="M106.747 72C106.747 67.072 106.747 62.0853 106.747 57.04C106.747 51.9947 106.747 47.008 106.747 42.08C108.507 42.08 110.267 42.08 112.027 42.08C113.816 42.08 115.591 42.08 117.351 42.08C119.58 42.08 121.531 42.5053 123.203 43.356C124.875 44.1773 126.165 45.3507 127.075 46.876C128.013 48.372 128.483 50.132 128.483 52.156C128.483 53.8867 128.131 55.4267 127.427 56.776C126.723 58.1253 125.769 59.2253 124.567 60.076C125.74 62.0413 126.913 64.036 128.087 66.06C129.289 68.0547 130.477 70.0347 131.651 72C130.213 72 128.776 72 127.339 72C125.901 72 124.464 72 123.027 72C122.117 70.3573 121.193 68.6853 120.255 66.984C119.345 65.2827 118.421 63.6107 117.483 61.968C116.984 61.968 116.471 61.968 115.943 61.968C115.444 61.968 114.945 61.968 114.447 61.968C114.447 63.6107 114.447 65.2827 114.447 66.984C114.447 68.6853 114.447 70.3573 114.447 72C113.185 72 111.909 72 110.619 72C109.328 72 108.037 72 106.747 72ZM117.351 49.032C116.881 49.032 116.397 49.032 115.899 49.032C115.429 49.032 114.945 49.032 114.447 49.032C114.447 50.1173 114.447 51.2027 114.447 52.288C114.447 53.3733 114.447 54.4587 114.447 55.544C115.004 55.544 115.561 55.544 116.119 55.544C116.676 55.544 117.233 55.544 117.791 55.544C118.671 55.544 119.389 55.236 119.947 54.62C120.504 53.9747 120.783 53.1973 120.783 52.288C120.783 51.3493 120.475 50.572 119.859 49.956C119.272 49.34 118.436 49.032 117.351 49.032ZM158.192 60.648C158.192 62.496 157.869 64.168 157.224 65.664C156.608 67.1307 155.728 68.392 154.584 69.448C153.469 70.504 152.149 71.3107 150.624 71.868C149.128 72.4253 147.5 72.704 145.74 72.704C143.951 72.704 142.308 72.4253 140.812 71.868C139.316 71.3107 138.011 70.5187 136.896 69.492C135.811 68.436 134.96 67.1747 134.344 65.708C133.728 64.2413 133.42 62.584 133.42 60.736C133.42 57.656 133.42 54.5467 133.42 51.408C133.42 48.2693 133.42 45.16 133.42 42.08C134.711 42.08 136.001 42.08 137.292 42.08C138.583 42.08 139.859 42.08 141.12 42.08C141.12 45.1013 141.12 48.1373 141.12 51.188C141.12 54.2387 141.12 57.2747 141.12 60.296C141.12 61.88 141.56 63.156 142.44 64.124C143.32 65.092 144.449 65.576 145.828 65.576C147.207 65.576 148.321 65.092 149.172 64.124C150.052 63.156 150.492 61.88 150.492 60.296C150.492 57.2747 150.492 54.2387 150.492 51.188C150.492 48.1373 150.492 45.1013 150.492 42.08C151.783 42.08 153.073 42.08 154.364 42.08C155.655 42.08 156.931 42.08 158.192 42.08C158.192 45.1307 158.192 48.2253 158.192 51.364C158.192 54.5027 158.192 57.5973 158.192 60.648ZM163.465 72C163.465 67.072 163.465 62.0853 163.465 57.04C163.465 51.9947 163.465 47.008 163.465 42.08C164.756 42.08 166.047 42.08 167.337 42.08C168.657 42.08 169.948 42.08 171.209 42.08C172.764 44.8667 174.333 47.6827 175.917 50.528C177.531 53.3733 179.115 56.1893 180.669 58.976C180.669 56.1893 180.669 53.3733 180.669 50.528C180.669 47.6827 180.669 44.8667 180.669 42.08C181.931 42.08 183.192 42.08 184.453 42.08C185.715 42.08 186.976 42.08 188.237 42.08C188.237 47.008 188.237 51.9947 188.237 57.04C188.237 62.0853 188.237 67.072 188.237 72C186.976 72 185.685 72 184.365 72C183.075 72 181.784 72 180.493 72C178.939 69.2133 177.355 66.3973 175.741 63.552C174.157 60.7067 172.588 57.8907 171.033 55.104C171.033 57.8907 171.033 60.7067 171.033 63.552C171.033 66.3973 171.033 69.2133 171.033 72C169.772 72 168.511 72 167.249 72C165.988 72 164.727 72 163.465 72Z" fill="#EDECEE"/>
</g>
<defs>
<filter id="filter0_d_2027_4" x="14" y="22" width="274" height="83" filterUnits="userSpaceOnUse" color-interpolation-filters="sRGB">
<feFlood flood-opacity="0" result="BackgroundImageFix"/>
<feColorMatrix in="SourceAlpha" type="matrix" values="0 0 0 0 0 0 0 0 0 0 0 0 0 0 0 0 0 0 127 0" result="hardAlpha"/>
<feOffset dy="9"/>
<feGaussianBlur stdDeviation="2"/>
<feComposite in2="hardAlpha" operator="out"/>
<feColorMatrix type="matrix" values="0 0 0 0 0 0 0 0 0 0 0 0 0 0 0 0 0 0 0.25 0"/>
<feBlend mode="normal" in2="BackgroundImageFix" result="effect1_dropShadow_2027_4"/>
<feBlend mode="normal" in="SourceGraphic" in2="effect1_dropShadow_2027_4" result="shape"/>
</filter>
<filter id="filter1_d_2027_4" x="106.747" y="42.08" width="85.5908" height="36.724" filterUnits="userSpaceOnUse" color-interpolation-filters="sRGB">
<feFlood flood-opacity="0" result="BackgroundImageFix"/>
<feColorMatrix in="SourceAlpha" type="matrix" values="0 0 0 0 0 0 0 0 0 0 0 0 0 0 0 0 0 0 127 0" result="hardAlpha"/>
<feOffset dx="4" dy="6"/>
<feGaussianBlur stdDeviation="0.05"/>
<feComposite in2="hardAlpha" operator="out"/>
<feColorMatrix type="matrix" values="0 0 0 0 0 0 0 0 0 0 0 0 0 0 0 0 0 0 0.25 0"/>
<feBlend mode="normal" in2="BackgroundImageFix" result="effect1_dropShadow_2027_4"/>
<feBlend mode="normal" in="SourceGraphic" in2="effect1_dropShadow_2027_4" result="shape"/>
</filter>
<linearGradient id="paint0_linear_2027_4" x1="-65" y1="22" x2="274" y2="92" gradientUnits="userSpaceOnUse">
<stop stop-color="#61FFCA"/>
<stop offset="1" stop-color="#A277FF"/>
</linearGradient>
</defs>
</svg>
